<?xml version="1.0" standalone="no"?>
<!DOCTYPE svg PUBLIC "-//W3C//DTD SVG 1.1//EN" "http://www.w3.org/Graphics/SVG/1.1/DTD/svg11.dtd" >
<svg xmlns="http://www.w3.org/2000/svg" xmlns:xlink="http://www.w3.org/1999/xlink" version="1.1">
<metadata>
Created by FontForge 20170910 at Fri Oct 14 21:02:19 2016
 By Jimmy Wärting
Copyright (c) 2012 by atipo. All rights reserved.
</metadata>
<defs>
<font id="Bariol" horiz-adv-x="518" >
  <font-face 
    font-family="Bariol"
    font-weight="400"
    font-stretch="normal"
    units-per-em="1000"
    panose-1="2 0 5 6 4 0 0 2 0 3"
    ascent="787"
    descent="-213"
    x-height="454"
    cap-height="681"
    bbox="-166 -241 1036 1015.06"
    underline-thickness="20"
    underline-position="-133"
    stemh="23"
    stemv="27"
    unicode-range="U+0020-FB06"
  />
<missing-glyph horiz-adv-x="580" 
d="M309 124h-55v55h55v-55zM305 229h-47v39c0 111 106 129 106 206c0 46 -35 70 -76 70c-46 0 -79 -21 -79 -81h-48c0 93 57 131 128 131s125 -39 125 -116c0 -106 -109 -114 -109 -210v-39zM88 48h404v603h-404v-603zM40 700h500v-700h-500v700z" />
    <glyph glyph-name="ellipsis" unicode="&#x2e;&#x2e;&#x2e;" horiz-adv-x="703" 
d="M80 -8c-29 0 -47 14 -47 47s18 48 47 48s47 -15 47 -48s-18 -47 -47 -47zM351 -8c-29 0 -47 14 -47 47s18 48 47 48s47 -15 47 -48s-18 -47 -47 -47zM623 -8c-29 0 -47 14 -47 47s18 48 47 48s47 -15 47 -48s-18 -47 -47 -47z" />
    <glyph glyph-name="f_f_i" unicode="ffi" horiz-adv-x="739" 
d="M352 394h-203v-370c0 -18 -14 -32 -32 -32s-32 14 -32 32v370h-34c-17 0 -30 13 -30 30s13 30 30 30h34v59c0 90 51 172 173 172c17 0 30 -13 30 -30s-13 -30 -30 -30c-78 0 -109 -47 -109 -112v-59h203v59c0 90 51 172 173 172c44 0 88 -12 106 -22c12 -7 18 -16 18 -28
c0 -17 -13 -30 -30 -30c-6 0 -13 3 -21 6c-22 8 -40 14 -73 14c-78 0 -109 -47 -109 -112v-59h226c18 0 32 -14 32 -32v-398c0 -18 -14 -32 -32 -32s-32 14 -32 32v370h-194v-370c0 -18 -14 -32 -32 -32s-32 14 -32 32v370z" />
    <glyph glyph-name="f_f_l" unicode="ffl" horiz-adv-x="764" 
d="M352 394h-203v-370c0 -18 -14 -32 -32 -32s-32 14 -32 32v370h-34c-17 0 -30 13 -30 30s13 30 30 30h34v59c0 90 51 172 173 172c17 0 30 -13 30 -30s-13 -30 -30 -30c-78 0 -109 -47 -109 -112v-59h203v59c0 90 51 172 173 172c56 0 103 -14 127 -26
c16 -8 22 -18 22 -31v-519c0 -40 13 -57 40 -57c16 0 30 -13 30 -30s-14 -30 -30 -30c-67 0 -104 40 -104 117v285h-194v-370c0 -18 -14 -32 -32 -32s-32 14 -32 32v370zM416 513v-59h194v156c-22 8 -47 15 -85 15c-78 0 -109 -47 -109 -112z" />
    <glyph glyph-name="f_f" unicode="ff" horiz-adv-x="556" 
d="M352 394h-203v-370c0 -18 -14 -32 -32 -32s-32 14 -32 32v370h-34c-17 0 -30 13 -30 30s13 30 30 30h34v59c0 90 51 172 173 172c17 0 30 -13 30 -30s-13 -30 -30 -30c-78 0 -109 -47 -109 -112v-59h203v59c0 90 51 172 173 172c17 0 30 -13 30 -30s-13 -30 -30 -30
c-78 0 -109 -47 -109 -112v-59h91c17 0 30 -13 30 -30s-13 -30 -30 -30h-91v-370c0 -18 -14 -32 -32 -32s-32 14 -32 32v370z" />
    <glyph glyph-name="f_j" unicode="fj" horiz-adv-x="472" 
d="M343 -35v429h-194v-370c0 -18 -14 -32 -32 -32s-32 14 -32 32v370h-34c-17 0 -30 13 -30 30s13 30 30 30h34v59c0 90 51 172 173 172c44 0 88 -12 106 -22c12 -7 18 -16 18 -28c0 -17 -13 -30 -30 -30c-6 0 -13 3 -21 6c-22 8 -40 14 -73 14c-78 0 -109 -47 -109 -112
v-59h226c18 0 32 -14 32 -32v-457c0 -84 -61 -150 -146 -150c-17 0 -30 13 -30 30s13 30 30 30c48 0 82 40 82 90z" />
    <glyph glyph-name="f_b" unicode="fb" horiz-adv-x="779" 
d="M407 322v-138c0 -95 55 -139 132 -139c92 0 141 58 141 183c0 123 -50 182 -141 182c-94 0 -132 -88 -132 -88zM343 184v426c-22 8 -47 15 -85 15c-78 0 -109 -47 -109 -112v-59h91c17 0 30 -13 30 -30s-13 -30 -30 -30h-91v-370c0 -18 -14 -32 -32 -32s-32 14 -32 32
v370h-34c-17 0 -30 13 -30 30s13 30 30 30h34v59c0 90 51 172 173 172c56 0 103 -14 127 -26c16 -8 22 -18 22 -31v-225c23 32 72 65 136 65c129 0 201 -76 201 -240s-76 -241 -205 -241c-114 0 -196 65 -196 197z" />
    <glyph glyph-name="f_f_b" unicode="ffb" horiz-adv-x="1046" 
d="M610 184v426c-22 8 -47 15 -85 15c-78 0 -109 -47 -109 -112v-59h91c17 0 30 -13 30 -30s-13 -30 -30 -30h-91v-370c0 -18 -14 -32 -32 -32s-32 14 -32 32v370h-203v-370c0 -18 -14 -32 -32 -32s-32 14 -32 32v370h-34c-17 0 -30 13 -30 30s13 30 30 30h34v59
c0 90 51 172 173 172c17 0 30 -13 30 -30s-13 -30 -30 -30c-78 0 -109 -47 -109 -112v-59h203v59c0 90 51 172 173 172c56 0 103 -14 127 -26c16 -8 22 -18 22 -31v-225c23 32 72 65 136 65c129 0 201 -76 201 -240s-76 -241 -205 -241c-114 0 -196 65 -196 197zM674 322
v-138c0 -95 55 -139 132 -139c92 0 141 58 141 183c0 123 -50 182 -141 182c-94 0 -132 -88 -132 -88z" />
    <glyph glyph-name="f_h" unicode="fh" horiz-adv-x="779" 
d="M343 24v586c-22 8 -47 15 -85 15c-78 0 -109 -47 -109 -112v-59h91c17 0 30 -13 30 -30s-13 -30 -30 -30h-91v-370c0 -18 -14 -32 -32 -32s-32 14 -32 32v370h-34c-17 0 -30 13 -30 30s13 30 30 30h34v59c0 90 51 172 173 172c56 0 103 -14 127 -26c16 -8 22 -18 22 -31
v-230c19 38 68 70 133 70c154 0 184 -92 184 -177v-267c0 -18 -14 -32 -32 -32s-32 14 -32 32v254c0 79 -23 133 -120 133c-99 0 -133 -60 -133 -140v-247c0 -18 -14 -32 -32 -32s-32 14 -32 32z" />
    <glyph glyph-name="f_f_h" unicode="ffh" horiz-adv-x="1046" 
d="M610 24v586c-22 8 -47 15 -85 15c-78 0 -109 -47 -109 -112v-59h91c17 0 30 -13 30 -30s-13 -30 -30 -30h-91v-370c0 -18 -14 -32 -32 -32s-32 14 -32 32v370h-203v-370c0 -18 -14 -32 -32 -32s-32 14 -32 32v370h-34c-17 0 -30 13 -30 30s13 30 30 30h34v59
c0 90 51 172 173 172c17 0 30 -13 30 -30s-13 -30 -30 -30c-78 0 -109 -47 -109 -112v-59h203v59c0 90 51 172 173 172c56 0 103 -14 127 -26c16 -8 22 -18 22 -31v-230c19 38 68 70 133 70c154 0 184 -92 184 -177v-267c0 -18 -14 -32 -32 -32s-32 14 -32 32v254
c0 79 -23 133 -120 133c-99 0 -133 -60 -133 -140v-247c0 -18 -14 -32 -32 -32s-32 14 -32 32z" />
    <glyph glyph-name="f_k" unicode="fk" horiz-adv-x="731" 
d="M343 24v586c-22 8 -47 15 -85 15c-78 0 -109 -47 -109 -112v-59h91c17 0 30 -13 30 -30s-13 -30 -30 -30h-91v-370c0 -18 -14 -32 -32 -32s-32 14 -32 32v370h-34c-17 0 -30 13 -30 30s13 30 30 30h34v59c0 90 51 172 173 172c56 0 103 -14 127 -26c16 -8 22 -18 22 -31
v-367l236 193c8 7 16 8 22 8c18 0 32 -14 32 -32c0 -8 -3 -18 -13 -26l-164 -131l178 -229c6 -7 7 -14 7 -20c0 -18 -14 -32 -32 -32c-11 0 -20 5 -28 15l-177 227l-61 -49v-161c0 -18 -14 -32 -32 -32s-32 14 -32 32z" />
    <glyph glyph-name="f_f_k" unicode="ffk" horiz-adv-x="998" 
d="M674 628v-367l236 193c8 7 16 8 22 8c18 0 32 -14 32 -32c0 -8 -3 -18 -13 -26l-164 -131l178 -229c6 -7 7 -14 7 -20c0 -18 -14 -32 -32 -32c-11 0 -20 5 -28 15l-177 227l-61 -49v-161c0 -18 -14 -32 -32 -32s-32 14 -32 32v586c-22 8 -47 15 -85 15
c-78 0 -109 -47 -109 -112v-59h91c17 0 30 -13 30 -30s-13 -30 -30 -30h-91v-370c0 -18 -14 -32 -32 -32s-32 14 -32 32v370h-203v-370c0 -18 -14 -32 -32 -32s-32 14 -32 32v370h-34c-17 0 -30 13 -30 30s13 30 30 30h34v59c0 90 51 172 173 172c17 0 30 -13 30 -30
s-13 -30 -30 -30c-78 0 -109 -47 -109 -112v-59h203v59c0 90 51 172 173 172c56 0 103 -14 127 -26c16 -8 22 -18 22 -31z" />
    <glyph glyph-name="f_f_j" unicode="ffj" horiz-adv-x="739" 
d="M610 -35v429h-194v-370c0 -18 -14 -32 -32 -32s-32 14 -32 32v370h-203v-370c0 -18 -14 -32 -32 -32s-32 14 -32 32v370h-34c-17 0 -30 13 -30 30s13 30 30 30h34v59c0 90 51 172 173 172c17 0 30 -13 30 -30s-13 -30 -30 -30c-78 0 -109 -47 -109 -112v-59h203v59
c0 90 51 172 173 172c44 0 88 -12 106 -22c12 -7 18 -16 18 -28c0 -17 -13 -30 -30 -30c-6 0 -13 3 -21 6c-22 8 -40 14 -73 14c-78 0 -109 -47 -109 -112v-59h226c18 0 32 -14 32 -32v-457c0 -84 -61 -150 -146 -150c-17 0 -30 13 -30 30s13 30 30 30c48 0 82 40 82 90z
" />
    <glyph glyph-name="fl" unicode="fl" horiz-adv-x="497" 
d="M85 394h-34c-17 0 -30 13 -30 30s13 30 30 30h34v59c0 90 51 172 173 172c56 0 103 -14 127 -26c16 -8 22 -18 22 -31v-519c0 -40 13 -57 40 -57c16 0 30 -13 30 -30s-14 -30 -30 -30c-67 0 -104 40 -104 117v285h-194v-370c0 -18 -14 -32 -32 -32s-32 14 -32 32v370z
M149 513v-59h194v156c-22 8 -47 15 -85 15c-78 0 -109 -47 -109 -112z" />
    <glyph glyph-name="fi" unicode="fi" horiz-adv-x="472" 
d="M85 394h-34c-17 0 -30 13 -30 30s13 30 30 30h34v59c0 90 51 172 173 172c44 0 88 -12 106 -22c12 -7 18 -16 18 -28c0 -17 -13 -30 -30 -30c-6 0 -13 3 -21 6c-22 8 -40 14 -73 14c-78 0 -109 -47 -109 -112v-59h226c18 0 32 -14 32 -32v-398c0 -18 -14 -32 -32 -32
s-32 14 -32 32v370h-194v-370c0 -18 -14 -32 -32 -32s-32 14 -32 32v370z" />
    <glyph glyph-name=".notdef" horiz-adv-x="580" 
d="M309 124h-55v55h55v-55zM305 229h-47v39c0 111 106 129 106 206c0 46 -35 70 -76 70c-46 0 -79 -21 -79 -81h-48c0 93 57 131 128 131s125 -39 125 -116c0 -106 -109 -114 -109 -210v-39zM88 48h404v603h-404v-603zM40 700h500v-700h-500v700z" />
    <glyph glyph-name="space" unicode=" " horiz-adv-x="238" 
 />
    <glyph glyph-name="numbersign" unicode="#" horiz-adv-x="550" 
d="M104 23l29 189h-63c-13 0 -24 11 -24 24s11 24 24 24h71l21 136h-70c-13 0 -24 11 -24 24s11 24 24 24h78l28 187c2 12 12 21 25 21c14 0 25 -11 25 -25c0 0 0 -4 -1 -9l-26 -174h139l28 187c2 12 12 21 25 21c14 0 25 -11 25 -25c0 0 0 -4 -1 -9l-26 -174h69
c13 0 24 -11 24 -24s-11 -24 -24 -24h-77l-21 -136h76c13 0 24 -11 24 -24s-11 -24 -24 -24h-84l-31 -202c-2 -12 -12 -21 -25 -21c-14 0 -25 11 -25 25c0 0 0 4 1 9l29 189h-139l-31 -202c-2 -12 -12 -21 -25 -21c-14 0 -25 11 -25 25c0 0 0 4 1 9zM213 396l-21 -136h139
l21 136h-139z" />
    <glyph glyph-name="percent" unicode="%" horiz-adv-x="746" 
d="M535 681c14 0 25 -11 25 -25c0 -3 -1 -8 -2 -10l-326 -641c-4 -8 -13 -13 -22 -13c-14 0 -25 11 -25 25c0 3 0 6 2 10l326 641c3 6 11 13 22 13zM188 407c77 0 97 54 97 117c0 64 -20 117 -97 117c-76 0 -96 -53 -96 -117c0 -63 20 -117 96 -117zM188 687
c109 0 147 -72 147 -163c0 -90 -38 -163 -147 -163c-108 0 -146 73 -146 163c0 91 38 163 146 163zM558 33c77 0 97 54 97 117c0 64 -20 117 -97 117c-76 0 -96 -53 -96 -117c0 -63 20 -117 96 -117zM558 313c109 0 147 -72 147 -163c0 -90 -38 -163 -147 -163
c-108 0 -146 73 -146 163c0 91 38 163 146 163z" />
    <glyph glyph-name="ampersand" unicode="&#x26;" horiz-adv-x="616" 
d="M172 533c0 -58 13 -103 33 -141c61 41 115 108 115 161c0 50 -32 76 -70 76c-53 0 -78 -42 -78 -96zM392 93c-87 68 -157 128 -207 210c-46 -30 -77 -71 -77 -128c0 -81 71 -131 150 -131c58 0 106 25 134 49zM444 53c-44 -40 -104 -67 -186 -67c-119 0 -214 66 -214 189
c0 77 38 131 110 183c-22 41 -46 95 -46 175c0 87 51 154 142 154c77 0 134 -49 134 -134c0 -86 -64 -149 -149 -213c47 -75 120 -142 199 -201c24 35 35 76 41 101c3 12 15 23 30 23c17 0 31 -14 31 -31c0 -6 -1 -13 -3 -20c-10 -38 -25 -76 -48 -111c37 -24 59 -32 98 -49
c14 -6 20 -18 20 -29c0 -17 -14 -31 -31 -31c-26 0 -97 38 -128 61z" />
    <glyph glyph-name="quoteright" unicode="&#x2019;" horiz-adv-x="154" 
d="M125 617c0 -69 -28 -133 -72 -179c-3 -3 -6 -6 -13 -6c-8 0 -15 6 -15 15c0 3 1 6 3 9c24 33 37 56 37 91c0 38 -36 45 -36 86c0 33 18 48 47 48c31 0 49 -18 49 -64z" />
    <glyph glyph-name="parenleft" unicode="(" horiz-adv-x="294" 
d="M60 296c0 278 43 383 170 439c5 2 8 3 13 3c15 0 28 -13 28 -28c0 -9 -5 -20 -18 -26c-124 -60 -129 -176 -129 -388s5 -328 129 -388c13 -6 18 -17 18 -26c0 -15 -13 -28 -28 -28c-5 0 -8 1 -13 3c-127 56 -170 161 -170 439z" />
    <glyph glyph-name="parenright" unicode=")" horiz-adv-x="294" 
d="M234 296c0 -278 -43 -383 -170 -439c-5 -2 -8 -3 -13 -3c-15 0 -28 13 -28 28c0 9 5 20 18 26c124 60 129 176 129 388s-5 328 -129 388c-13 6 -18 17 -18 26c0 15 13 28 28 28c5 0 8 -1 13 -3c127 -56 170 -161 170 -439z" />
    <glyph glyph-name="asterisk" unicode="*" horiz-adv-x="357" 
d="M240 441l-62 93l-62 -93c-8 -13 -18 -14 -29 -6s-14 18 -6 29l64 88l-101 23c-13 3 -18 12 -15 27c3 14 14 19 26 15l105 -31l-4 106c0 15 9 20 22 20s22 -5 22 -20l-4 -106l105 31c12 4 23 -1 26 -15c3 -15 -2 -24 -15 -27l-101 -23l64 -88c8 -11 5 -21 -6 -29
s-21 -7 -29 6z" />
    <glyph glyph-name="plus" unicode="+" horiz-adv-x="454" 
d="M454 218c0 -15 -12 -27 -27 -27h-171v-170c0 -16 -13 -29 -29 -29s-29 13 -29 29v170h-171c-15 0 -27 12 -27 27s12 27 27 27h171v171c0 16 13 29 29 29s29 -13 29 -29v-171h171c15 0 27 -12 27 -27z" />
    <glyph glyph-name="comma" unicode="," horiz-adv-x="162" 
d="M129 23c0 -69 -28 -133 -72 -179c-3 -3 -6 -6 -13 -6c-8 0 -15 6 -15 15c0 3 1 6 3 9c24 33 37 56 37 91c0 38 -36 45 -36 86c0 33 18 48 47 48c31 0 49 -18 49 -64z" />
    <glyph glyph-name="hyphen" unicode="-" horiz-adv-x="364" 
d="M309 252c0 -15 -12 -27 -27 -27h-200c-15 0 -27 12 -27 27s12 27 27 27h200c15 0 27 -12 27 -27z" />
    <glyph glyph-name="period" unicode="." horiz-adv-x="160" 
d="M80 -8c-29 0 -47 14 -47 47s18 48 47 48s47 -15 47 -48s-18 -47 -47 -47z" />
    <glyph glyph-name="slash" unicode="/" horiz-adv-x="407" 
d="M41 -51l264 779c5 16 18 23 31 23c18 0 32 -14 32 -32c0 -4 -1 -9 -3 -15l-264 -779c-5 -16 -18 -23 -31 -23c-18 0 -32 14 -32 32c0 4 1 9 3 15z" />
    <glyph glyph-name="zero" unicode="0" horiz-adv-x="602" 
d="M301 46c124 0 181 84 181 291s-57 290 -181 290s-181 -83 -181 -290s57 -291 181 -291zM301 687c168 0 247 -110 247 -350s-79 -351 -247 -351s-247 111 -247 351s79 350 247 350z" />
    <glyph glyph-name="one" unicode="1" horiz-adv-x="351" 
d="M195 589l-107 -77c-6 -4 -12 -6 -19 -6c-17 0 -32 15 -32 32c0 10 5 21 14 27l157 109c7 5 13 7 20 7c18 0 33 -15 33 -33v-623c0 -18 -15 -33 -33 -33s-33 15 -33 33v564z" />
    <glyph glyph-name="two" unicode="2" horiz-adv-x="532" 
d="M67 557c27 81 97 130 200 130c134 0 214 -78 214 -195c0 -240 -371 -310 -371 -430h349c17 0 31 -14 31 -31s-14 -31 -31 -31h-386c-17 0 -31 14 -31 31c0 220 372 244 372 461c0 77 -52 135 -147 135c-83 0 -119 -42 -142 -92c-6 -13 -16 -20 -29 -20
c-17 0 -31 14 -31 31c0 1 0 5 2 11z" />
    <glyph glyph-name="three" unicode="3" horiz-adv-x="542" 
d="M264 408h10c163 0 212 -104 212 -216c0 -131 -79 -206 -231 -206c-107 0 -176 48 -215 113c-3 5 -5 10 -5 17c0 17 13 30 30 30c9 0 19 -3 27 -16c31 -51 82 -84 163 -84c111 0 165 53 165 146c0 91 -37 156 -151 156h-70c-17 0 -30 13 -30 30c0 9 3 15 8 21l184 214
h-258c-17 0 -30 13 -30 30s13 30 30 30h326c17 0 30 -13 30 -30c0 -7 -2 -14 -8 -21z" />
    <glyph glyph-name="four" unicode="4" horiz-adv-x="540" 
d="M415 217h57c18 0 32 -13 32 -30c0 -18 -14 -32 -32 -32h-57v-130c0 -18 -15 -33 -33 -33s-33 15 -33 33v130h-292c-17 0 -31 14 -31 31c0 7 2 13 7 20l322 460c6 8 14 14 27 14c18 0 33 -15 33 -33v-430zM115 217h234v336z" />
    <glyph glyph-name="five" unicode="5" horiz-adv-x="555" 
d="M272 446c137 0 232 -71 232 -229c0 -160 -95 -231 -232 -231c-110 0 -190 50 -231 135c-3 6 -4 11 -4 15c0 17 14 31 31 31c9 0 19 -2 28 -17c43 -72 93 -102 176 -102c97 0 166 49 166 169c0 117 -69 168 -166 168c-72 0 -115 -17 -160 -61c-6 -6 -13 -13 -27 -13
c-17 0 -31 14 -31 31c0 5 1 8 2 13l58 294c2 11 13 24 30 24h304c17 0 31 -14 31 -31s-14 -31 -31 -31h-282l-40 -205c34 24 80 40 146 40z" />
    <glyph glyph-name="six" unicode="6" horiz-adv-x="566" 
d="M291 433c131 0 227 -70 227 -222c0 -161 -96 -225 -233 -225c-167 0 -237 139 -237 335c0 259 93 366 251 366c79 0 137 -29 161 -55c7 -7 10 -15 10 -23c0 -17 -14 -31 -31 -31c-7 0 -13 2 -21 8c-32 24 -71 41 -119 41c-141 0 -185 -123 -185 -282c27 40 89 88 177 88z
M285 46c97 0 167 42 167 165c0 115 -71 162 -161 162c-84 0 -138 -48 -172 -109c0 -126 57 -218 166 -218z" />
    <glyph glyph-name="seven" unicode="7" horiz-adv-x="483" 
d="M111 24c0 331 282 434 282 587h-337c-17 0 -31 14 -31 31s14 31 31 31h373c17 0 31 -14 31 -31c0 -227 -285 -291 -285 -618c0 -18 -14 -32 -32 -32s-32 14 -32 32z" />
    <glyph glyph-name="eight" unicode="8" horiz-adv-x="554" 
d="M277 -14c-139 0 -234 68 -234 204c0 86 44 150 118 178c-45 24 -88 66 -88 145c0 120 83 174 204 174s204 -54 204 -174c0 -79 -43 -121 -88 -145c74 -28 118 -92 118 -178c0 -136 -95 -204 -234 -204zM277 627c-86 0 -138 -37 -138 -114c0 -79 54 -118 138 -118
s138 39 138 118c0 77 -52 114 -138 114zM277 335c-105 0 -168 -46 -168 -145c0 -100 69 -144 168 -144s168 44 168 144c0 99 -63 145 -168 145z" />
    <glyph glyph-name="nine" unicode="9" horiz-adv-x="566" 
d="M275 240c-131 0 -227 70 -227 222c0 161 96 225 233 225c167 0 237 -139 237 -335c0 -259 -93 -366 -251 -366c-79 0 -137 29 -161 55c-7 7 -10 15 -10 23c0 17 14 31 31 31c7 0 13 -2 21 -8c32 -24 71 -41 119 -41c141 0 185 123 185 282c-27 -40 -89 -88 -177 -88z
M281 627c-97 0 -167 -42 -167 -165c0 -115 71 -162 161 -162c84 0 138 48 172 109c0 126 -57 218 -166 218z" />
    <glyph glyph-name="colon" unicode=":" horiz-adv-x="160" 
d="M80 -8c-29 0 -47 14 -47 47s18 48 47 48s47 -15 47 -48s-18 -47 -47 -47zM80 361c-29 0 -47 14 -47 47s18 48 47 48s47 -15 47 -48s-18 -47 -47 -47z" />
    <glyph glyph-name="semicolon" unicode=";" horiz-adv-x="160" 
d="M129 23c0 -69 -28 -133 -72 -179c-3 -3 -6 -6 -13 -6c-8 0 -15 6 -15 15c0 3 1 6 3 9c24 33 37 56 37 91c0 38 -36 45 -36 86c0 33 18 48 47 48c31 0 49 -18 49 -64zM80 361c-29 0 -47 14 -47 47s18 48 47 48s47 -15 47 -48s-18 -47 -47 -47z" />
    <glyph glyph-name="less" unicode="&#x3c;" horiz-adv-x="337" 
d="M0 235c0 11 6 18 13 23l281 222c4 3 9 5 16 5c15 0 27 -12 27 -27c0 -8 -3 -16 -11 -22l-260 -201l260 -201c8 -6 11 -14 11 -22c0 -15 -12 -27 -27 -27c-7 0 -12 2 -16 5l-281 222c-7 5 -13 12 -13 23z" />
    <glyph glyph-name="equal" unicode="=" horiz-adv-x="454" 
d="M454 294c0 -15 -12 -27 -27 -27h-400c-15 0 -27 12 -27 27s12 27 27 27h400c15 0 27 -12 27 -27zM454 141c0 -15 -12 -27 -27 -27h-400c-15 0 -27 12 -27 27s12 27 27 27h400c15 0 27 -12 27 -27z" />
    <glyph glyph-name="greater" unicode="&#x3e;" horiz-adv-x="337" 
d="M337 235c0 -11 -6 -18 -13 -23l-281 -222c-4 -3 -9 -5 -16 -5c-15 0 -27 12 -27 27c0 8 3 16 11 22l260 201l-260 201c-8 6 -11 14 -11 22c0 15 12 27 27 27c7 0 12 -2 16 -5l281 -222c7 -5 13 -12 13 -23z" />
    <glyph glyph-name="question" unicode="?" horiz-adv-x="461" 
d="M185 158c-24 24 -32 58 -32 85c0 130 209 127 209 275c0 74 -51 110 -134 110c-78 0 -128 -38 -128 -120c0 -18 -15 -33 -33 -33s-33 15 -33 33c0 111 71 179 194 179c124 0 198 -61 198 -169c0 -176 -206 -193 -206 -275c0 -19 6 -28 14 -40c6 -9 8 -15 8 -22
c0 -21 -18 -33 -33 -33c-10 0 -18 4 -24 10zM205 -8c-29 0 -47 14 -47 47s18 48 47 48s47 -15 47 -48s-18 -47 -47 -47z" />
    <glyph glyph-name="at" unicode="@" horiz-adv-x="801" 
d="M494 54c-23 -36 -63 -61 -119 -61c-75 0 -134 39 -134 109c0 67 48 108 130 108h116v25c0 50 -39 77 -93 77c-42 0 -68 -18 -88 -41c-7 -7 -13 -9 -20 -9c-13 0 -24 11 -24 24c0 5 2 11 5 15c24 32 62 58 127 58c95 0 141 -53 141 -129v-122c0 -56 24 -73 65 -73
c71 0 111 37 111 160c0 206 -123 296 -312 296c-190 0 -309 -86 -309 -319c0 -234 119 -318 309 -318c82 0 165 11 231 55c3 2 7 4 13 4c12 0 23 -9 23 -23c0 -7 -3 -14 -10 -19c-76 -47 -155 -61 -257 -61c-225 0 -359 115 -359 362c0 248 134 363 359 363
c209 0 362 -111 362 -340c0 -86 -25 -202 -161 -202c-59 0 -91 26 -106 61zM379 37c53 0 108 32 108 97v33h-116c-49 0 -80 -21 -80 -65c0 -40 30 -65 88 -65z" />
    <glyph glyph-name="A" unicode="A" horiz-adv-x="613" 
d="M425 261l-119 306l-118 -306h237zM446 199h-279l-73 -183c-5 -13 -16 -24 -33 -24c-19 0 -34 16 -34 34c0 4 1 11 3 15l244 617c5 12 14 23 32 23c17 0 28 -11 33 -23l244 -617c2 -5 3 -12 3 -15c0 -18 -14 -34 -35 -34c-17 0 -28 10 -33 23z" />
    <glyph glyph-name="B" unicode="B" horiz-adv-x="561" 
d="M148 611v-232h135c89 0 136 46 136 116c0 72 -43 116 -136 116h-135zM148 321v-259h165c91 0 137 49 137 130c0 82 -52 129 -137 129h-165zM314 0h-200c-18 0 -34 15 -34 34v605c0 19 16 34 34 34h170c141 0 204 -70 204 -178c0 -66 -41 -120 -97 -136
c72 -18 128 -70 128 -167c0 -116 -73 -192 -205 -192z" />
    <glyph glyph-name="C" unicode="C" horiz-adv-x="631" 
d="M356 -14c-194 0 -312 104 -312 350c0 237 118 351 312 351c95 0 178 -41 225 -106c5 -7 7 -14 7 -21c0 -18 -14 -32 -32 -32c-9 0 -18 3 -26 13c-34 47 -99 84 -174 84c-154 0 -242 -93 -242 -289c0 -208 88 -288 242 -288c66 0 135 26 174 82c7 10 18 13 26 13
c18 0 32 -14 32 -32c0 -8 -2 -13 -6 -19c-44 -64 -134 -106 -226 -106z" />
    <glyph glyph-name="D" unicode="D" horiz-adv-x="608" 
d="M148 611v-549h107c149 0 240 66 240 274c0 206 -91 275 -240 275h-107zM114 673h141c191 0 309 -90 309 -337s-118 -336 -309 -336h-141c-19 0 -34 15 -34 34v605c0 19 15 34 34 34z" />
    <glyph glyph-name="E" unicode="E" 
d="M446 0h-332c-19 0 -34 15 -34 34v605c0 19 15 34 34 34h321c17 0 31 -14 31 -31s-14 -31 -31 -31h-287v-241h220c17 0 31 -14 31 -31s-14 -31 -31 -31h-220v-246h298c17 0 31 -14 31 -31s-14 -31 -31 -31z" />
    <glyph glyph-name="F" unicode="F" 
d="M148 300v-274c0 -19 -15 -34 -34 -34s-34 15 -34 34v613c0 19 15 34 34 34h321c17 0 31 -14 31 -31s-14 -31 -31 -31h-287v-249h220c17 0 31 -14 31 -31s-14 -31 -31 -31h-220z" />
    <glyph glyph-name="G" unicode="G" horiz-adv-x="663" 
d="M356 48c93 0 153 39 186 80v145h-167c-17 0 -31 14 -31 31s14 31 31 31h202c16 0 31 -14 31 -31v-175c0 -12 -4 -22 -13 -33c-48 -56 -118 -110 -239 -110c-194 0 -312 104 -312 350c0 237 118 351 312 351c95 0 178 -41 225 -106c5 -7 7 -14 7 -21
c0 -18 -14 -32 -32 -32c-9 0 -18 3 -26 13c-34 47 -98 84 -174 84c-154 0 -242 -93 -242 -289c0 -208 88 -288 242 -288z" />
    <glyph glyph-name="H" unicode="H" horiz-adv-x="644" 
d="M496 314h-348v-288c0 -18 -15 -34 -34 -34s-34 16 -34 34v621c0 18 15 34 34 34s34 -16 34 -34v-271h348v271c0 18 15 34 34 34s34 -16 34 -34v-621c0 -18 -15 -34 -34 -34s-34 16 -34 34v288z" />
    <glyph glyph-name="I" unicode="I" horiz-adv-x="228" 
d="M148 647v-621c0 -18 -15 -34 -34 -34s-34 16 -34 34v621c0 18 15 34 34 34s34 -16 34 -34z" />
    <glyph glyph-name="J" unicode="J" horiz-adv-x="413" 
d="M35 10c-12 7 -19 17 -19 30c0 18 15 33 33 33c8 0 11 -2 20 -6c24 -12 47 -16 74 -16c88 0 122 64 122 152v444c0 18 15 34 34 34s34 -16 34 -34v-444c0 -122 -51 -216 -190 -216c-38 0 -82 8 -108 23z" />
    <glyph glyph-name="K" unicode="K" horiz-adv-x="554" 
d="M148 335l291 333c8 10 18 13 27 13c19 0 35 -16 35 -35c0 -10 -4 -17 -10 -24l-209 -234l242 -341c4 -6 7 -12 7 -21c0 -19 -15 -34 -34 -34c-15 0 -24 9 -29 16l-232 330l-88 -99v-213c0 -19 -15 -34 -34 -34s-34 15 -34 34v621c0 19 15 34 34 34s34 -15 34 -34v-312z
" />
    <glyph glyph-name="L" unicode="L" horiz-adv-x="483" 
d="M148 64h274c18 0 32 -14 32 -32s-14 -32 -32 -32h-308c-19 0 -34 15 -34 34v613c0 19 15 34 34 34s34 -15 34 -34v-583z" />
    <glyph glyph-name="M" unicode="M" horiz-adv-x="761" 
d="M375 109c-10 0 -23 5 -30 19l-209 389v-492c0 -18 -15 -33 -33 -33s-33 15 -33 33v623c0 18 15 33 33 33c15 0 25 -9 30 -19l242 -453l243 453c4 7 12 19 30 19s33 -15 33 -33v-623c0 -18 -15 -33 -33 -33s-33 15 -33 33v492l-210 -389c-7 -13 -18 -19 -30 -19z" />
    <glyph glyph-name="N" unicode="N" horiz-adv-x="620" 
d="M517 681c18 0 33 -15 33 -33v-622c0 -19 -15 -34 -34 -34c-12 0 -21 5 -28 14l-352 531v-512c0 -18 -15 -33 -33 -33s-33 15 -33 33v623c0 18 15 33 33 33c12 0 22 -7 27 -14l354 -532v513c0 18 15 33 33 33z" />
    <glyph glyph-name="O" unicode="O" horiz-adv-x="712" 
d="M356 -14c-194 0 -312 115 -312 350c0 237 118 351 312 351s312 -114 312 -351c0 -235 -118 -350 -312 -350zM356 625c-153 0 -242 -93 -242 -289c0 -195 89 -288 242 -288s242 93 242 288c0 196 -89 289 -242 289z" />
    <glyph glyph-name="P" unicode="P" horiz-adv-x="544" 
d="M148 611v-267h155c81 0 132 47 132 134c0 88 -52 133 -132 133h-155zM148 282v-256c0 -19 -15 -34 -34 -34s-34 15 -34 34v613c0 19 15 34 34 34h199c107 0 191 -62 191 -195c0 -131 -82 -196 -191 -196h-165z" />
    <glyph glyph-name="Q" unicode="Q" horiz-adv-x="712" 
d="M356 -14c-194 0 -312 115 -312 350c0 237 118 351 312 351s312 -114 312 -351c0 -169 -61 -276 -166 -323c26 -11 53 -28 72 -52c7 -9 10 -17 10 -25c0 -18 -15 -33 -34 -33c-9 0 -17 3 -25 11c-44 49 -73 72 -169 72zM356 625c-153 0 -242 -93 -242 -289
c0 -195 89 -288 242 -288s242 93 242 288c0 196 -89 289 -242 289z" />
    <glyph glyph-name="R" unicode="R" horiz-adv-x="546" 
d="M148 611v-258h167c70 0 120 57 120 129c0 74 -51 129 -123 129h-164zM148 291v-265c0 -19 -15 -34 -34 -34s-34 15 -34 34v613c0 19 15 34 34 34h199c111 0 191 -84 191 -191c0 -103 -71 -186 -179 -191l183 -244c5 -6 7 -14 7 -21c0 -19 -15 -34 -34 -34
c-10 0 -21 4 -29 16l-203 283h-101z" />
    <glyph glyph-name="S" unicode="S" horiz-adv-x="558" 
d="M443 546c-30 37 -78 79 -162 79c-105 0 -145 -52 -145 -109c0 -166 378 -95 378 -336c0 -125 -86 -194 -240 -194c-114 0 -199 58 -233 123c-4 8 -5 12 -5 18c0 18 14 32 32 32c12 0 22 -6 28 -16c32 -52 90 -95 178 -95c110 0 172 44 172 132c0 187 -378 99 -378 336
c0 92 67 171 213 171c95 0 172 -40 214 -103c4 -6 6 -12 6 -19c0 -18 -14 -32 -32 -32c-9 0 -18 3 -26 13z" />
    <glyph glyph-name="T" unicode="T" horiz-adv-x="538" 
d="M235 609h-179c-18 0 -32 14 -32 32s14 32 32 32h425c18 0 32 -14 32 -32s-14 -32 -32 -32h-178v-583c0 -19 -15 -34 -34 -34s-34 15 -34 34v583z" />
    <glyph glyph-name="U" unicode="U" horiz-adv-x="624" 
d="M315 -14c-189 0 -235 109 -235 219v442c0 19 15 34 34 34s34 -15 34 -34v-442c0 -79 29 -155 167 -155c137 0 166 76 166 155v442c0 19 15 34 34 34s34 -15 34 -34v-442c0 -110 -45 -219 -234 -219z" />
    <glyph glyph-name="V" unicode="V" horiz-adv-x="576" 
d="M288 121l203 538c3 8 13 22 32 22s34 -15 34 -34c0 -6 -2 -12 -3 -15l-234 -617c-5 -14 -19 -23 -32 -23s-27 9 -32 23l-234 617c-1 3 -3 9 -3 15c0 19 15 34 34 34s29 -14 32 -22z" />
    <glyph glyph-name="W" unicode="W" horiz-adv-x="818" 
d="M553 18l-144 509l-144 -509c-4 -16 -17 -26 -33 -26c-15 0 -29 10 -33 25l-177 618c-1 4 -2 8 -2 12c0 19 15 34 34 34s30 -14 33 -25l146 -517l143 517c4 16 18 25 33 25s29 -9 33 -25l143 -517l146 517c3 11 14 25 33 25s34 -15 34 -34c0 -4 -1 -8 -2 -12l-177 -618
c-4 -15 -18 -25 -33 -25c-16 0 -29 10 -33 26z" />
    <glyph glyph-name="X" unicode="X" horiz-adv-x="500" 
d="M432 5l-182 279l-182 -279c-5 -8 -16 -13 -27 -13c-19 0 -34 15 -34 34c0 7 2 13 5 18l200 301l-188 284c-3 4 -5 12 -5 18c0 19 15 34 34 34c14 0 23 -7 30 -17l167 -256l167 256c7 10 16 17 30 17c19 0 34 -15 34 -34c0 -6 -2 -14 -5 -18l-188 -284l200 -301
c3 -5 5 -11 5 -18c0 -19 -15 -34 -34 -34c-11 0 -22 5 -27 13z" />
    <glyph glyph-name="Y" unicode="Y" 
d="M259 -8c-19 0 -34 15 -34 34v287l-201 316c-3 5 -5 11 -5 18c0 19 15 34 34 34c12 0 23 -6 29 -16l177 -284l177 284c6 10 17 16 29 16c19 0 34 -15 34 -34c0 -7 -2 -13 -5 -18l-201 -316v-287c0 -19 -15 -34 -34 -34z" />
    <glyph glyph-name="Z" unicode="Z" horiz-adv-x="513" 
d="M469 0h-420c-18 0 -32 14 -32 32c0 7 2 13 6 19l372 558h-325c-18 0 -32 14 -32 32s14 32 32 32h384c18 0 32 -14 32 -32c0 -7 -2 -13 -6 -19l-369 -558h358c18 0 32 -14 32 -32s-14 -32 -32 -32z" />
    <glyph glyph-name="bracketleft" unicode="[" horiz-adv-x="259" 
d="M239 -120c0 -14 -12 -26 -26 -26h-101c-18 0 -32 14 -32 32v820c0 18 14 32 32 32h101c14 0 26 -12 26 -26s-12 -26 -26 -26h-69v-780h69c14 0 26 -12 26 -26z" />
    <glyph glyph-name="backslash" unicode="\" horiz-adv-x="407" 
d="M102 728l264 -779c2 -6 3 -11 3 -15c0 -18 -14 -32 -32 -32c-13 0 -26 7 -31 23l-264 779c-2 6 -3 11 -3 15c0 18 14 32 32 32c13 0 26 -7 31 -23z" />
    <glyph glyph-name="bracketright" unicode="]" horiz-adv-x="259" 
d="M20 -120c0 14 12 26 26 26h69v780h-69c-14 0 -26 12 -26 26s12 26 26 26h101c18 0 32 -14 32 -32v-820c0 -18 -14 -32 -32 -32h-101c-14 0 -26 12 -26 26z" />
    <glyph glyph-name="asciicircum" unicode="^" horiz-adv-x="468" 
d="M379 353l-145 261l-145 -261c-4 -7 -13 -13 -23 -13c-15 0 -27 12 -27 27c0 5 1 9 3 13l169 298c4 7 12 13 23 13s19 -6 23 -13l169 -298c2 -4 3 -8 3 -13c0 -15 -12 -27 -27 -27c-10 0 -19 6 -23 13z" />
    <glyph glyph-name="underscore" unicode="_" horiz-adv-x="406" 
d="M427 -70c0 -15 -12 -27 -27 -27h-394c-15 0 -27 12 -27 27s12 27 27 27h394c15 0 27 -12 27 -27z" />
    <glyph glyph-name="quoteleft" unicode="&#x2018;" horiz-adv-x="154" 
d="M29 496c0 69 28 133 72 179c3 3 6 6 13 6c8 0 15 -6 15 -15c0 -3 -1 -6 -3 -9c-24 -33 -37 -56 -37 -91c0 -38 36 -45 36 -86c0 -33 -18 -48 -47 -48c-31 0 -49 18 -49 64z" />
    <glyph glyph-name="a" unicode="a" horiz-adv-x="467" 
d="M232 408c-53 0 -85 -16 -116 -51c-10 -11 -17 -14 -26 -14c-16 0 -29 13 -29 29c0 7 2 12 5 17c28 44 82 79 166 79c116 0 180 -68 180 -170v-275c0 -17 -14 -31 -31 -31s-31 14 -31 31v36c-25 -47 -83 -72 -143 -72c-106 0 -173 51 -173 143c0 88 67 141 175 141h141v27
c0 68 -45 110 -118 110zM213 45c70 0 137 43 137 128v42h-141c-65 0 -110 -27 -110 -85c0 -52 36 -85 114 -85z" />
    <glyph glyph-name="b" unicode="b" horiz-adv-x="501" 
d="M129 322v-138c0 -95 55 -139 132 -139c92 0 141 58 141 183c0 123 -50 182 -141 182c-94 0 -132 -88 -132 -88zM265 468c129 0 201 -76 201 -240s-76 -241 -205 -241c-114 0 -196 65 -196 197v496c0 18 14 32 32 32s32 -14 32 -32v-277c23 32 72 65 136 65z" />
    <glyph glyph-name="c" unicode="c" horiz-adv-x="441" 
d="M35 228c0 164 77 240 206 240c89 0 138 -47 154 -69c5 -7 7 -12 7 -19c0 -17 -13 -29 -29 -29c-10 0 -17 4 -24 12c-15 17 -42 47 -108 47c-92 0 -141 -59 -141 -182c0 -125 49 -183 141 -183c58 0 93 26 116 43c7 5 12 7 19 7c16 0 29 -13 29 -29c0 -9 -3 -16 -13 -25
c-22 -18 -70 -54 -151 -54c-129 0 -206 77 -206 241z" />
    <glyph glyph-name="d" unicode="d" horiz-adv-x="501" 
d="M372 184v138s-38 88 -132 88c-91 0 -141 -59 -141 -182c0 -125 49 -183 141 -183c77 0 132 44 132 139zM236 468c64 0 113 -33 136 -65v277c0 18 14 32 32 32s32 -14 32 -32v-496c0 -132 -82 -197 -196 -197c-129 0 -205 77 -205 241s72 240 201 240z" />
    <glyph glyph-name="e" unicode="e" horiz-adv-x="466" 
d="M35 228c0 154 76 240 206 240c160 0 191 -127 191 -195c0 -29 0 -64 -40 -64h-292c0 -99 57 -163 151 -163c58 0 92 22 120 43c6 4 10 6 18 6c16 0 29 -13 29 -29c0 -11 -5 -17 -11 -23c-15 -15 -67 -56 -156 -56c-133 0 -216 73 -216 241zM369 265
c0 72 -25 145 -128 145c-87 0 -135 -56 -141 -145h269z" />
    <glyph glyph-name="f" unicode="f" horiz-adv-x="289" 
d="M85 394h-34c-17 0 -30 13 -30 30s13 30 30 30h34v59c0 90 51 172 173 172c17 0 30 -13 30 -30s-13 -30 -30 -30c-78 0 -109 -47 -109 -112v-59h91c17 0 30 -13 30 -30s-13 -30 -30 -30h-91v-370c0 -18 -14 -32 -32 -32s-32 14 -32 32v370z" />
    <glyph glyph-name="g" unicode="g" horiz-adv-x="478" 
d="M229 468c41 0 79 -9 107 -25c17 31 39 54 89 54c16 0 29 -13 29 -29s-13 -29 -29 -29c-30 0 -41 -15 -48 -31c23 -28 36 -65 36 -108c0 -102 -68 -168 -184 -168c-43 0 -80 9 -108 25c-11 -9 -18 -20 -18 -36c0 -21 14 -42 74 -42h103c97 0 175 -42 175 -136
c0 -104 -94 -144 -215 -144c-103 0 -213 30 -213 140c0 46 29 82 76 101c-37 12 -62 42 -62 81c0 30 16 54 40 70c-24 30 -36 66 -36 109c0 102 68 168 184 168zM229 190c77 0 119 44 119 110s-42 110 -119 110s-119 -44 -119 -110s42 -110 119 -110zM390 -57
c0 55 -45 76 -110 76h-104c-58 -10 -84 -40 -84 -80c0 -61 70 -84 149 -84s149 23 149 88z" />
    <glyph glyph-name="h" unicode="h" horiz-adv-x="501" 
d="M262 468c154 0 184 -92 184 -177v-267c0 -18 -14 -32 -32 -32s-32 14 -32 32v254c0 79 -23 133 -120 133c-99 0 -133 -60 -133 -140v-247c0 -18 -14 -32 -32 -32s-32 14 -32 32v656c0 18 14 32 32 32s32 -14 32 -32v-282c19 38 68 70 133 70z" />
    <glyph glyph-name="i" unicode="i" horiz-adv-x="193" 
d="M128 430v-406c0 -18 -14 -32 -32 -32s-32 14 -32 32v406c0 18 14 32 32 32s32 -14 32 -32zM96 556c-24 0 -38 14 -38 38c0 29 14 40 38 40s38 -11 38 -40c0 -24 -14 -38 -38 -38z" />
    <glyph glyph-name="j" unicode="j" horiz-adv-x="194" 
d="M65 -35v465c0 18 14 32 32 32s32 -14 32 -32v-465c0 -84 -61 -150 -146 -150c-17 0 -30 13 -30 30s13 30 30 30c48 0 82 40 82 90zM97 556c-24 0 -38 14 -38 38c0 29 14 40 38 40s38 -11 38 -40c0 -24 -14 -38 -38 -38z" />
    <glyph glyph-name="k" unicode="k" horiz-adv-x="453" 
d="M395 -8c-11 0 -20 5 -28 15l-177 227l-61 -49v-161c0 -18 -14 -32 -32 -32s-32 14 -32 32v656c0 18 14 32 32 32s32 -14 32 -32v-419l236 193c8 7 16 8 22 8c18 0 32 -14 32 -32c0 -8 -3 -18 -13 -26l-164 -131l178 -229c6 -7 7 -14 7 -20c0 -18 -14 -32 -32 -32z" />
    <glyph glyph-name="l" unicode="l" horiz-adv-x="219" 
d="M97 712c18 0 32 -15 32 -32v-571c0 -40 13 -57 40 -57c16 0 30 -13 30 -30s-14 -30 -30 -30c-67 0 -104 40 -104 117v571c0 17 15 32 32 32z" />
    <glyph glyph-name="m" unicode="m" horiz-adv-x="808" 
d="M564 468c154 0 189 -92 189 -177v-267c0 -18 -14 -32 -32 -32s-32 14 -32 32v254c0 79 -28 133 -125 133c-86 0 -125 -46 -125 -120v-267c0 -18 -14 -32 -32 -32s-32 14 -32 32v254c0 79 -25 133 -123 133c-93 0 -123 -56 -123 -140v-247c0 -18 -14 -32 -32 -32
s-32 14 -32 32v406c0 18 14 32 32 32s32 -14 32 -32v-32c17 37 65 70 130 70c82 0 135 -30 159 -70c25 39 69 70 146 70z" />
    <glyph glyph-name="n" unicode="n" horiz-adv-x="501" 
d="M262 468c154 0 184 -92 184 -177v-267c0 -18 -14 -32 -32 -32s-32 14 -32 32v254c0 79 -23 133 -120 133c-99 0 -133 -60 -133 -140v-247c0 -18 -14 -32 -32 -32s-32 14 -32 32v406c0 18 14 32 32 32s32 -14 32 -32v-32c19 38 68 70 133 70z" />
    <glyph glyph-name="o" unicode="o" horiz-adv-x="490" 
d="M245 468c130 0 210 -76 210 -240s-80 -241 -210 -241c-129 0 -210 77 -210 241s81 240 210 240zM245 45c92 0 145 55 145 183c0 126 -53 182 -145 182s-145 -56 -145 -182c0 -128 53 -183 145 -183z" />
    <glyph glyph-name="p" unicode="p" horiz-adv-x="509" 
d="M97 462c17 0 32 -14 32 -32v-32c19 34 69 70 136 70c130 0 209 -76 209 -240s-79 -241 -209 -241c-67 0 -115 36 -136 70v-226c0 -17 -15 -32 -32 -32s-32 15 -32 32v599c0 18 15 32 32 32zM127 228c0 -129 60 -183 138 -183c92 0 144 58 144 183s-54 182 -146 182
c-74 0 -136 -52 -136 -182z" />
    <glyph glyph-name="q" unicode="q" horiz-adv-x="490" 
d="M372 133v138c0 95 -55 139 -132 139c-92 0 -141 -58 -141 -183c0 -123 50 -182 141 -182c94 0 132 88 132 88zM236 -13c-129 0 -201 76 -201 240s76 241 205 241c114 0 196 -65 196 -197v-440c0 -18 -14 -32 -32 -32s-32 14 -32 32v221c-23 -32 -72 -65 -136 -65z" />
    <glyph glyph-name="r" unicode="r" horiz-adv-x="309" 
d="M129 430v-44c20 46 70 80 139 80c17 0 31 -14 31 -31s-14 -31 -31 -31c-92 0 -139 -64 -139 -156v-224c0 -18 -14 -32 -32 -32s-32 14 -32 32v406c0 18 14 32 32 32s32 -14 32 -32z" />
    <glyph glyph-name="s" unicode="s" horiz-adv-x="424" 
d="M207 406c-45 0 -89 -14 -89 -60c0 -105 263 -66 263 -226c0 -91 -75 -132 -170 -132c-82 0 -145 39 -171 72c-5 7 -7 12 -7 19c0 16 13 29 29 29c6 0 14 -2 22 -10c31 -31 71 -49 127 -49c57 0 106 19 106 71c0 103 -263 62 -263 226c0 83 68 121 153 121
c68 0 121 -23 152 -64c3 -4 7 -10 7 -19c0 -16 -13 -29 -29 -29c-5 0 -13 1 -21 9c-27 26 -57 42 -109 42z" />
    <glyph glyph-name="t" unicode="t" horiz-adv-x="279" 
d="M90 454v105c0 17 15 32 32 32c18 0 32 -15 32 -32v-105h65c17 0 30 -13 30 -30s-13 -30 -30 -30h-65v-276c0 -43 24 -66 58 -66c17 0 31 -13 31 -30s-14 -30 -31 -30c-79 0 -122 53 -122 126v276h-39c-17 0 -30 13 -30 30s13 30 30 30h39z" />
    <glyph glyph-name="u" unicode="u" horiz-adv-x="482" 
d="M87 462c17 0 32 -14 32 -32v-261c0 -65 21 -121 122 -121s122 56 122 121v261c0 18 15 32 33 32c17 0 31 -14 31 -32v-261c0 -95 -31 -182 -186 -182c-154 0 -186 87 -186 182v261c0 18 14 32 32 32z" />
    <glyph glyph-name="v" unicode="v" horiz-adv-x="438" 
d="M219 -8c-13 0 -24 7 -30 20l-170 404c-1 3 -3 7 -3 14c0 18 14 32 32 32s26 -11 30 -21l141 -345l141 345c4 10 12 21 30 21s32 -14 32 -32c0 -7 -2 -11 -3 -14l-170 -404c-6 -13 -17 -20 -30 -20z" />
    <glyph glyph-name="w" unicode="w" horiz-adv-x="640" 
d="M412 15l-92 317l-92 -317c-4 -14 -17 -23 -31 -23s-25 8 -30 21l-147 403c-2 5 -3 10 -3 14c0 18 14 32 32 32c14 0 25 -8 30 -21l116 -331l95 331c3 10 13 21 30 21s27 -11 30 -21l95 -331l116 331c5 13 16 21 30 21c18 0 32 -14 32 -32c0 -4 -1 -9 -3 -14l-147 -403
c-5 -13 -16 -21 -30 -21s-27 9 -31 23z" />
    <glyph glyph-name="x" unicode="x" horiz-adv-x="412" 
d="M331 5l-125 177l-125 -177c-6 -9 -17 -13 -26 -13c-18 0 -32 14 -32 32c0 7 2 14 6 19l137 189l-133 179c-3 5 -6 10 -6 19c0 18 14 32 32 32c11 0 20 -5 26 -13l121 -166l121 166c6 8 15 13 26 13c18 0 32 -14 32 -32c0 -9 -3 -14 -6 -19l-133 -179l137 -189
c4 -5 6 -12 6 -19c0 -18 -14 -32 -32 -32c-9 0 -20 4 -26 13z" />
    <glyph glyph-name="y" unicode="y" horiz-adv-x="438" 
d="M35 -141c87 0 110 59 151 160l-167 397c-1 3 -3 7 -3 14c0 18 14 32 32 32s26 -11 30 -21l141 -345l141 345c4 10 12 21 30 21s32 -14 32 -32c0 -7 -2 -11 -3 -14l-197 -469c-41 -98 -92 -148 -187 -148c-17 0 -30 13 -30 30s13 30 30 30z" />
    <glyph glyph-name="z" unicode="z" horiz-adv-x="405" 
d="M38 424c0 17 13 30 30 30h274c17 0 30 -13 30 -30c0 -9 -4 -16 -7 -20l-249 -342h231c17 0 31 -14 31 -31s-14 -31 -31 -31h-293c-17 0 -30 13 -30 30c0 9 3 15 7 20l252 344h-215c-17 0 -30 13 -30 30z" />
    <glyph glyph-name="braceleft" unicode="{" horiz-adv-x="338" 
d="M312 -118c0 -15 -13 -28 -28 -28c-101 0 -141 59 -141 117c0 53 12 155 12 210c0 79 -45 92 -100 92h-7c-13 0 -23 10 -23 23s10 23 23 23h7c55 0 100 13 100 93c0 72 -12 109 -12 210c0 57 40 116 141 116c15 0 28 -13 28 -28s-13 -28 -28 -28c-56 0 -74 -31 -74 -73
c0 -48 8 -134 8 -189c0 -70 -41 -124 -121 -124c80 0 121 -53 121 -124c0 -48 -8 -142 -8 -189c0 -42 18 -73 74 -73c15 0 28 -13 28 -28z" />
    <glyph glyph-name="bar" unicode="|" horiz-adv-x="216" 
d="M141 775v-902c0 -18 -15 -33 -33 -33s-33 15 -33 33v902c0 18 15 33 33 33s33 -15 33 -33z" />
    <glyph glyph-name="braceright" unicode="}" horiz-adv-x="338" 
d="M26 -118c0 15 13 28 28 28c56 0 74 31 74 73c0 47 -8 141 -8 189c0 71 41 124 121 124c-80 0 -121 54 -121 124c0 55 8 141 8 189c0 42 -18 73 -74 73c-15 0 -28 13 -28 28s13 28 28 28c101 0 141 -59 141 -116c0 -101 -12 -138 -12 -210c0 -80 45 -93 100 -93h7
c13 0 23 -10 23 -23s-10 -23 -23 -23h-7c-55 0 -100 -13 -100 -92c0 -55 12 -157 12 -210c0 -58 -40 -117 -141 -117c-15 0 -28 13 -28 28z" />
    <glyph glyph-name="asciitilde" unicode="~" horiz-adv-x="477" 
d="M329 293c38 0 49 23 58 41c4 8 11 16 25 16s26 -12 26 -26c0 -5 -1 -9 -2 -12c-12 -36 -45 -72 -107 -72c-81 0 -121 65 -182 65c-38 0 -49 -23 -58 -41c-4 -8 -11 -16 -25 -16s-26 12 -26 26c0 5 1 9 2 12c12 36 45 72 107 72c77 0 122 -65 182 -65z" />
    <glyph glyph-name="exclamdown" unicode="&#xa1;" horiz-adv-x="208" 
d="M104 -221c-24 0 -36 11 -35 35l15 471c0 10 6 18 20 18s20 -8 20 -18l15 -471c1 -24 -11 -35 -35 -35zM104 468c29 0 47 -14 47 -47s-18 -48 -47 -48s-47 15 -47 48s18 47 47 47z" />
    <glyph glyph-name="sterling" unicode="&#xa3;" horiz-adv-x="591" 
d="M524 119c18 0 32 -14 32 -32c0 -7 -2 -12 -4 -16c-32 -63 -79 -86 -145 -86c-64 0 -121 47 -186 47c-55 0 -87 -27 -99 -34c-5 -3 -9 -7 -20 -7c-18 0 -32 14 -32 32c0 11 4 18 14 27c35 28 80 99 80 149c0 31 -8 53 -22 83h-48c-17 0 -30 13 -30 30s13 30 30 30h19
c-23 43 -42 102 -42 155c0 110 85 190 215 190c115 0 189 -51 222 -133c2 -5 3 -10 3 -14c0 -18 -14 -32 -32 -32s-26 11 -31 23c-24 59 -76 95 -162 95s-151 -49 -151 -129c0 -45 19 -99 51 -155h175c17 0 30 -13 30 -30s-13 -30 -30 -30h-149c11 -24 15 -49 15 -83
c0 -49 -28 -95 -59 -123c12 7 34 13 52 13c76 0 125 -43 181 -43c40 0 73 13 94 55c7 14 18 18 29 18z" />
    <glyph glyph-name="fraction" unicode="&#x2044;" horiz-adv-x="313" 
d="M9 29l246 636c2 7 9 16 24 16s27 -12 27 -27c0 -2 -1 -9 -2 -10l-245 -634c-1 -5 -8 -18 -25 -18c-15 0 -27 12 -27 27c0 2 0 6 2 10z" />
    <glyph glyph-name="florin" unicode="&#x192;" horiz-adv-x="410" 
d="M424 640c0 -14 -11 -25 -25 -25c-5 0 -10 2 -17 5c-19 8 -34 13 -59 13c-61 0 -88 -41 -101 -112l-22 -123h97c15 0 27 -12 27 -27s-12 -27 -27 -27h-106l-62 -344c-22 -123 -89 -201 -208 -201c-31 0 -50 5 -65 11c-16 6 -22 16 -22 27c0 15 12 27 27 27c3 0 8 -1 11 -2
c17 -5 25 -9 54 -9c78 0 124 55 139 138l63 353h-65c-15 0 -27 12 -27 27s12 27 27 27h74l21 115c19 107 66 174 165 174c42 0 69 -11 86 -22c13 -9 15 -17 15 -25z" />
    <glyph glyph-name="section" unicode="&#xa7;" horiz-adv-x="504" 
d="M401 206c0 111 -177 125 -259 170c-25 -21 -40 -55 -40 -97c0 -111 177 -124 259 -169c25 21 40 54 40 96zM36 279c0 56 23 100 54 134c-24 29 -39 66 -39 110c0 89 62 164 208 164c89 0 156 -39 197 -90c4 -5 7 -12 7 -19c0 -17 -14 -31 -31 -31c-11 0 -16 3 -24 11
c-31 31 -77 68 -149 68c-103 0 -142 -49 -142 -103c0 -173 350 -88 350 -317c0 -56 -23 -99 -54 -133c24 -29 39 -66 39 -110c0 -89 -62 -164 -208 -164c-89 0 -156 39 -197 90c-4 5 -7 12 -7 19c0 17 14 31 31 31c11 0 16 -3 24 -11c31 -31 77 -68 149 -68
c103 0 142 49 142 103c0 173 -350 87 -350 316z" />
    <glyph glyph-name="quotesingle" unicode="'" horiz-adv-x="168" 
d="M84 681c20 0 29 -11 28 -27l-9 -172c-1 -11 -7 -17 -19 -17s-18 6 -19 17l-9 172c-1 16 8 27 28 27z" />
    <glyph glyph-name="quotedblleft" unicode="&#x201c;" horiz-adv-x="292" 
d="M29 496c0 69 28 133 72 179c3 3 6 6 13 6c8 0 15 -6 15 -15c0 -3 -1 -6 -3 -9c-24 -33 -37 -56 -37 -91c0 -38 36 -45 36 -86c0 -33 -18 -48 -47 -48c-31 0 -49 18 -49 64zM167 496c0 69 28 133 72 179c3 3 6 6 13 6c8 0 15 -6 15 -15c0 -3 -1 -6 -3 -9
c-24 -33 -37 -56 -37 -91c0 -38 36 -45 36 -86c0 -33 -18 -48 -47 -48c-31 0 -49 18 -49 64z" />
    <glyph glyph-name="guillemotleft" unicode="&#xab;" horiz-adv-x="522" 
d="M78 212c0 8 3 13 7 18l163 192c5 6 11 9 18 9c13 0 24 -11 24 -24c0 -6 -2 -11 -7 -17l-153 -178l153 -178c5 -6 7 -11 7 -17c0 -13 -11 -24 -24 -24c-7 0 -13 3 -18 9l-163 192c-4 5 -7 10 -7 18zM232 212c0 8 3 13 7 18l163 192c5 6 11 9 18 9c13 0 24 -11 24 -24
c0 -6 -2 -11 -7 -17l-153 -178l153 -178c5 -6 7 -11 7 -17c0 -13 -11 -24 -24 -24c-7 0 -13 3 -18 9l-163 192c-4 5 -7 10 -7 18z" />
    <glyph glyph-name="guilsinglleft" unicode="&#x2039;" horiz-adv-x="367" 
d="M77 212c0 8 3 13 7 18l163 192c5 6 11 9 18 9c13 0 24 -11 24 -24c0 -6 -2 -11 -7 -17l-153 -178l153 -178c5 -6 7 -11 7 -17c0 -13 -11 -24 -24 -24c-7 0 -13 3 -18 9l-163 192c-4 5 -7 10 -7 18z" />
    <glyph glyph-name="guilsinglright" unicode="&#x203a;" horiz-adv-x="367" 
d="M290 212c0 -8 -3 -13 -7 -18l-163 -192c-5 -6 -11 -9 -18 -9c-13 0 -24 11 -24 24c0 6 2 11 7 17l153 178l-153 178c-5 6 -7 11 -7 17c0 13 11 24 24 24c7 0 13 -3 18 -9l163 -192c4 -5 7 -10 7 -18z" />
    <glyph glyph-name="endash" unicode="&#x2013;" horiz-adv-x="584" 
d="M481 282c0 -15 -12 -27 -27 -27h-324c-15 0 -27 12 -27 27s12 27 27 27h324c15 0 27 -12 27 -27z" />
    <glyph glyph-name="dagger" unicode="&#x2020;" horiz-adv-x="438" 
d="M219 -150c-12 0 -20 6 -20 17l-5 600h-113c-13 0 -20 9 -20 24s7 25 20 25h113l-2 171c0 15 8 25 27 25s27 -10 27 -25l-2 -171h113c13 0 20 -10 20 -25s-7 -24 -20 -24h-113l-5 -600c0 -11 -8 -17 -20 -17z" />
    <glyph glyph-name="daggerdbl" unicode="&#x2021;" horiz-adv-x="438" 
d="M194 467h-113c-13 0 -20 9 -20 24s7 25 20 25h113l-2 171c0 15 8 25 27 25s27 -10 27 -25l-2 -171h113c13 0 20 -10 20 -25s-7 -24 -20 -24h-113l-3 -211l3 -211h113c13 0 20 -9 20 -24s-7 -25 -20 -25h-113l2 -171c0 -15 -8 -25 -27 -25s-27 10 -27 25l2 171h-113
c-13 0 -20 10 -20 25s7 24 20 24h113l3 211z" />
    <glyph glyph-name="paragraph" unicode="&#xb6;" horiz-adv-x="513" 
d="M465 643c0 -17 -13 -30 -30 -30h-27v-314c0 -222 -99 -332 -281 -332c-25 0 -48 1 -65 9c-10 4 -20 14 -20 29c0 17 14 31 31 31c4 0 8 -1 11 -2c14 -4 30 -7 43 -7c78 0 111 71 111 169v152h-33c-89 0 -161 73 -161 163c0 89 72 162 161 162h230c17 0 30 -13 30 -30z
M344 613h-42v-402c0 -63 -18 -125 -65 -172c79 43 107 126 107 260v314z" />
    <glyph glyph-name="bullet" unicode="&#x2022;" horiz-adv-x="418" 
d="M209 149c-83 0 -130 42 -130 130c0 94 47 136 130 136s130 -42 130 -136c0 -88 -47 -130 -130 -130z" />
    <glyph glyph-name="quotesinglbase" unicode="&#x201a;" horiz-adv-x="179" 
d="M129 23c0 -69 -28 -133 -72 -179c-3 -3 -6 -6 -13 -6c-8 0 -15 6 -15 15c0 3 1 6 3 9c24 33 37 56 37 91c0 38 -36 45 -36 86c0 33 18 48 47 48c31 0 49 -18 49 -64z" />
    <glyph glyph-name="quotedblbase" unicode="&#x201e;" horiz-adv-x="313" 
d="M263 23c0 -69 -28 -133 -72 -179c-3 -3 -6 -6 -13 -6c-8 0 -15 6 -15 15c0 3 1 6 3 9c24 33 37 56 37 91c0 38 -36 45 -36 86c0 33 18 48 47 48c31 0 49 -18 49 -64zM125 23c0 -69 -28 -133 -72 -179c-3 -3 -6 -6 -13 -6c-8 0 -15 6 -15 15c0 3 1 6 3 9
c24 33 37 56 37 91c0 38 -36 45 -36 86c0 33 18 48 47 48c31 0 49 -18 49 -64z" />
    <glyph glyph-name="quotedblright" unicode="&#x201d;" horiz-adv-x="292" 
d="M263 617c0 -69 -28 -133 -72 -179c-3 -3 -6 -6 -13 -6c-8 0 -15 6 -15 15c0 3 1 6 3 9c24 33 37 56 37 91c0 38 -36 45 -36 86c0 33 18 48 47 48c31 0 49 -18 49 -64zM125 617c0 -69 -28 -133 -72 -179c-3 -3 -6 -6 -13 -6c-8 0 -15 6 -15 15c0 3 1 6 3 9
c24 33 37 56 37 91c0 38 -36 45 -36 86c0 33 18 48 47 48c31 0 49 -18 49 -64z" />
    <glyph glyph-name="guillemotright" unicode="&#xbb;" horiz-adv-x="522" 
d="M444 212c0 -8 -3 -13 -7 -18l-163 -192c-5 -6 -11 -9 -18 -9c-13 0 -24 11 -24 24c0 6 2 11 7 17l153 178l-153 178c-5 6 -7 11 -7 17c0 13 11 24 24 24c7 0 13 -3 18 -9l163 -192c4 -5 7 -10 7 -18zM290 212c0 -8 -3 -13 -7 -18l-163 -192c-5 -6 -11 -9 -18 -9
c-13 0 -24 11 -24 24c0 6 2 11 7 17l153 178l-153 178c-5 6 -7 11 -7 17c0 13 11 24 24 24c7 0 13 -3 18 -9l163 -192c4 -5 7 -10 7 -18z" />
    <glyph glyph-name="perthousand" unicode="&#x2030;" horiz-adv-x="1077" 
d="M535 681c14 0 25 -11 25 -25c0 -3 -1 -8 -2 -10l-326 -641c-4 -8 -13 -13 -22 -13c-14 0 -25 11 -25 25c0 3 0 6 2 10l326 641c3 6 11 13 22 13zM188 407c77 0 97 54 97 117c0 64 -20 117 -97 117c-76 0 -96 -53 -96 -117c0 -63 20 -117 96 -117zM188 687
c109 0 147 -72 147 -163c0 -90 -38 -163 -147 -163c-108 0 -146 73 -146 163c0 91 38 163 146 163zM558 33c77 0 97 54 97 117c0 64 -20 117 -97 117c-76 0 -96 -53 -96 -117c0 -63 20 -117 96 -117zM558 313c109 0 147 -72 147 -163c0 -90 -38 -163 -147 -163
c-108 0 -146 73 -146 163c0 91 38 163 146 163zM889 33c77 0 97 54 97 117c0 64 -20 117 -97 117c-76 0 -96 -53 -96 -117c0 -63 20 -117 96 -117zM889 313c109 0 147 -72 147 -163c0 -90 -38 -163 -147 -163c-108 0 -146 73 -146 163c0 91 38 163 146 163z" />
    <glyph glyph-name="questiondown" unicode="&#xbf;" horiz-adv-x="461" 
d="M276 302c24 -24 32 -58 32 -85c0 -130 -209 -127 -209 -275c0 -74 51 -110 134 -110c78 0 128 38 128 120c0 18 15 33 33 33s33 -15 33 -33c0 -111 -71 -179 -194 -179c-124 0 -198 61 -198 169c0 176 206 193 206 275c0 19 -6 28 -14 40c-6 9 -8 15 -8 22
c0 21 18 33 33 33c10 0 18 -4 24 -10zM256 468c29 0 47 -14 47 -47s-18 -48 -47 -48s-47 15 -47 48s18 47 47 47z" />
    <glyph glyph-name="grave" unicode="`" horiz-adv-x="370" 
d="M249 520c-12 -10 -21 -7 -30 2l-97 98c-11 11 -12 24 3 38c16 14 30 10 38 0l89 -108c7 -9 9 -20 -3 -30z" />
    <glyph glyph-name="acute" unicode="&#xb4;" horiz-adv-x="370" 
d="M121 520c-12 10 -10 21 -3 30l89 108c8 10 22 14 38 0c15 -14 14 -27 3 -38l-97 -98c-9 -9 -18 -12 -30 -2z" />
    <glyph glyph-name="circumflex" unicode="&#x2c6;" horiz-adv-x="334" 
d="M248 528l-81 68l-81 -68c-2 -2 -7 -6 -16 -6c-13 0 -24 11 -24 24c0 8 3 14 9 19l96 79c4 3 8 6 16 6s12 -3 16 -6l96 -79c6 -5 9 -11 9 -19c0 -13 -11 -24 -24 -24c-9 0 -14 4 -16 6z" />
    <glyph glyph-name="tilde" unicode="&#x2dc;" horiz-adv-x="378" 
d="M130 617c49 0 77 -39 118 -39c21 0 32 9 46 28c3 4 9 11 20 11c13 0 24 -11 24 -24c0 -3 -1 -8 -3 -12c-13 -26 -41 -52 -87 -52c-50 0 -76 39 -118 39c-21 0 -32 -9 -46 -28c-3 -4 -9 -11 -20 -11c-13 0 -24 11 -24 24c0 3 1 8 3 12c13 26 41 52 87 52z" />
    <glyph glyph-name="macron" unicode="&#xaf;" horiz-adv-x="382" 
d="M309 562c0 -14 -11 -25 -25 -25h-186c-14 0 -25 11 -25 25s11 25 25 25h186c14 0 25 -11 25 -25z" />
    <glyph glyph-name="breve" unicode="&#x2d8;" horiz-adv-x="315" 
d="M157 529c-60 0 -113 29 -113 101c0 13 11 24 24 24s24 -11 24 -24c0 -37 22 -55 65 -55s65 18 65 55c0 13 11 24 24 24s24 -11 24 -24c0 -72 -53 -101 -113 -101z" />
    <glyph glyph-name="dotaccent" unicode="&#x2d9;" horiz-adv-x="277" 
d="M138 544c-25 0 -38 12 -38 39c0 28 13 40 38 40s38 -12 38 -40c0 -27 -13 -39 -38 -39z" />
    <glyph glyph-name="dieresis" unicode="&#xa8;" horiz-adv-x="317" 
d="M80 534c-24 0 -36 12 -36 37s12 38 36 38s36 -13 36 -38s-12 -37 -36 -37zM237 534c-24 0 -36 12 -36 37s12 38 36 38s36 -13 36 -38s-12 -37 -36 -37z" />
    <glyph glyph-name="ring" unicode="&#x2da;" horiz-adv-x="267" 
d="M133 502c-71 0 -104 37 -104 98s33 98 104 98s104 -37 104 -98s-33 -98 -104 -98zM133 660c-46 0 -62 -20 -62 -60c0 -39 16 -60 62 -60s62 21 62 60c0 40 -16 60 -62 60z" />
    <glyph glyph-name="cedilla" unicode="&#xb8;" horiz-adv-x="315" 
d="M244 -139c0 -60 -36 -85 -97 -85c-26 0 -51 9 -64 18c-7 5 -8 11 -8 15c0 10 8 19 18 19c4 0 8 -1 12 -3c10 -5 24 -10 42 -10c35 0 53 8 53 46c0 34 -16 46 -44 46c-17 0 -30 -4 -41 -4c-9 0 -19 6 -18 22l3 75h35l-5 -59s18 2 27 2c59 0 87 -27 87 -82z" />
    <glyph glyph-name="ogonek" unicode="&#x2db;" horiz-adv-x="308" 
d="M204 -130c12 0 22 -10 22 -22c0 -10 -6 -17 -13 -20c-17 -8 -34 -11 -55 -11c-54 0 -89 23 -89 75c0 42 32 84 94 108h49c-48 -22 -93 -60 -93 -100c0 -22 17 -37 41 -37c12 0 17 1 26 3c8 2 14 4 18 4z" />
    <glyph glyph-name="caron" unicode="&#x2c7;" horiz-adv-x="330" 
d="M167 553l81 68c2 2 7 6 16 6c13 0 24 -11 24 -24c0 -8 -3 -14 -9 -19l-96 -79c-4 -3 -8 -6 -16 -6s-12 3 -16 6l-96 79c-6 5 -9 11 -9 19c0 13 11 24 24 24c9 0 14 -4 16 -6z" />
    <glyph glyph-name="emdash" unicode="&#x2014;" horiz-adv-x="918" 
d="M815 282c0 -15 -12 -27 -27 -27h-658c-15 0 -27 12 -27 27s12 27 27 27h658c15 0 27 -12 27 -27z" />
    <glyph glyph-name="ordfeminine" unicode="&#xaa;" horiz-adv-x="342" 
d="M321 288c0 -10 -9 -19 -19 -19h-262c-10 0 -19 9 -19 19s9 19 19 19h262c10 0 19 -9 19 -19zM175 648c-33 0 -55 -16 -71 -33c-4 -4 -10 -7 -16 -7c-11 0 -20 9 -20 20c0 5 1 8 5 14c8 11 37 45 102 45c90 0 128 -45 128 -108v-192c0 -12 -10 -22 -22 -22s-22 10 -22 22
v19c-19 -29 -54 -45 -92 -45c-75 0 -121 37 -121 98c0 66 51 97 124 97h89v24c0 42 -28 68 -84 68zM167 398c50 0 92 28 92 84v37h-89c-45 0 -80 -16 -80 -60c0 -45 36 -61 77 -61z" />
    <glyph glyph-name="ordmasculine" unicode="&#xba;" horiz-adv-x="348" 
d="M174 400c62 0 98 39 98 124s-36 124 -98 124s-98 -39 -98 -124s36 -124 98 -124zM329 288c0 -10 -9 -19 -19 -19h-272c-10 0 -19 9 -19 19s9 19 19 19h272c10 0 19 -9 19 -19zM174 687c91 0 143 -53 143 -163s-52 -163 -143 -163s-143 53 -143 163s52 163 143 163z" />
    <glyph glyph-name="germandbls" unicode="&#xdf;" horiz-adv-x="547" 
d="M234 685c84 0 155 -55 155 -131c0 -117 -148 -135 -148 -208c0 -105 263 -66 263 -226c0 -91 -75 -132 -170 -132c-82 0 -145 39 -171 72c-5 7 -7 12 -7 19c0 16 13 29 29 29c6 0 14 -2 22 -10c31 -31 71 -49 127 -49c57 0 106 19 106 71c0 103 -263 62 -263 226
c0 107 148 114 148 208c0 38 -36 71 -91 71c-78 0 -105 -47 -105 -112v-489c0 -18 -14 -32 -32 -32s-32 14 -32 32v489c0 90 47 172 169 172z" />
    <glyph glyph-name="logicalnot" unicode="&#xac;" horiz-adv-x="563" 
d="M527 279v-257c0 -17 -13 -30 -30 -30s-30 13 -30 30v233h-404c-15 0 -27 12 -27 27s12 27 27 27h434c17 0 30 -13 30 -30z" />
    <glyph glyph-name="mu" unicode="&#xb5;" horiz-adv-x="482" 
d="M119 430v-261c0 -65 21 -121 122 -121s122 56 122 121v261c0 18 15 32 33 32c17 0 31 -14 31 -32v-261c0 -95 -31 -182 -186 -182c-66 0 -98 21 -122 46v-206c0 -18 -14 -32 -32 -32s-32 14 -32 32v603c0 18 14 32 32 32c17 0 32 -14 32 -32z" />
    <glyph glyph-name="trademark" unicode="&#x2122;" horiz-adv-x="404" 
d="M43 652h123c10 0 17 -8 17 -17s-7 -17 -17 -17h-42v-132c0 -10 -9 -19 -19 -19c-11 0 -19 9 -19 19v132h-43c-10 0 -17 8 -17 17s7 17 17 17zM294 507c-7 0 -12 3 -15 8l-32 55v-85c0 -10 -8 -18 -18 -18s-18 8 -18 18v152c0 10 8 18 18 18s15 -7 17 -11l48 -86l48 86
c2 4 7 11 17 11s18 -8 18 -18v-152c0 -10 -8 -18 -18 -18s-18 8 -18 18v85l-32 -55c-3 -5 -9 -8 -15 -8z" />
    <glyph glyph-name="Thorn" unicode="&#xde;" horiz-adv-x="544" 
d="M148 154v-128c0 -19 -15 -34 -34 -34s-34 15 -34 34v621c0 18 15 34 34 34s34 -16 34 -34v-102h165c107 0 191 -62 191 -195c0 -131 -82 -196 -191 -196h-165zM148 483v-267h155c81 0 132 47 132 134c0 88 -52 133 -132 133h-155z" />
    <glyph glyph-name="divide" unicode="&#xf7;" horiz-adv-x="454" 
d="M194 97c0 18 14 33 33 33s34 -15 34 -33c0 -19 -15 -34 -34 -34s-33 15 -33 34zM194 340c0 19 14 34 33 34s34 -15 34 -34s-15 -33 -34 -33s-33 14 -33 33zM454 219c0 -15 -12 -27 -27 -27h-400c-15 0 -27 12 -27 27s12 27 27 27h400c15 0 27 -12 27 -27z" />
    <glyph glyph-name="brokenbar" unicode="&#xa6;" horiz-adv-x="216" 
d="M141 775v-386c0 -18 -15 -33 -33 -33s-33 15 -33 33v386c0 18 15 33 33 33s33 -15 33 -33zM141 260v-387c0 -18 -15 -33 -33 -33s-33 15 -33 33v387c0 18 15 33 33 33s33 -15 33 -33z" />
    <glyph glyph-name="degree" unicode="&#xb0;" horiz-adv-x="358" 
d="M315 550c0 -75 -61 -136 -137 -136c-74 0 -136 61 -136 136s62 137 136 137c76 0 137 -62 137 -137zM277 550c0 54 -42 99 -99 99c-55 0 -98 -45 -98 -99s43 -98 98 -98c57 0 99 44 99 98z" />
    <glyph glyph-name="thorn" unicode="&#xfe;" horiz-adv-x="509" 
d="M129 680v-282c19 34 69 70 136 70c130 0 209 -76 209 -240s-79 -241 -209 -241c-67 0 -115 36 -136 70v-226c0 -17 -15 -32 -32 -32s-32 15 -32 32v849c0 18 14 32 32 32s32 -14 32 -32zM127 228c0 -129 60 -183 138 -183c92 0 144 58 144 183s-54 182 -146 182
c-74 0 -136 -52 -136 -182z" />
    <glyph glyph-name="registered" unicode="&#xae;" horiz-adv-x="377" 
d="M187 687c94 0 149 -48 149 -152s-55 -153 -149 -153c-91 0 -147 49 -147 153s56 152 147 152zM188 406c78 0 120 38 120 129s-42 128 -120 128c-77 0 -120 -37 -120 -128s43 -129 120 -129zM179 518h-23v-49c0 -7 -6 -13 -13 -13s-13 6 -13 13v131c0 7 6 13 13 13h55
c31 0 50 -22 50 -47s-19 -48 -41 -48l33 -41c3 -4 3 -6 3 -8c0 -7 -5 -13 -12 -13c-4 0 -8 2 -11 6zM156 540h42c16 0 24 11 24 26c0 13 -8 25 -24 25h-42v-51z" />
    <glyph glyph-name="minus" unicode="&#x2212;" horiz-adv-x="454" 
d="M454 218c0 -15 -12 -27 -27 -27h-400c-15 0 -27 12 -27 27s12 27 27 27h400c15 0 27 -12 27 -27z" />
    <glyph glyph-name="eth" unicode="&#xf0;" horiz-adv-x="492" 
d="M245 468c45 0 87 -12 116 -31c-11 43 -37 92 -66 122l-56 -38c-7 -5 -17 -5 -17 -5c-17 0 -30 13 -30 30c0 12 5 20 13 25l49 32c-23 21 -50 37 -79 54c-11 6 -16 17 -16 27c0 15 13 28 29 28c6 0 12 -2 16 -4c34 -17 72 -46 101 -72l44 28c6 4 13 5 17 5
c17 0 30 -13 30 -30c0 -8 -3 -18 -13 -25l-37 -24c67 -85 109 -200 109 -362c0 -164 -80 -241 -210 -241c-129 0 -210 77 -210 241s81 240 210 240zM245 45c92 0 145 55 145 183c0 126 -53 182 -145 182s-145 -56 -145 -182c0 -128 53 -183 145 -183z" />
    <glyph glyph-name="multiply" unicode="&#xd7;" horiz-adv-x="354" 
d="M177 257l128 125c7 7 13 10 21 10c15 0 28 -13 28 -28c0 -7 -3 -14 -8 -19l-131 -127l131 -127c5 -5 8 -12 8 -19c0 -15 -13 -28 -28 -28c-8 0 -14 3 -21 10l-128 125l-128 -125c-7 -7 -13 -10 -21 -10c-15 0 -28 13 -28 28c0 9 3 14 8 19l131 127l-131 127
c-5 5 -8 12 -8 19c0 15 13 28 28 28c8 0 14 -3 21 -10z" />
    <glyph glyph-name="copyright" unicode="&#xa9;" horiz-adv-x="801" 
d="M397 155c-101 0 -157 54 -157 182c0 129 56 183 157 183c64 0 110 -33 124 -59c2 -4 3 -7 3 -12c0 -14 -11 -25 -25 -25c-8 0 -14 3 -20 9c-23 23 -46 37 -82 37c-67 0 -102 -34 -102 -133c0 -92 35 -132 102 -132c37 0 58 6 82 30c7 7 12 10 20 10c14 0 25 -11 25 -25
c0 -6 -2 -11 -6 -16c-24 -30 -59 -49 -121 -49zM400 687c223 0 348 -114 348 -351c0 -236 -125 -350 -348 -350c-219 0 -347 114 -347 350c0 237 128 351 347 351zM400 38c191 0 293 93 293 298s-102 299 -293 299s-289 -94 -289 -299s98 -298 289 -298z" />
    <glyph glyph-name="notequal" unicode="&#x2260;" horiz-adv-x="454" 
d="M454 141c0 -15 -12 -27 -27 -27h-252l-29 -43c-4 -6 -9 -8 -14 -8c-9 0 -16 7 -16 16c0 4 1 6 2 8l18 27h-109c-15 0 -27 12 -27 27s12 27 27 27h146l68 99h-214c-15 0 -27 12 -27 27s12 27 27 27h251l31 44c4 6 9 8 14 8c9 0 16 -7 16 -16c0 -4 -1 -6 -2 -8l-20 -28h110
c15 0 27 -12 27 -27s-12 -27 -27 -27h-147l-68 -99h215c15 0 27 -12 27 -27z" />
    <glyph glyph-name="radical" unicode="&#x221a;" horiz-adv-x="539" 
d="M492 675l-221 -828c-3 -11 -14 -18 -27 -18c-10 0 -20 4 -26 17l-171 388c-2 4 -2 8 -2 10c0 16 13 29 28 29c10 0 21 -5 26 -16l140 -331l198 765c2 9 12 21 27 21c16 0 29 -13 29 -29c0 -3 0 -4 -1 -8z" />
    <glyph glyph-name="nbspace" unicode="&#xa0;" horiz-adv-x="283" 
 />
    <glyph glyph-name="quotedbl" unicode="&#x22;" horiz-adv-x="280" 
d="M84 681c20 0 29 -11 28 -27l-9 -172c-1 -11 -7 -17 -19 -17s-18 6 -19 17l-9 172c-1 16 8 27 28 27zM196 681c20 0 29 -11 28 -27l-9 -172c-1 -11 -7 -17 -19 -17s-18 6 -19 17l-9 172c-1 16 8 27 28 27z" />
    <glyph glyph-name="exclam" unicode="!" horiz-adv-x="208" 
d="M104 681c24 0 36 -11 35 -35l-15 -471c0 -10 -6 -18 -20 -18s-20 8 -20 18l-15 471c-1 24 11 35 35 35zM104 -8c-29 0 -47 14 -47 47s18 48 47 48s47 -15 47 -48s-18 -47 -47 -47z" />
    <glyph glyph-name="hungarumlaut" unicode="&#x2dd;" horiz-adv-x="489" 
d="M126 520c-12 10 -10 21 -3 30l89 108c8 10 22 14 38 0c15 -14 14 -27 3 -38l-97 -98c-9 -9 -18 -12 -30 -2zM235 520c-12 10 -10 21 -3 30l89 108c8 10 22 14 38 0c15 -14 14 -27 3 -38l-97 -98c-9 -9 -18 -12 -30 -2z" />
    <glyph glyph-name="zero.tab" horiz-adv-x="592" 
d="M296 46c124 0 181 84 181 291s-57 290 -181 290s-181 -83 -181 -290s57 -291 181 -291zM296 687c168 0 247 -110 247 -350s-79 -351 -247 -351s-247 111 -247 351s79 350 247 350z" />
    <glyph glyph-name="one.tab" horiz-adv-x="592" 
d="M306 589l-160 -124c-6 -4 -12 -6 -19 -6c-17 0 -32 15 -32 32c0 10 5 21 14 27l210 156c7 5 13 7 20 7c18 0 33 -15 33 -33v-623c0 -18 -15 -33 -33 -33s-33 15 -33 33v564z" />
    <glyph glyph-name="two.tab" horiz-adv-x="592" 
d="M97 557c27 81 97 130 200 130c134 0 214 -78 214 -195c0 -240 -371 -310 -371 -430h349c17 0 31 -14 31 -31s-14 -31 -31 -31h-386c-17 0 -31 14 -31 31c0 220 372 244 372 461c0 77 -52 135 -147 135c-83 0 -119 -42 -142 -92c-6 -13 -16 -20 -29 -20
c-17 0 -31 14 -31 31c0 1 0 5 2 11z" />
    <glyph glyph-name="three.tab" horiz-adv-x="592" 
d="M299 408h10c163 0 212 -104 212 -216c0 -131 -79 -206 -231 -206c-107 0 -176 48 -215 113c-3 5 -5 10 -5 17c0 17 13 30 30 30c9 0 19 -3 27 -16c31 -51 82 -84 163 -84c111 0 165 53 165 146c0 91 -37 156 -151 156h-70c-17 0 -30 13 -30 30c0 9 3 15 8 21l184 214
h-258c-17 0 -30 13 -30 30s13 30 30 30h326c17 0 30 -13 30 -30c0 -7 -2 -14 -8 -21z" />
    <glyph glyph-name="four.tab" horiz-adv-x="592" 
d="M446 217h57c18 0 32 -13 32 -30c0 -18 -14 -32 -32 -32h-57v-130c0 -18 -15 -33 -33 -33s-33 15 -33 33v130h-292c-17 0 -31 14 -31 31c0 7 2 13 7 20l322 460c6 8 14 14 27 14c18 0 33 -15 33 -33v-430zM146 217h234v336z" />
    <glyph glyph-name="five.tab" horiz-adv-x="592" 
d="M297 446c137 0 232 -71 232 -229c0 -160 -95 -231 -232 -231c-110 0 -190 50 -231 135c-3 6 -4 11 -4 15c0 17 14 31 31 31c9 0 19 -2 28 -17c43 -72 93 -102 176 -102c97 0 166 49 166 169c0 117 -69 168 -166 168c-72 0 -115 -17 -160 -61c-6 -6 -13 -13 -27 -13
c-17 0 -31 14 -31 31c0 5 1 8 2 13l58 294c2 11 13 24 30 24h304c17 0 31 -14 31 -31s-14 -31 -31 -31h-282l-40 -205c34 24 80 40 146 40z" />
    <glyph glyph-name="six.tab" horiz-adv-x="592" 
d="M304 433c131 0 227 -70 227 -222c0 -161 -96 -225 -233 -225c-167 0 -237 139 -237 335c0 259 93 366 251 366c79 0 137 -29 161 -55c7 -7 10 -15 10 -23c0 -17 -14 -31 -31 -31c-7 0 -13 2 -21 8c-32 24 -71 41 -119 41c-141 0 -185 -123 -185 -282c27 40 89 88 177 88z
M298 46c97 0 167 42 167 165c0 115 -71 162 -161 162c-84 0 -138 -48 -172 -109c0 -126 57 -218 166 -218z" />
    <glyph glyph-name="seven.tab" horiz-adv-x="592" 
d="M164 24c0 331 282 434 282 587h-337c-17 0 -31 14 -31 31s14 31 31 31h373c17 0 31 -14 31 -31c0 -227 -285 -291 -285 -618c0 -18 -14 -32 -32 -32s-32 14 -32 32z" />
    <glyph glyph-name="eight.tab" horiz-adv-x="592" 
d="M296 -14c-139 0 -234 68 -234 204c0 86 44 150 118 178c-45 24 -88 66 -88 145c0 120 83 174 204 174s204 -54 204 -174c0 -79 -43 -121 -88 -145c74 -28 118 -92 118 -178c0 -136 -95 -204 -234 -204zM296 627c-86 0 -138 -37 -138 -114c0 -79 54 -118 138 -118
s138 39 138 118c0 77 -52 114 -138 114zM296 335c-105 0 -168 -46 -168 -145c0 -100 69 -144 168 -144s168 44 168 144c0 99 -63 145 -168 145z" />
    <glyph glyph-name="nine.tab" horiz-adv-x="592" 
d="M288 240c-131 0 -227 70 -227 222c0 161 96 225 233 225c167 0 237 -139 237 -335c0 -259 -93 -366 -251 -366c-79 0 -137 29 -161 55c-7 7 -10 15 -10 23c0 17 14 31 31 31c7 0 13 -2 21 -8c32 -24 71 -41 119 -41c141 0 185 123 185 282c-27 -40 -89 -88 -177 -88z
M294 627c-97 0 -167 -42 -167 -165c0 -115 71 -162 161 -162c84 0 138 48 172 109c0 126 -57 218 -166 218z" />
    <glyph glyph-name="periodcentered" unicode="&#xb7;" horiz-adv-x="164" 
d="M81 253c-29 0 -47 14 -47 47s18 48 47 48s47 -15 47 -48s-18 -47 -47 -47z" />
    <glyph glyph-name="onesuperior" unicode="&#xb9;" horiz-adv-x="196" 
d="M99 656l-30 -21c-5 -4 -10 -7 -18 -7c-13 0 -25 12 -25 25c0 8 3 15 12 21l72 48c4 3 9 5 15 5c14 0 26 -12 26 -26v-253c0 -14 -12 -26 -26 -26s-26 12 -26 26v208z" />
    <glyph glyph-name="twosuperior" unicode="&#xb2;" horiz-adv-x="266" 
d="M35 677c14 34 50 53 97 53c65 0 108 -32 108 -89c0 -96 -161 -116 -161 -168h135c13 0 24 -11 24 -24s-11 -24 -24 -24h-167c-13 0 -24 11 -24 24c0 117 165 117 165 192c0 23 -18 42 -56 42c-32 0 -45 -12 -57 -29c-4 -5 -9 -10 -19 -10c-13 0 -23 10 -23 23
c0 0 0 5 2 10z" />
    <glyph glyph-name="threesuperior" unicode="&#xb3;" horiz-adv-x="259" 
d="M212 681l-68 -70c67 0 90 -48 90 -92c0 -59 -36 -100 -116 -100c-51 0 -85 28 -101 58c-3 6 -4 10 -4 14c0 13 10 23 23 23c10 0 16 -5 21 -13c13 -22 30 -34 61 -34c40 0 63 17 63 52c0 30 -18 48 -60 48h-22c-13 0 -24 11 -24 24c0 6 2 11 6 16l62 67h-93
c-14 0 -25 11 -25 25s11 25 25 25h144c14 0 25 -11 25 -25c0 -8 -2 -14 -7 -18z" />
    <glyph glyph-name="onehalf" unicode="&#xbd;" horiz-adv-x="527" 
d="M101 613l-30 -21c-5 -4 -10 -7 -18 -7c-13 0 -25 12 -25 25c0 8 3 15 12 21l72 48c4 3 9 5 15 5c14 0 26 -12 26 -26v-253c0 -14 -12 -26 -26 -26s-26 12 -26 26v208zM296 252c14 34 50 53 97 53c65 0 108 -32 108 -89c0 -96 -161 -116 -161 -168h135c13 0 24 -11 24 -24
s-11 -24 -24 -24h-167c-13 0 -24 11 -24 24c0 117 165 117 165 192c0 23 -18 42 -56 42c-32 0 -45 -12 -57 -29c-4 -5 -9 -10 -19 -10c-13 0 -23 10 -23 23c0 0 0 5 2 10zM89 29l246 636c3 7 9 16 24 16s27 -12 27 -27c0 -2 -1 -9 -2 -10l-245 -634c-2 -5 -8 -18 -25 -18
c-15 0 -27 12 -27 27c0 2 0 6 2 10z" />
    <glyph glyph-name="threequarters" unicode="&#xbe;" horiz-adv-x="579" 
d="M480 107h16c13 0 24 -11 24 -24s-11 -24 -24 -24h-16v-41c0 -14 -12 -26 -26 -26s-26 12 -26 26v41h-111c-13 0 -24 11 -24 24c0 6 2 11 6 16l134 187c5 6 11 11 21 11c14 0 26 -12 26 -26v-164zM361 107h67v96zM222 638l-68 -70c67 0 90 -48 90 -92
c0 -59 -36 -100 -116 -100c-51 0 -85 28 -101 58c-3 6 -4 10 -4 14c0 13 10 23 23 23c10 0 16 -5 21 -13c13 -22 30 -34 61 -34c40 0 63 17 63 52c0 30 -18 48 -60 48h-22c-13 0 -24 11 -24 24c0 6 2 11 6 16l62 67h-93c-14 0 -25 11 -25 25s11 25 25 25h144
c14 0 25 -11 25 -25c0 -8 -2 -14 -7 -18zM145 29l246 636c2 7 9 16 24 16s27 -12 27 -27c0 -2 -1 -9 -2 -10l-245 -634c-1 -5 -8 -18 -25 -18c-15 0 -27 12 -27 27c0 2 0 6 2 10z" />
    <glyph glyph-name="ornament.A" horiz-adv-x="732" 
d="M578 687c67 0 121 -49 121 -116c0 -82 -69 -125 -154 -125c-19 0 -42 1 -68 6c-13 -20 -37 -39 -56 -47c78 0 137 -45 137 -115c0 -189 -282 -74 -282 -200c0 -29 20 -46 49 -46c55 0 25 66 80 66c34 0 44 -20 44 -45c0 -59 -71 -73 -119 -73c-179 0 -253 183 -253 301
c0 96 52 195 166 195c43 0 81 -19 104 -44c-97 -63 -156 -119 -156 -240c0 -13 0 -27 2 -40c1 -9 5 -16 12 -16c8 0 9 6 9 17s-1 26 -1 39c0 99 55 156 138 207c29 18 51 35 67 55c-59 15 -114 54 -152 81c-43 30 -90 88 -137 88c-24 0 -40 -17 -40 -41s18 -39 40 -39
c17 0 25 12 33 20c5 4 10 6 17 6c14 0 26 -12 26 -26c0 -32 -49 -52 -80 -52c-50 0 -92 41 -92 91c0 51 42 93 92 93c51 0 89 -30 122 -58c22 31 60 58 113 58c77 0 142 -64 142 -142c0 -19 -4 -34 -7 -43c22 -4 35 -4 50 -4c43 0 98 17 98 73c0 33 -26 64 -65 64
c-23 0 -28 -12 -44 -12c-15 0 -26 12 -26 26c0 8 4 17 11 22c16 12 34 16 59 16zM440 510c3 8 6 21 6 35c0 42 -31 90 -86 90c-31 0 -56 -14 -71 -42c39 -31 96 -65 151 -83z" />
    <glyph glyph-name="zero.onum" horiz-adv-x="610" 
d="M305 47c116 0 186 68 186 223s-70 222 -186 222s-186 -67 -186 -222s70 -223 186 -223zM305 552c154 0 251 -92 251 -282s-97 -283 -251 -283s-251 93 -251 283s97 282 251 282z" />
    <glyph glyph-name="one.onum" horiz-adv-x="364" 
d="M200 458l-114 -79c-5 -3 -10 -5 -17 -5c-17 0 -30 13 -30 30c0 8 3 18 13 25l158 109c6 4 12 8 22 8c18 0 32 -14 32 -32v-490c0 -18 -14 -32 -32 -32s-32 14 -32 32v434z" />
    <glyph glyph-name="two.onum" horiz-adv-x="508" 
d="M68 428c29 78 94 124 194 124c136 0 202 -71 202 -164c0 -188 -350 -215 -350 -328h331c17 0 30 -13 30 -30s-13 -30 -30 -30h-368c-17 0 -30 13 -30 30c0 214 353 203 353 358c0 59 -48 104 -138 104c-77 0 -113 -34 -138 -87c-6 -13 -17 -18 -28 -18
c-17 0 -30 13 -30 30c0 2 0 6 2 11z" />
    <glyph glyph-name="three.onum" horiz-adv-x="532" 
d="M261 273h10c163 0 212 -104 212 -216c0 -131 -79 -206 -231 -206c-107 0 -176 48 -215 113c-3 5 -5 10 -5 17c0 17 13 30 30 30c9 0 19 -3 27 -16c31 -51 82 -84 163 -84c111 0 165 53 165 146c0 91 -37 156 -151 156h-70c-17 0 -30 13 -30 30c0 9 3 15 8 21l184 214
h-258c-17 0 -30 13 -30 30s13 30 30 30h326c17 0 30 -13 30 -30c0 -7 -2 -14 -8 -21z" />
    <glyph glyph-name="four.onum" horiz-adv-x="532" 
d="M412 87h57c17 0 30 -13 30 -30s-13 -30 -30 -30h-57v-137c0 -18 -14 -33 -32 -33s-33 15 -33 33v137h-293c-17 0 -30 13 -30 30c0 7 2 13 7 20l322 455c6 8 14 14 27 14c18 0 32 -15 32 -33v-426zM110 87h237v335z" />
    <glyph glyph-name="five.onum" horiz-adv-x="558" 
d="M282 311c137 0 232 -71 232 -229c0 -160 -95 -231 -232 -231c-110 0 -190 50 -231 135c-3 6 -4 11 -4 15c0 17 14 31 31 31c9 0 19 -2 28 -17c43 -72 93 -102 176 -102c97 0 166 49 166 169c0 117 -69 168 -166 168c-72 0 -115 -17 -160 -61c-6 -6 -13 -13 -27 -13
c-17 0 -31 14 -31 31c0 5 1 8 2 13l58 294c2 11 13 24 30 24h304c17 0 31 -14 31 -31s-14 -31 -31 -31h-282l-40 -205c34 24 80 40 146 40z" />
    <glyph glyph-name="six.onum" horiz-adv-x="566" 
d="M291 429c131 0 227 -68 227 -220c0 -160 -96 -223 -233 -223c-167 0 -237 135 -237 331c0 259 93 364 251 364c79 0 137 -29 161 -55c7 -7 10 -15 10 -23c0 -17 -14 -31 -31 -31c-7 0 -13 2 -21 8c-32 24 -71 41 -119 41c-141 0 -185 -121 -185 -280c27 40 89 88 177 88z
M285 46c97 0 167 41 167 163c0 115 -71 160 -161 160c-84 0 -138 -48 -172 -109c0 -126 57 -214 166 -214z" />
    <glyph glyph-name="seven.onum" horiz-adv-x="483" 
d="M111 -111c0 331 282 434 282 587h-337c-17 0 -31 14 -31 31s14 31 31 31h373c17 0 31 -14 31 -31c0 -227 -285 -291 -285 -618c0 -18 -14 -32 -32 -32s-32 14 -32 32z" />
    <glyph glyph-name="eight.onum" horiz-adv-x="550" 
d="M275 -14c-139 0 -234 66 -234 202c0 86 44 149 118 177c-45 24 -88 66 -88 143c0 118 83 172 204 172s204 -54 204 -172c0 -77 -43 -119 -88 -143c74 -28 118 -91 118 -177c0 -136 -95 -202 -234 -202zM275 620c-86 0 -138 -35 -138 -112c0 -79 54 -116 138 -116
s138 37 138 116c0 77 -52 112 -138 112zM275 332c-105 0 -168 -45 -168 -144c0 -100 69 -142 168 -142s168 42 168 142c0 99 -63 144 -168 144z" />
    <glyph glyph-name="nine.onum" horiz-adv-x="566" 
d="M275 109c-131 0 -227 68 -227 220c0 160 96 223 233 223c167 0 237 -135 237 -331c0 -259 -93 -364 -251 -364c-79 0 -137 29 -161 55c-7 7 -10 15 -10 23c0 17 14 31 31 31c7 0 13 -2 21 -8c32 -24 71 -41 119 -41c141 0 185 121 185 280c-27 -40 -89 -88 -177 -88z
M281 492c-97 0 -167 -41 -167 -163c0 -115 71 -160 161 -160c84 0 138 48 172 109c0 126 -57 214 -166 214z" />
    <glyph glyph-name="hyphen.case" horiz-adv-x="364" 
d="M309 337c0 -15 -12 -27 -27 -27h-200c-15 0 -27 12 -27 27s12 27 27 27h200c15 0 27 -12 27 -27z" />
    <glyph glyph-name="parenleft.case" horiz-adv-x="294" 
d="M60 337c0 278 43 383 170 439c5 2 8 3 13 3c15 0 28 -13 28 -28c0 -9 -5 -20 -18 -26c-124 -60 -129 -176 -129 -388s5 -328 129 -388c13 -6 18 -17 18 -26c0 -15 -13 -28 -28 -28c-5 0 -8 1 -13 3c-127 56 -170 161 -170 439z" />
    <glyph glyph-name="parenright.case" horiz-adv-x="294" 
d="M234 337c0 -278 -43 -383 -170 -439c-5 -2 -8 -3 -13 -3c-15 0 -28 13 -28 28c0 9 5 20 18 26c124 60 129 176 129 388s-5 328 -129 388c-13 6 -18 17 -18 26c0 15 13 28 28 28c5 0 8 -1 13 -3c127 -56 170 -161 170 -439z" />
    <glyph glyph-name="bracketleft.case" horiz-adv-x="259" 
d="M239 -79c0 -14 -12 -26 -26 -26h-101c-18 0 -32 14 -32 32v820c0 18 14 32 32 32h101c14 0 26 -12 26 -26s-12 -26 -26 -26h-69v-780h69c14 0 26 -12 26 -26z" />
    <glyph glyph-name="bracketright.case" horiz-adv-x="259" 
d="M20 -79c0 14 12 26 26 26h69v780h-69c-14 0 -26 12 -26 26s12 26 26 26h101c18 0 32 -14 32 -32v-820c0 -18 -14 -32 -32 -32h-101c-14 0 -26 12 -26 26z" />
    <glyph glyph-name="braceleft.case" horiz-adv-x="338" 
d="M312 -77c0 -15 -13 -28 -28 -28c-101 0 -141 59 -141 117c0 53 12 155 12 210c0 79 -45 92 -100 92h-7c-13 0 -23 10 -23 23s10 23 23 23h7c55 0 100 13 100 93c0 72 -12 109 -12 210c0 57 40 116 141 116c15 0 28 -13 28 -28s-13 -28 -28 -28c-56 0 -74 -31 -74 -73
c0 -48 8 -134 8 -189c0 -70 -41 -124 -121 -124c80 0 121 -53 121 -124c0 -48 -8 -142 -8 -189c0 -42 18 -73 74 -73c15 0 28 -13 28 -28z" />
    <glyph glyph-name="braceright.case" horiz-adv-x="338" 
d="M26 -77c0 15 13 28 28 28c56 0 74 31 74 73c0 47 -8 141 -8 189c0 71 41 124 121 124c-80 0 -121 54 -121 124c0 55 8 141 8 189c0 42 -18 73 -74 73c-15 0 -28 13 -28 28s13 28 28 28c101 0 141 -59 141 -116c0 -101 -12 -138 -12 -210c0 -80 45 -93 100 -93h7
c13 0 23 -10 23 -23s-10 -23 -23 -23h-7c-55 0 -100 -13 -100 -92c0 -55 12 -157 12 -210c0 -58 -40 -117 -141 -117c-15 0 -28 13 -28 28z" />
    <glyph glyph-name="guillemotleft.case" horiz-adv-x="522" 
d="M78 337c0 8 3 13 7 18l163 192c5 6 11 9 18 9c13 0 24 -11 24 -24c0 -6 -2 -11 -7 -17l-153 -178l153 -178c5 -6 7 -11 7 -17c0 -13 -11 -24 -24 -24c-7 0 -13 3 -18 9l-163 192c-4 5 -7 10 -7 18zM232 337c0 8 3 13 7 18l163 192c5 6 11 9 18 9c13 0 24 -11 24 -24
c0 -6 -2 -11 -7 -17l-153 -178l153 -178c5 -6 7 -11 7 -17c0 -13 -11 -24 -24 -24c-7 0 -13 3 -18 9l-163 192c-4 5 -7 10 -7 18z" />
    <glyph glyph-name="guillemotright.case" horiz-adv-x="522" 
d="M444 337c0 -8 -3 -13 -7 -18l-163 -192c-5 -6 -11 -9 -18 -9c-13 0 -24 11 -24 24c0 6 2 11 7 17l153 178l-153 178c-5 6 -7 11 -7 17c0 13 11 24 24 24c7 0 13 -3 18 -9l163 -192c4 -5 7 -10 7 -18zM290 337c0 -8 -3 -13 -7 -18l-163 -192c-5 -6 -11 -9 -18 -9
c-13 0 -24 11 -24 24c0 6 2 11 7 17l153 178l-153 178c-5 6 -7 11 -7 17c0 13 11 24 24 24c7 0 13 -3 18 -9l163 -192c4 -5 7 -10 7 -18z" />
    <glyph glyph-name="guilsinglleft.case" horiz-adv-x="367" 
d="M77 337c0 8 3 13 7 18l163 192c5 6 11 9 18 9c13 0 24 -11 24 -24c0 -6 -2 -11 -7 -17l-153 -178l153 -178c5 -6 7 -11 7 -17c0 -13 -11 -24 -24 -24c-7 0 -13 3 -18 9l-163 192c-4 5 -7 10 -7 18z" />
    <glyph glyph-name="guilsinglright.case" horiz-adv-x="367" 
d="M290 337c0 -8 -3 -13 -7 -18l-163 -192c-5 -6 -11 -9 -18 -9c-13 0 -24 11 -24 24c0 6 2 11 7 17l153 178l-153 178c-5 6 -7 11 -7 17c0 13 11 24 24 24c7 0 13 -3 18 -9l163 -192c4 -5 7 -10 7 -18z" />
    <glyph glyph-name="endash.case" horiz-adv-x="584" 
d="M481 337c0 -15 -12 -27 -27 -27h-324c-15 0 -27 12 -27 27s12 27 27 27h324c15 0 27 -12 27 -27z" />
    <glyph glyph-name="emdash.case" horiz-adv-x="918" 
d="M815 337c0 -15 -12 -27 -27 -27h-658c-15 0 -27 12 -27 27s12 27 27 27h658c15 0 27 -12 27 -27z" />
    <glyph glyph-name="periodcentered.case" horiz-adv-x="164" 
d="M82 280c-29 0 -47 14 -47 47s18 48 47 48s47 -15 47 -48s-18 -47 -47 -47z" />
    <glyph glyph-name="questiondown.case" horiz-adv-x="461" 
d="M276 515c24 -24 32 -58 32 -85c0 -130 -209 -127 -209 -275c0 -74 51 -110 134 -110c78 0 128 38 128 120c0 18 15 33 33 33s33 -15 33 -33c0 -111 -71 -179 -194 -179c-124 0 -198 61 -198 169c0 176 206 193 206 275c0 19 -6 28 -14 40c-6 9 -8 15 -8 22
c0 21 18 33 33 33c10 0 18 -4 24 -10zM256 681c29 0 47 -14 47 -47s-18 -48 -47 -48s-47 15 -47 48s18 47 47 47z" />
    <glyph glyph-name="exclamdown.case" horiz-adv-x="208" 
d="M104 -8c-24 0 -36 11 -35 35l15 471c0 10 6 18 20 18s20 -8 20 -18l15 -471c1 -24 -11 -35 -35 -35zM104 681c29 0 47 -14 47 -47s-18 -48 -47 -48s-47 15 -47 48s18 47 47 47z" />
    <glyph glyph-name="bullet.case" horiz-adv-x="418" 
d="M209 207c-83 0 -130 42 -130 130c0 94 47 136 130 136s130 -42 130 -136c0 -88 -47 -130 -130 -130z" />
    <glyph glyph-name="dollar.onum" horiz-adv-x="473" 
d="M363 463c-25 34 -61 62 -130 62c-84 0 -118 -39 -118 -84c0 -138 316 -82 316 -289c0 -93 -66 -157 -172 -163v-77c0 -14 -12 -26 -26 -26s-26 12 -26 26v76c-85 8 -143 53 -175 102c-3 5 -6 11 -6 18c0 17 14 31 31 31c11 0 20 -5 27 -16c27 -42 73 -75 143 -75
c90 0 140 33 140 104c0 151 -317 91 -317 289c0 97 84 136 157 143v61c0 14 12 26 26 26s26 -12 26 -26v-61c46 -5 117 -27 156 -87c3 -5 5 -10 5 -17c0 -17 -14 -31 -31 -31c-13 0 -21 7 -26 14z" />
    <glyph glyph-name="cent.onum" horiz-adv-x="502" 
d="M35 268c0 181 84 262 208 275v69c0 14 12 26 26 26s26 -12 26 -26v-68c99 -7 145 -60 155 -74c5 -7 7 -12 7 -21c0 -16 -14 -30 -30 -30c-10 0 -17 3 -23 10c-23 26 -61 55 -131 55c-111 0 -173 -69 -173 -216c0 -149 62 -220 173 -220c71 0 110 28 129 50
c8 10 17 13 25 13c16 0 30 -12 30 -29c0 -7 -2 -14 -7 -21c-10 -15 -55 -63 -155 -73v-76c0 -14 -12 -26 -26 -26s-26 12 -26 26v77c-119 6 -208 96 -208 279z" />
    <glyph glyph-name="sterling.onum" horiz-adv-x="501" 
d="M280 252h-104s12 -31 12 -71c0 -39 -18 -85 -45 -112c16 8 33 12 54 12c49 0 102 -35 149 -35c35 0 53 13 73 39c7 9 15 12 24 12c17 0 30 -13 30 -30c0 -7 -2 -12 -4 -17c-23 -46 -63 -65 -123 -65c-58 0 -108 38 -167 38c-37 0 -56 -9 -88 -28c-5 -3 -11 -6 -20 -6
c-19 0 -29 15 -29 29c0 9 2 17 14 25c41 27 69 79 69 125c0 33 -5 58 -16 84h-44c-17 0 -30 13 -30 30s13 30 30 30h13c-19 34 -32 73 -32 110c0 83 65 164 196 164c104 0 168 -53 193 -115c2 -5 3 -10 3 -16c0 -17 -13 -30 -30 -30c-14 0 -22 6 -28 19
c-20 44 -56 82 -138 82s-131 -43 -131 -104c0 -39 17 -78 36 -110h133c17 0 30 -13 30 -30s-13 -30 -30 -30z" />
    <glyph glyph-name="yen.onum" horiz-adv-x="485" 
d="M386 178h-112v-154c0 -18 -14 -32 -32 -32c-17 0 -32 14 -32 32v154h-111c-17 0 -30 13 -30 30s13 30 30 30h111v36h-111c-17 0 -30 13 -30 30s13 30 30 30h81l-147 190c-7 9 -9 14 -9 22c0 17 15 32 33 32c12 0 18 -4 25 -13l161 -211l159 211c6 8 13 13 26 13
c17 0 32 -15 32 -32c0 -8 -2 -15 -8 -22l-147 -190h81c17 0 30 -13 30 -30s-13 -30 -30 -30h-112v-36h112c17 0 30 -13 30 -30s-13 -30 -30 -30z" />
    <glyph glyph-name="florin.onum" horiz-adv-x="410" 
d="M422 633c0 -14 -11 -25 -25 -25c-5 0 -10 2 -17 5c-19 8 -34 13 -59 13c-61 0 -88 -41 -101 -112l-20 -116h97c15 0 27 -12 27 -27s-12 -27 -27 -27h-106l-62 -344c-22 -123 -89 -201 -208 -201c-31 0 -50 5 -65 11c-16 6 -22 16 -22 27c0 15 12 27 27 27c3 0 8 -1 11 -2
c17 -5 25 -9 54 -9c78 0 124 55 139 138l63 353h-65c-15 0 -27 12 -27 27s12 27 27 27h74l19 108c19 107 66 174 165 174c42 0 69 -11 86 -22c13 -9 15 -17 15 -25z" />
    <glyph glyph-name="Euro.onum" horiz-adv-x="550" 
d="M255 312h-142s-1 -11 -1 -25c0 -8 0 -12 1 -28h142c15 0 27 -12 27 -27s-12 -27 -27 -27h-136c23 -110 98 -157 191 -157c74 0 108 32 131 60c8 10 15 15 26 15c18 0 31 -11 31 -29c0 -6 -2 -14 -8 -22c-49 -62 -113 -85 -180 -85c-146 0 -231 96 -256 218h-24
c-15 0 -27 12 -27 27s12 27 27 27h18c-1 16 -1 20 -1 28c0 17 1 25 1 25h-18c-15 0 -27 12 -27 27s12 27 27 27h24c29 155 141 219 256 219c95 0 159 -43 181 -77c6 -10 7 -13 7 -21c0 -17 -13 -30 -31 -30c-12 0 -17 3 -25 12c-18 20 -56 56 -132 56
c-116 0 -172 -62 -191 -159h136c15 0 27 -12 27 -27s-12 -27 -27 -27z" />
    <glyph glyph-name="ampersand.salt1" horiz-adv-x="571" 
d="M527 220c0 -60 -25 -121 -73 -164c7 -20 11 -43 11 -69c0 -80 -46 -167 -149 -167c-26 0 -54 6 -74 19c-8 4 -16 15 -16 27c0 17 14 31 31 31c8 0 13 -3 19 -6c11 -6 27 -10 39 -10c58 0 86 56 86 106c0 10 0 21 -2 30c-34 -18 -81 -31 -134 -31c-121 0 -221 71 -221 197
c0 87 50 143 119 187c-27 43 -49 89 -49 163c0 87 51 154 142 154c77 0 134 -49 134 -134c0 -81 -58 -146 -145 -203c54 -80 130 -142 184 -228c27 30 35 68 35 98c0 51 -25 79 -79 118c-10 7 -15 15 -15 26c0 17 14 31 31 31c4 0 10 -1 17 -5c65 -34 109 -99 109 -170z
M178 533c0 -54 16 -87 40 -130c67 42 108 86 108 150c0 50 -32 76 -70 76c-53 0 -78 -42 -78 -96zM265 44c61 0 91 16 118 32c-48 90 -131 156 -192 242c-53 -34 -83 -76 -83 -135c0 -91 75 -139 157 -139z" />
    <glyph glyph-name="plusminus" unicode="&#xb1;" horiz-adv-x="454" 
d="M454 307c0 -15 -12 -27 -27 -27h-171v-171c0 -16 -13 -29 -29 -29s-29 13 -29 29v171h-171c-15 0 -27 12 -27 27s12 27 27 27h171v170c0 16 13 29 29 29s29 -13 29 -29v-170h171c15 0 27 -12 27 -27zM454 27c0 -15 -12 -27 -27 -27h-400c-15 0 -27 12 -27 27s12 27 27 27
h400c15 0 27 -12 27 -27z" />
    <glyph glyph-name="lessequal" unicode="&#x2264;" horiz-adv-x="337" 
d="M337 27c0 -15 -12 -27 -27 -27h-283c-15 0 -27 12 -27 27s12 27 27 27h283c15 0 27 -12 27 -27zM66 287l258 -148c8 -5 13 -12 13 -23c0 -15 -12 -27 -27 -27c-7 0 -11 2 -16 5l-281 170c-7 5 -13 12 -13 23s6 18 13 23l281 170c5 3 9 5 16 5c15 0 27 -12 27 -27
c0 -11 -5 -18 -13 -23z" />
    <glyph glyph-name="greaterequal" unicode="&#x2265;" horiz-adv-x="337" 
d="M0 27c0 15 12 27 27 27h283c15 0 27 -12 27 -27s-12 -27 -27 -27h-283c-15 0 -27 12 -27 27zM13 139l258 148l-258 148c-8 5 -13 12 -13 23c0 15 12 27 27 27c7 0 11 -2 16 -5l281 -170c7 -5 13 -12 13 -23s-6 -18 -13 -23l-281 -170c-5 -3 -9 -5 -16 -5
c-15 0 -27 12 -27 27c0 11 5 18 13 23z" />
    <glyph glyph-name="s_t" unicode="&#xfb06;" horiz-adv-x="684" 
d="M207 406c-45 0 -89 -14 -89 -60c0 -105 263 -66 263 -226c0 -91 -75 -132 -170 -132c-82 0 -145 39 -171 72c-5 7 -7 12 -7 19c0 16 13 29 29 29c6 0 14 -2 22 -10c31 -31 71 -49 127 -49c57 0 106 19 106 71c0 103 -263 62 -263 226c0 83 68 121 153 121
c31 0 60 -6 84 -15c-29 31 -55 66 -55 114c0 70 60 121 146 121c126 0 177 -82 177 -189v-44h65c17 0 30 -13 30 -30s-13 -30 -30 -30h-65v-276c0 -43 24 -66 58 -66c17 0 31 -13 31 -30s-14 -30 -31 -30c-79 0 -122 53 -122 126v276h-39c-17 0 -30 13 -30 30s13 30 30 30
h39v42c0 76 -27 137 -115 137c-64 0 -103 -36 -103 -82c0 -59 36 -92 82 -148c4 -5 7 -10 7 -19c0 -16 -13 -29 -29 -29c-5 0 -13 1 -21 9c-27 26 -57 42 -109 42z" />
    <glyph glyph-name="ornament.B" horiz-adv-x="732" 
d="M591 681c52 0 93 -41 93 -92c0 -90 -109 -123 -185 -123c-8 0 -19 1 -19 1s2 -19 2 -45c0 -157 -125 -283 -214 -321c-4 -2 -6 -6 -6 -11s5 -10 11 -10c3 0 6 1 9 2c100 42 182 132 219 248c54 0 102 -38 102 -115c0 -119 -110 -223 -294 -223c-141 0 -261 72 -261 211
c0 45 20 71 59 71c31 0 43 -18 43 -45c0 -36 -36 -39 -36 -67c0 -24 24 -47 49 -47c28 0 52 25 52 54c0 42 -36 100 -36 163c0 68 51 110 111 110c51 0 98 -23 129 -78c4 11 8 33 8 68c0 24 -2 41 -2 41c-81 15 -194 74 -229 158c-41 -3 -72 -28 -72 -65
c0 -31 21 -48 53 -48c16 0 28 -12 28 -28c0 -15 -12 -28 -28 -28c-55 0 -109 36 -109 104c0 80 74 121 153 121c102 0 208 -68 249 -167c7 -1 17 -2 29 -2c79 0 129 35 129 71c0 20 -16 36 -37 36c-20 0 -36 -16 -36 -36c0 -15 -13 -27 -27 -27c-15 0 -27 12 -27 27
c0 50 37 92 90 92zM252 634c41 -60 88 -82 153 -103c-28 45 -85 95 -153 103z" />
    <glyph glyph-name="onequarter" unicode="&#xbc;" horiz-adv-x="492" 
d="M101 613l-30 -21c-5 -4 -10 -7 -18 -7c-13 0 -25 12 -25 25c0 8 3 15 12 21l72 48c4 3 9 5 15 5c14 0 26 -12 26 -26v-253c0 -14 -12 -26 -26 -26s-26 12 -26 26v208zM424 107h16c13 0 24 -11 24 -24s-11 -24 -24 -24h-16v-41c0 -14 -12 -26 -26 -26s-26 12 -26 26v41
h-111c-13 0 -24 11 -24 24c0 6 2 11 6 16l134 187c5 6 11 11 21 11c14 0 26 -12 26 -26v-164zM305 107h67v96zM89 29l246 636c2 7 9 16 24 16s27 -12 27 -27c0 -2 -1 -9 -2 -10l-245 -634c-1 -5 -8 -18 -25 -18c-15 0 -27 12 -27 27c0 2 0 6 2 10z" />
    <glyph glyph-name="slash.case" horiz-adv-x="407" 
d="M41 -41l264 779c5 16 18 23 31 23c18 0 32 -14 32 -32c0 -4 -1 -9 -3 -15l-264 -779c-5 -16 -18 -23 -31 -23c-18 0 -32 14 -32 32c0 4 1 9 3 15z" />
    <glyph glyph-name="backslash.case" horiz-adv-x="407" 
d="M102 738l264 -779c2 -6 3 -11 3 -15c0 -18 -14 -32 -32 -32c-13 0 -26 7 -31 23l-264 779c-2 6 -3 11 -3 15c0 18 14 32 32 32c13 0 26 -7 31 -23z" />
    <glyph glyph-name="bar.case" horiz-adv-x="218" 
d="M141 788v-902c0 -18 -15 -33 -33 -33s-33 15 -33 33v902c0 18 15 33 33 33s33 -15 33 -33z" />
    <glyph glyph-name="Cacute" unicode="&#x106;" horiz-adv-x="631" 
d="M356 -14c-194 0 -312 104 -312 350c0 237 118 351 312 351c95 0 178 -41 225 -106c5 -7 7 -14 7 -21c0 -18 -14 -32 -32 -32c-9 0 -18 3 -26 13c-34 47 -99 84 -174 84c-154 0 -242 -93 -242 -289c0 -208 88 -288 242 -288c66 0 135 26 174 82c7 10 18 13 26 13
c18 0 32 -14 32 -32c0 -8 -2 -13 -6 -19c-44 -64 -134 -106 -226 -106zM299 724c-12 10 -10 21 -3 30l89 108c8 10 22 14 38 0c15 -14 14 -27 3 -38l-97 -98c-9 -9 -18 -12 -30 -2z" />
    <glyph glyph-name="cacute" unicode="&#x107;" horiz-adv-x="441" 
d="M35 228c0 164 77 240 206 240c89 0 138 -47 154 -69c5 -7 7 -12 7 -19c0 -17 -13 -29 -29 -29c-10 0 -17 4 -24 12c-15 17 -42 47 -108 47c-92 0 -141 -59 -141 -182c0 -125 49 -183 141 -183c58 0 93 26 116 43c7 5 12 7 19 7c16 0 29 -13 29 -29c0 -9 -3 -16 -13 -25
c-22 -18 -70 -54 -151 -54c-129 0 -206 77 -206 241zM185 520c-12 10 -10 21 -3 30l89 108c8 10 22 14 38 0c15 -14 14 -27 3 -38l-97 -98c-9 -9 -18 -12 -30 -2z" />
    <glyph glyph-name="Ccircumflex" unicode="&#x108;" horiz-adv-x="631" 
d="M356 -14c-194 0 -312 104 -312 350c0 237 118 351 312 351c95 0 178 -41 225 -106c5 -7 7 -14 7 -21c0 -18 -14 -32 -32 -32c-9 0 -18 3 -26 13c-34 47 -99 84 -174 84c-154 0 -242 -93 -242 -289c0 -208 88 -288 242 -288c66 0 135 26 174 82c7 10 18 13 26 13
c18 0 32 -14 32 -32c0 -8 -2 -13 -6 -19c-44 -64 -134 -106 -226 -106zM438 725l-81 68l-81 -68c-2 -2 -7 -6 -16 -6c-13 0 -24 11 -24 24c0 8 3 14 9 19l96 79c4 3 8 6 16 6s12 -3 16 -6l96 -79c6 -5 9 -11 9 -19c0 -13 -11 -24 -24 -24c-9 0 -14 4 -16 6z" />
    <glyph glyph-name="ccircumflex" unicode="&#x109;" horiz-adv-x="441" 
d="M35 228c0 164 77 240 206 240c89 0 138 -47 154 -69c5 -7 7 -12 7 -19c0 -17 -13 -29 -29 -29c-10 0 -17 4 -24 12c-15 17 -42 47 -108 47c-92 0 -141 -59 -141 -182c0 -125 49 -183 141 -183c58 0 93 26 116 43c7 5 12 7 19 7c16 0 29 -13 29 -29c0 -9 -3 -16 -13 -25
c-22 -18 -70 -54 -151 -54c-129 0 -206 77 -206 241zM321 528l-81 68l-81 -68c-2 -2 -7 -6 -16 -6c-13 0 -24 11 -24 24c0 8 3 14 9 19l96 79c4 3 8 6 16 6s12 -3 16 -6l96 -79c6 -5 9 -11 9 -19c0 -13 -11 -24 -24 -24c-9 0 -14 4 -16 6z" />
    <glyph glyph-name="Cdotaccent" unicode="&#x10a;" horiz-adv-x="631" 
d="M356 -14c-194 0 -312 104 -312 350c0 237 118 351 312 351c95 0 178 -41 225 -106c5 -7 7 -14 7 -21c0 -18 -14 -32 -32 -32c-9 0 -18 3 -26 13c-34 47 -99 84 -174 84c-154 0 -242 -93 -242 -289c0 -208 88 -288 242 -288c66 0 135 26 174 82c7 10 18 13 26 13
c18 0 32 -14 32 -32c0 -8 -2 -13 -6 -19c-44 -64 -134 -106 -226 -106zM353 736c-25 0 -38 12 -38 39c0 28 13 40 38 40s38 -12 38 -40c0 -27 -13 -39 -38 -39z" />
    <glyph glyph-name="cdotaccent" unicode="&#x10b;" horiz-adv-x="441" 
d="M35 228c0 164 77 240 206 240c89 0 138 -47 154 -69c5 -7 7 -12 7 -19c0 -17 -13 -29 -29 -29c-10 0 -17 4 -24 12c-15 17 -42 47 -108 47c-92 0 -141 -59 -141 -182c0 -125 49 -183 141 -183c58 0 93 26 116 43c7 5 12 7 19 7c16 0 29 -13 29 -29c0 -9 -3 -16 -13 -25
c-22 -18 -70 -54 -151 -54c-129 0 -206 77 -206 241zM244 544c-25 0 -38 12 -38 39c0 28 13 40 38 40s38 -12 38 -40c0 -27 -13 -39 -38 -39z" />
    <glyph glyph-name="Ccaron" unicode="&#x10c;" horiz-adv-x="631" 
d="M356 -14c-194 0 -312 104 -312 350c0 237 118 351 312 351c95 0 178 -41 225 -106c5 -7 7 -14 7 -21c0 -18 -14 -32 -32 -32c-9 0 -18 3 -26 13c-34 47 -99 84 -174 84c-154 0 -242 -93 -242 -289c0 -208 88 -288 242 -288c66 0 135 26 174 82c7 10 18 13 26 13
c18 0 32 -14 32 -32c0 -8 -2 -13 -6 -19c-44 -64 -134 -106 -226 -106zM352 773l81 68c2 2 7 6 16 6c13 0 24 -11 24 -24c0 -8 -3 -14 -9 -19l-96 -79c-4 -3 -8 -6 -16 -6s-12 3 -16 6l-96 79c-6 5 -9 11 -9 19c0 13 11 24 24 24c9 0 14 -4 16 -6z" />
    <glyph glyph-name="ccaron" unicode="&#x10d;" horiz-adv-x="441" 
d="M35 228c0 164 77 240 206 240c89 0 138 -47 154 -69c5 -7 7 -12 7 -19c0 -17 -13 -29 -29 -29c-10 0 -17 4 -24 12c-15 17 -42 47 -108 47c-92 0 -141 -59 -141 -182c0 -125 49 -183 141 -183c58 0 93 26 116 43c7 5 12 7 19 7c16 0 29 -13 29 -29c0 -9 -3 -16 -13 -25
c-22 -18 -70 -54 -151 -54c-129 0 -206 77 -206 241zM248 553l81 68c2 2 7 6 16 6c13 0 24 -11 24 -24c0 -8 -3 -14 -9 -19l-96 -79c-4 -3 -8 -6 -16 -6s-12 3 -16 6l-96 79c-6 5 -9 11 -9 19c0 13 11 24 24 24c9 0 14 -4 16 -6z" />
    <glyph glyph-name="Dcaron" unicode="&#x10e;" horiz-adv-x="608" 
d="M148 611v-549h107c149 0 240 66 240 274c0 206 -91 275 -240 275h-107zM114 673h141c191 0 309 -90 309 -337s-118 -336 -309 -336h-141c-19 0 -34 15 -34 34v605c0 19 15 34 34 34zM278 773l81 68c2 2 7 6 16 6c13 0 24 -11 24 -24c0 -8 -3 -14 -9 -19l-96 -79
c-4 -3 -8 -6 -16 -6s-12 3 -16 6l-96 79c-6 5 -9 11 -9 19c0 13 11 24 24 24c9 0 14 -4 16 -6z" />
    <glyph glyph-name="dcaron" unicode="&#x10f;" horiz-adv-x="536" 
d="M550 654c0 -36 -18 -99 -46 -135c-3 -3 -6 -6 -13 -6c-8 0 -16 8 -13 19c8 25 11 41 11 55c0 37 -18 51 -18 78c0 33 15 47 39 47c31 0 40 -18 40 -58zM372 184v138s-38 88 -132 88c-91 0 -141 -59 -141 -182c0 -125 49 -183 141 -183c77 0 132 44 132 139zM236 468
c64 0 113 -33 136 -65v277c0 18 14 32 32 32s32 -14 32 -32v-496c0 -132 -82 -197 -196 -197c-129 0 -205 77 -205 241s72 240 201 240z" />
    <glyph glyph-name="Dcroat" unicode="&#x110;" horiz-adv-x="609" 
d="M114 673h141c192 0 310 -90 310 -337s-118 -336 -310 -336h-141c-19 0 -34 15 -34 34v283h-31c-17 0 -31 14 -31 31s14 31 31 31h31v260c0 19 15 34 34 34zM373 348c0 -17 -15 -31 -32 -31h-193v-253h107c149 0 242 64 242 272c0 206 -93 273 -242 273h-107v-230h193
c17 0 32 -14 32 -31z" />
    <glyph glyph-name="Emacron" unicode="&#x112;" 
d="M446 0h-332c-19 0 -34 15 -34 34v605c0 19 15 34 34 34h321c17 0 31 -14 31 -31s-14 -31 -31 -31h-287v-241h220c17 0 31 -14 31 -31s-14 -31 -31 -31h-220v-246h298c17 0 31 -14 31 -31s-14 -31 -31 -31zM398 758c0 -14 -11 -25 -25 -25h-186c-14 0 -25 11 -25 25
s11 25 25 25h186c14 0 25 -11 25 -25z" />
    <glyph glyph-name="emacron" unicode="&#x113;" horiz-adv-x="466" 
d="M35 228c0 154 76 240 206 240c160 0 191 -127 191 -195c0 -29 0 -64 -40 -64h-292c0 -99 57 -163 151 -163c58 0 92 22 120 43c6 4 10 6 18 6c16 0 29 -13 29 -29c0 -11 -5 -17 -11 -23c-15 -15 -67 -56 -156 -56c-133 0 -216 73 -216 241zM369 265
c0 72 -25 145 -128 145c-87 0 -135 -56 -141 -145h269zM360 562c0 -14 -11 -25 -25 -25h-186c-14 0 -25 11 -25 25s11 25 25 25h186c14 0 25 -11 25 -25z" />
    <glyph glyph-name="Ebreve" unicode="&#x114;" 
d="M446 0h-332c-19 0 -34 15 -34 34v605c0 19 15 34 34 34h321c17 0 31 -14 31 -31s-14 -31 -31 -31h-287v-241h220c17 0 31 -14 31 -31s-14 -31 -31 -31h-220v-246h298c17 0 31 -14 31 -31s-14 -31 -31 -31zM279 730c-60 0 -113 29 -113 101c0 13 11 24 24 24
s24 -11 24 -24c0 -37 22 -55 65 -55s65 18 65 55c0 13 11 24 24 24s24 -11 24 -24c0 -72 -53 -101 -113 -101z" />
    <glyph glyph-name="ebreve" unicode="&#x115;" horiz-adv-x="466" 
d="M35 228c0 154 76 240 206 240c160 0 191 -127 191 -195c0 -29 0 -64 -40 -64h-292c0 -99 57 -163 151 -163c58 0 92 22 120 43c6 4 10 6 18 6c16 0 29 -13 29 -29c0 -11 -5 -17 -11 -23c-15 -15 -67 -56 -156 -56c-133 0 -216 73 -216 241zM369 265
c0 72 -25 145 -128 145c-87 0 -135 -56 -141 -145h269zM242 529c-60 0 -113 29 -113 101c0 13 11 24 24 24s24 -11 24 -24c0 -37 22 -55 65 -55s65 18 65 55c0 13 11 24 24 24s24 -11 24 -24c0 -72 -53 -101 -113 -101z" />
    <glyph glyph-name="Edotaccent" unicode="&#x116;" 
d="M446 0h-332c-19 0 -34 15 -34 34v605c0 19 15 34 34 34h321c17 0 31 -14 31 -31s-14 -31 -31 -31h-287v-241h220c17 0 31 -14 31 -31s-14 -31 -31 -31h-220v-246h298c17 0 31 -14 31 -31s-14 -31 -31 -31zM282 736c-25 0 -38 12 -38 39c0 28 13 40 38 40s38 -12 38 -40
c0 -27 -13 -39 -38 -39z" />
    <glyph glyph-name="edotaccent" unicode="&#x117;" horiz-adv-x="466" 
d="M35 228c0 154 76 240 206 240c160 0 191 -127 191 -195c0 -29 0 -64 -40 -64h-292c0 -99 57 -163 151 -163c58 0 92 22 120 43c6 4 10 6 18 6c16 0 29 -13 29 -29c0 -11 -5 -17 -11 -23c-15 -15 -67 -56 -156 -56c-133 0 -216 73 -216 241zM369 265
c0 72 -25 145 -128 145c-87 0 -135 -56 -141 -145h269zM244 544c-25 0 -38 12 -38 39c0 28 13 40 38 40s38 -12 38 -40c0 -27 -13 -39 -38 -39z" />
    <glyph glyph-name="Ecaron" unicode="&#x11a;" 
d="M446 0h-332c-19 0 -34 15 -34 34v605c0 19 15 34 34 34h321c17 0 31 -14 31 -31s-14 -31 -31 -31h-287v-241h220c17 0 31 -14 31 -31s-14 -31 -31 -31h-220v-246h298c17 0 31 -14 31 -31s-14 -31 -31 -31zM289 773l81 68c2 2 7 6 16 6c13 0 24 -11 24 -24
c0 -8 -3 -14 -9 -19l-96 -79c-4 -3 -8 -6 -16 -6s-12 3 -16 6l-96 79c-6 5 -9 11 -9 19c0 13 11 24 24 24c9 0 14 -4 16 -6z" />
    <glyph glyph-name="ecaron" unicode="&#x11b;" horiz-adv-x="466" 
d="M35 228c0 154 76 240 206 240c160 0 191 -127 191 -195c0 -29 0 -64 -40 -64h-292c0 -99 57 -163 151 -163c58 0 92 22 120 43c6 4 10 6 18 6c16 0 29 -13 29 -29c0 -11 -5 -17 -11 -23c-15 -15 -67 -56 -156 -56c-133 0 -216 73 -216 241zM369 265
c0 72 -25 145 -128 145c-87 0 -135 -56 -141 -145h269zM242 553l81 68c2 2 7 6 16 6c13 0 24 -11 24 -24c0 -8 -3 -14 -9 -19l-96 -79c-4 -3 -8 -6 -16 -6s-12 3 -16 6l-96 79c-6 5 -9 11 -9 19c0 13 11 24 24 24c9 0 14 -4 16 -6z" />
    <glyph glyph-name="gcircumflex" unicode="&#x11d;" horiz-adv-x="478" 
d="M229 468c41 0 79 -9 107 -25c17 31 39 54 89 54c16 0 29 -13 29 -29s-13 -29 -29 -29c-30 0 -41 -15 -48 -31c23 -28 36 -65 36 -108c0 -102 -68 -168 -184 -168c-43 0 -80 9 -108 25c-11 -9 -18 -20 -18 -36c0 -21 14 -42 74 -42h103c97 0 175 -42 175 -136
c0 -104 -94 -144 -215 -144c-103 0 -213 30 -213 140c0 46 29 82 76 101c-37 12 -62 42 -62 81c0 30 16 54 40 70c-24 30 -36 66 -36 109c0 102 68 168 184 168zM229 190c77 0 119 44 119 110s-42 110 -119 110s-119 -44 -119 -110s42 -110 119 -110zM390 -57
c0 55 -45 76 -110 76h-104c-58 -10 -84 -40 -84 -80c0 -61 70 -84 149 -84s149 23 149 88zM311 528l-81 68l-81 -68c-2 -2 -7 -6 -16 -6c-13 0 -24 11 -24 24c0 8 3 14 9 19l96 79c4 3 8 6 16 6s12 -3 16 -6l96 -79c6 -5 9 -11 9 -19c0 -13 -11 -24 -24 -24
c-9 0 -14 4 -16 6z" />
    <glyph glyph-name="Gbreve" unicode="&#x11e;" horiz-adv-x="663" 
d="M356 48c93 0 153 39 186 80v145h-167c-17 0 -31 14 -31 31s14 31 31 31h202c16 0 31 -14 31 -31v-175c0 -12 -4 -22 -13 -33c-48 -56 -118 -110 -239 -110c-194 0 -312 104 -312 350c0 237 118 351 312 351c95 0 178 -41 225 -106c5 -7 7 -14 7 -21
c0 -18 -14 -32 -32 -32c-9 0 -18 3 -26 13c-34 47 -98 84 -174 84c-154 0 -242 -93 -242 -289c0 -208 88 -288 242 -288zM348 730c-60 0 -113 29 -113 101c0 13 11 24 24 24s24 -11 24 -24c0 -37 22 -55 65 -55s65 18 65 55c0 13 11 24 24 24s24 -11 24 -24
c0 -72 -53 -101 -113 -101z" />
    <glyph glyph-name="gbreve" unicode="&#x11f;" horiz-adv-x="478" 
d="M229 468c41 0 79 -9 107 -25c17 31 39 54 89 54c16 0 29 -13 29 -29s-13 -29 -29 -29c-30 0 -41 -15 -48 -31c23 -28 36 -65 36 -108c0 -102 -68 -168 -184 -168c-43 0 -80 9 -108 25c-11 -9 -18 -20 -18 -36c0 -21 14 -42 74 -42h103c97 0 175 -42 175 -136
c0 -104 -94 -144 -215 -144c-103 0 -213 30 -213 140c0 46 29 82 76 101c-37 12 -62 42 -62 81c0 30 16 54 40 70c-24 30 -36 66 -36 109c0 102 68 168 184 168zM229 190c77 0 119 44 119 110s-42 110 -119 110s-119 -44 -119 -110s42 -110 119 -110zM390 -57
c0 55 -45 76 -110 76h-104c-58 -10 -84 -40 -84 -80c0 -61 70 -84 149 -84s149 23 149 88zM230 529c-60 0 -113 29 -113 101c0 13 11 24 24 24s24 -11 24 -24c0 -37 22 -55 65 -55s65 18 65 55c0 13 11 24 24 24s24 -11 24 -24c0 -72 -53 -101 -113 -101z" />
    <glyph glyph-name="Gdotaccent" unicode="&#x120;" horiz-adv-x="663" 
d="M356 48c93 0 153 39 186 80v145h-167c-17 0 -31 14 -31 31s14 31 31 31h202c16 0 31 -14 31 -31v-175c0 -12 -4 -22 -13 -33c-48 -56 -118 -110 -239 -110c-194 0 -312 104 -312 350c0 237 118 351 312 351c95 0 178 -41 225 -106c5 -7 7 -14 7 -21
c0 -18 -14 -32 -32 -32c-9 0 -18 3 -26 13c-34 47 -98 84 -174 84c-154 0 -242 -93 -242 -289c0 -208 88 -288 242 -288zM348 736c-25 0 -38 12 -38 39c0 28 13 40 38 40s38 -12 38 -40c0 -27 -13 -39 -38 -39z" />
    <glyph glyph-name="gdotaccent" unicode="&#x121;" horiz-adv-x="478" 
d="M229 468c41 0 79 -9 107 -25c17 31 39 54 89 54c16 0 29 -13 29 -29s-13 -29 -29 -29c-30 0 -41 -15 -48 -31c23 -28 36 -65 36 -108c0 -102 -68 -168 -184 -168c-43 0 -80 9 -108 25c-11 -9 -18 -20 -18 -36c0 -21 14 -42 74 -42h103c97 0 175 -42 175 -136
c0 -104 -94 -144 -215 -144c-103 0 -213 30 -213 140c0 46 29 82 76 101c-37 12 -62 42 -62 81c0 30 16 54 40 70c-24 30 -36 66 -36 109c0 102 68 168 184 168zM229 190c77 0 119 44 119 110s-42 110 -119 110s-119 -44 -119 -110s42 -110 119 -110zM390 -57
c0 55 -45 76 -110 76h-104c-58 -10 -84 -40 -84 -80c0 -61 70 -84 149 -84s149 23 149 88zM232 544c-25 0 -38 12 -38 39c0 28 13 40 38 40s38 -12 38 -40c0 -27 -13 -39 -38 -39z" />
    <glyph glyph-name="commaaccent" unicode="&#xf6c3;" horiz-adv-x="141" 
d="M109 -100c0 -36 -18 -99 -46 -135c-3 -3 -6 -6 -13 -6c-8 0 -16 8 -13 19c8 25 11 41 11 55c0 37 -18 51 -18 78c0 33 15 47 39 47c31 0 40 -18 40 -58z" />
    <glyph glyph-name="Gcommaaccent" unicode="&#x122;" horiz-adv-x="663" 
d="M356 48c93 0 153 39 186 80v145h-167c-17 0 -31 14 -31 31s14 31 31 31h202c16 0 31 -14 31 -31v-175c0 -12 -4 -22 -13 -33c-48 -56 -118 -110 -239 -110c-194 0 -312 104 -312 350c0 237 118 351 312 351c95 0 178 -41 225 -106c5 -7 7 -14 7 -21
c0 -18 -14 -32 -32 -32c-9 0 -18 3 -26 13c-34 47 -98 84 -174 84c-154 0 -242 -93 -242 -289c0 -208 88 -288 242 -288zM400 -100c0 -36 -18 -99 -46 -135c-3 -3 -6 -6 -13 -6c-8 0 -16 8 -13 19c8 25 11 41 11 55c0 37 -18 51 -18 78c0 33 15 47 39 47c31 0 40 -18 40 -58
z" />
    <glyph glyph-name="gcommaaccent" unicode="&#x123;" horiz-adv-x="478" 
d="M194 576c0 36 18 99 46 135c3 3 6 6 13 6c8 0 16 -8 13 -19c-8 -25 -11 -41 -11 -55c0 -37 18 -51 18 -78c0 -33 -15 -47 -39 -47c-31 0 -40 18 -40 58zM229 468c41 0 79 -9 107 -25c17 31 39 54 89 54c16 0 29 -13 29 -29s-13 -29 -29 -29c-30 0 -41 -15 -48 -31
c23 -28 36 -65 36 -108c0 -102 -68 -168 -184 -168c-43 0 -80 9 -108 25c-11 -9 -18 -20 -18 -36c0 -21 14 -42 74 -42h103c97 0 175 -42 175 -136c0 -104 -94 -144 -215 -144c-103 0 -213 30 -213 140c0 46 29 82 76 101c-37 12 -62 42 -62 81c0 30 16 54 40 70
c-24 30 -36 66 -36 109c0 102 68 168 184 168zM229 190c77 0 119 44 119 110s-42 110 -119 110s-119 -44 -119 -110s42 -110 119 -110zM390 -57c0 55 -45 76 -110 76h-104c-58 -10 -84 -40 -84 -80c0 -61 70 -84 149 -84s149 23 149 88z" />
    <glyph glyph-name="Hcircumflex" unicode="&#x124;" horiz-adv-x="644" 
d="M496 314h-348v-288c0 -18 -15 -34 -34 -34s-34 16 -34 34v621c0 18 15 34 34 34s34 -16 34 -34v-271h348v271c0 18 15 34 34 34s34 -16 34 -34v-621c0 -18 -15 -34 -34 -34s-34 16 -34 34v288zM405 725l-81 68l-81 -68c-2 -2 -7 -6 -16 -6c-13 0 -24 11 -24 24
c0 8 3 14 9 19l96 79c4 3 8 6 16 6s12 -3 16 -6l96 -79c6 -5 9 -11 9 -19c0 -13 -11 -24 -24 -24c-9 0 -14 4 -16 6z" />
    <glyph glyph-name="hcircumflex" unicode="&#x125;" horiz-adv-x="501" 
d="M262 468c154 0 184 -92 184 -177v-267c0 -18 -14 -32 -32 -32s-32 14 -32 32v254c0 79 -23 133 -120 133c-99 0 -133 -60 -133 -140v-247c0 -18 -14 -32 -32 -32s-32 14 -32 32v656c0 18 14 32 32 32s32 -14 32 -32v-282c19 38 68 70 133 70zM178 725l-81 68l-81 -68
c-2 -2 -7 -6 -16 -6c-13 0 -24 11 -24 24c0 8 3 14 9 19l96 79c4 3 8 6 16 6s12 -3 16 -6l96 -79c6 -5 9 -11 9 -19c0 -13 -11 -24 -24 -24c-9 0 -14 4 -16 6z" />
    <glyph glyph-name="Itilde" unicode="&#x128;" horiz-adv-x="228" 
d="M148 647v-621c0 -18 -15 -34 -34 -34s-34 16 -34 34v621c0 18 15 34 34 34s34 -16 34 -34zM56 819c49 0 77 -39 118 -39c21 0 32 9 46 28c3 4 9 11 20 11c13 0 24 -11 24 -24c0 -3 -1 -8 -3 -12c-13 -26 -41 -52 -87 -52c-50 0 -76 39 -118 39c-21 0 -32 -9 -46 -28
c-3 -4 -9 -11 -20 -11c-13 0 -24 11 -24 24c0 3 1 8 3 12c13 26 41 52 87 52z" />
    <glyph glyph-name="Imacron" unicode="&#x12a;" horiz-adv-x="228" 
d="M148 647v-621c0 -18 -15 -34 -34 -34s-34 16 -34 34v621c0 18 15 34 34 34s34 -16 34 -34zM233 758c0 -14 -11 -25 -25 -25h-186c-14 0 -25 11 -25 25s11 25 25 25h186c14 0 25 -11 25 -25z" />
    <glyph glyph-name="Ibreve" unicode="&#x12c;" horiz-adv-x="228" 
d="M148 647v-621c0 -18 -15 -34 -34 -34s-34 16 -34 34v621c0 18 15 34 34 34s34 -16 34 -34zM114 730c-60 0 -113 29 -113 101c0 13 11 24 24 24s24 -11 24 -24c0 -37 22 -55 65 -55s65 18 65 55c0 13 11 24 24 24s24 -11 24 -24c0 -72 -53 -101 -113 -101z" />
    <glyph glyph-name="Idotaccent" unicode="&#x130;" horiz-adv-x="228" 
d="M148 647v-621c0 -18 -15 -34 -34 -34s-34 16 -34 34v621c0 18 15 34 34 34s34 -16 34 -34zM115 736c-25 0 -38 12 -38 39c0 28 13 40 38 40s38 -12 38 -40c0 -27 -13 -39 -38 -39z" />
    <glyph glyph-name="Jcircumflex" unicode="&#x134;" horiz-adv-x="413" 
d="M35 10c-12 7 -19 17 -19 30c0 18 15 33 33 33c8 0 11 -2 20 -6c24 -12 47 -16 74 -16c88 0 122 64 122 152v444c0 18 15 34 34 34s34 -16 34 -34v-444c0 -122 -51 -216 -190 -216c-38 0 -82 8 -108 23zM377 725l-81 68l-81 -68c-2 -2 -7 -6 -16 -6c-13 0 -24 11 -24 24
c0 8 3 14 9 19l96 79c4 3 8 6 16 6s12 -3 16 -6l96 -79c6 -5 9 -11 9 -19c0 -13 -11 -24 -24 -24c-9 0 -14 4 -16 6z" />
    <glyph glyph-name="Kcommaaccent" unicode="&#x136;" horiz-adv-x="554" 
d="M148 335l291 333c8 10 18 13 27 13c19 0 35 -16 35 -35c0 -10 -4 -17 -10 -24l-209 -234l242 -341c4 -6 7 -12 7 -21c0 -19 -15 -34 -34 -34c-15 0 -24 9 -29 16l-232 330l-88 -99v-213c0 -19 -15 -34 -34 -34s-34 15 -34 34v621c0 19 15 34 34 34s34 -15 34 -34v-312z
M336 -100c0 -36 -18 -99 -46 -135c-3 -3 -6 -6 -13 -6c-8 0 -16 8 -13 19c8 25 11 41 11 55c0 37 -18 51 -18 78c0 33 15 47 39 47c31 0 40 -18 40 -58z" />
    <glyph glyph-name="kcommaaccent" unicode="&#x137;" horiz-adv-x="453" 
d="M395 -8c-11 0 -20 5 -28 15l-177 227l-61 -49v-161c0 -18 -14 -32 -32 -32s-32 14 -32 32v656c0 18 14 32 32 32s32 -14 32 -32v-419l236 193c8 7 16 8 22 8c18 0 32 -14 32 -32c0 -8 -3 -18 -13 -26l-164 -131l178 -229c6 -7 7 -14 7 -20c0 -18 -14 -32 -32 -32z
M288 -100c0 -36 -18 -99 -46 -135c-3 -3 -6 -6 -13 -6c-8 0 -16 8 -13 19c8 25 11 41 11 55c0 37 -18 51 -18 78c0 33 15 47 39 47c31 0 40 -18 40 -58z" />
    <glyph glyph-name="kgreenlandic" unicode="&#x138;" horiz-adv-x="453" 
d="M395 -8c-11 0 -20 5 -28 15l-177 227l-61 -49v-161c0 -18 -14 -32 -32 -32s-32 14 -32 32v406c0 18 14 32 32 32s32 -14 32 -32v-169l236 193c8 7 16 8 22 8c18 0 32 -14 32 -32c0 -8 -3 -18 -13 -26l-164 -131l178 -229c6 -7 7 -14 7 -20c0 -18 -14 -32 -32 -32z" />
    <glyph glyph-name="Lacute" unicode="&#x139;" horiz-adv-x="483" 
d="M148 64h274c18 0 32 -14 32 -32s-14 -32 -32 -32h-308c-19 0 -34 15 -34 34v613c0 19 15 34 34 34s34 -15 34 -34v-583zM74 724c-12 10 -10 21 -3 30l89 108c8 10 22 14 38 0c15 -14 14 -27 3 -38l-97 -98c-9 -9 -18 -12 -30 -2z" />
    <glyph glyph-name="lacute" unicode="&#x13a;" horiz-adv-x="219" 
d="M97 712c18 0 32 -15 32 -32v-571c0 -40 13 -57 40 -57c16 0 30 -13 30 -30s-14 -30 -30 -30c-67 0 -104 40 -104 117v571c0 17 15 32 32 32zM51 742c-12 10 -10 21 -3 30l89 108c8 10 22 14 38 0c15 -14 14 -27 3 -38l-97 -98c-9 -9 -18 -12 -30 -2z" />
    <glyph glyph-name="Lcommaaccent" unicode="&#x13b;" horiz-adv-x="483" 
d="M148 64h274c18 0 32 -14 32 -32s-14 -32 -32 -32h-308c-19 0 -34 15 -34 34v613c0 19 15 34 34 34s34 -15 34 -34v-583zM319 -100c0 -36 -18 -99 -46 -135c-3 -3 -6 -6 -13 -6c-8 0 -16 8 -13 19c8 25 11 41 11 55c0 37 -18 51 -18 78c0 33 15 47 39 47
c31 0 40 -18 40 -58z" />
    <glyph glyph-name="lcommaaccent" unicode="&#x13c;" horiz-adv-x="219" 
d="M97 712c18 0 32 -15 32 -32v-571c0 -40 13 -57 40 -57c16 0 30 -13 30 -30s-14 -30 -30 -30c-67 0 -104 40 -104 117v571c0 17 15 32 32 32zM169 -100c0 -36 -18 -99 -46 -135c-3 -3 -6 -6 -13 -6c-8 0 -16 8 -13 19c8 25 11 41 11 55c0 37 -18 51 -18 78
c0 33 15 47 39 47c31 0 40 -18 40 -58z" />
    <glyph glyph-name="Ldot" unicode="&#x13f;" horiz-adv-x="483" 
d="M148 64h274c18 0 32 -14 32 -32s-14 -32 -32 -32h-308c-19 0 -34 15 -34 34v613c0 19 15 34 34 34s34 -15 34 -34v-583zM378 297c-29 0 -47 14 -47 47s18 48 47 48s47 -15 47 -48s-18 -47 -47 -47z" />
    <glyph glyph-name="ldot" unicode="&#x140;" horiz-adv-x="279" 
d="M97 712c18 0 32 -15 32 -32v-571c0 -40 13 -57 40 -57c16 0 30 -13 30 -30s-14 -30 -30 -30c-67 0 -104 40 -104 117v571c0 17 15 32 32 32zM217 328c-29 0 -47 14 -47 47s18 48 47 48s47 -15 47 -48s-18 -47 -47 -47z" />
    <glyph glyph-name="Nacute" unicode="&#x143;" horiz-adv-x="620" 
d="M517 681c18 0 33 -15 33 -33v-622c0 -19 -15 -34 -34 -34c-12 0 -21 5 -28 14l-352 531v-512c0 -18 -15 -33 -33 -33s-33 15 -33 33v623c0 18 15 33 33 33c12 0 22 -7 27 -14l354 -532v513c0 18 15 33 33 33zM274 723c-12 10 -10 21 -3 30l89 108c8 10 22 14 38 0
c15 -14 14 -27 3 -38l-97 -98c-9 -9 -18 -12 -30 -2z" />
    <glyph glyph-name="Eng" unicode="&#x14a;" horiz-adv-x="620" 
d="M360 -137c87 0 123 63 124 149l-348 525v-512c0 -18 -15 -33 -33 -33s-33 15 -33 33v623c0 18 15 33 33 33c12 0 22 -7 27 -14l354 -532v513c0 18 15 33 33 33s33 -15 33 -33v-633c0 -122 -51 -216 -190 -216c-18 0 -32 14 -32 32s14 32 32 32z" />
    <glyph glyph-name="eng" unicode="&#x14b;" horiz-adv-x="501" 
d="M382 -51v329c0 79 -23 133 -120 133c-99 0 -133 -60 -133 -140v-247c0 -18 -14 -32 -32 -32s-32 14 -32 32v406c0 18 14 32 32 32s32 -14 32 -32v-32c19 38 68 70 133 70c154 0 184 -92 184 -177v-342c0 -84 -61 -150 -146 -150c-17 0 -30 13 -30 30s13 30 30 30
c48 0 82 40 82 90z" />
    <glyph glyph-name="Omacron" unicode="&#x14c;" horiz-adv-x="712" 
d="M356 -14c-194 0 -312 115 -312 350c0 237 118 351 312 351s312 -114 312 -351c0 -235 -118 -350 -312 -350zM356 625c-153 0 -242 -93 -242 -289c0 -195 89 -288 242 -288s242 93 242 288c0 196 -89 289 -242 289zM477 758c0 -14 -11 -25 -25 -25h-186
c-14 0 -25 11 -25 25s11 25 25 25h186c14 0 25 -11 25 -25z" />
    <glyph glyph-name="omacron" unicode="&#x14d;" horiz-adv-x="490" 
d="M245 468c130 0 210 -76 210 -240s-80 -241 -210 -241c-129 0 -210 77 -210 241s81 240 210 240zM245 45c92 0 145 55 145 183c0 126 -53 182 -145 182s-145 -56 -145 -182c0 -128 53 -183 145 -183zM363 562c0 -14 -11 -25 -25 -25h-186c-14 0 -25 11 -25 25s11 25 25 25
h186c14 0 25 -11 25 -25z" />
    <glyph glyph-name="Obreve" unicode="&#x14e;" horiz-adv-x="712" 
d="M356 -14c-194 0 -312 115 -312 350c0 237 118 351 312 351s312 -114 312 -351c0 -235 -118 -350 -312 -350zM356 625c-153 0 -242 -93 -242 -289c0 -195 89 -288 242 -288s242 93 242 288c0 196 -89 289 -242 289zM358 730c-60 0 -113 29 -113 101c0 13 11 24 24 24
s24 -11 24 -24c0 -37 22 -55 65 -55s65 18 65 55c0 13 11 24 24 24s24 -11 24 -24c0 -72 -53 -101 -113 -101z" />
    <glyph glyph-name="obreve" unicode="&#x14f;" horiz-adv-x="490" 
d="M245 468c130 0 210 -76 210 -240s-80 -241 -210 -241c-129 0 -210 77 -210 241s81 240 210 240zM245 45c92 0 145 55 145 183c0 126 -53 182 -145 182s-145 -56 -145 -182c0 -128 53 -183 145 -183zM244 529c-60 0 -113 29 -113 101c0 13 11 24 24 24s24 -11 24 -24
c0 -37 22 -55 65 -55s65 18 65 55c0 13 11 24 24 24s24 -11 24 -24c0 -72 -53 -101 -113 -101z" />
    <glyph glyph-name="Ohungarumlaut" unicode="&#x150;" horiz-adv-x="712" 
d="M356 -14c-194 0 -312 115 -312 350c0 237 118 351 312 351s312 -114 312 -351c0 -235 -118 -350 -312 -350zM356 625c-153 0 -242 -93 -242 -289c0 -195 89 -288 242 -288s242 93 242 288c0 196 -89 289 -242 289zM289 723c-12 10 -10 21 -3 30l89 108c8 10 22 14 38 0
c15 -14 14 -27 3 -38l-97 -98c-9 -9 -18 -12 -30 -2zM398 723c-12 10 -10 21 -3 30l89 108c8 10 22 14 38 0c15 -14 14 -27 3 -38l-97 -98c-9 -9 -18 -12 -30 -2z" />
    <glyph glyph-name="ohungarumlaut" unicode="&#x151;" horiz-adv-x="490" 
d="M245 468c130 0 210 -76 210 -240s-80 -241 -210 -241c-129 0 -210 77 -210 241s81 240 210 240zM245 45c92 0 145 55 145 183c0 126 -53 182 -145 182s-145 -56 -145 -182c0 -128 53 -183 145 -183zM156 520c-12 10 -10 21 -3 30l89 108c8 10 22 14 38 0
c15 -14 14 -27 3 -38l-97 -98c-9 -9 -18 -12 -30 -2zM265 520c-12 10 -10 21 -3 30l89 108c8 10 22 14 38 0c15 -14 14 -27 3 -38l-97 -98c-9 -9 -18 -12 -30 -2z" />
    <glyph glyph-name="Racute" unicode="&#x154;" horiz-adv-x="546" 
d="M148 611v-258h167c70 0 120 57 120 129c0 74 -51 129 -123 129h-164zM148 291v-265c0 -19 -15 -34 -34 -34s-34 15 -34 34v613c0 19 15 34 34 34h199c111 0 191 -84 191 -191c0 -103 -71 -186 -179 -191l183 -244c5 -6 7 -14 7 -21c0 -19 -15 -34 -34 -34
c-10 0 -21 4 -29 16l-203 283h-101zM226 724c-12 10 -10 21 -3 30l89 108c8 10 22 14 38 0c15 -14 14 -27 3 -38l-97 -98c-9 -9 -18 -12 -30 -2z" />
    <glyph glyph-name="Rcommaaccent" unicode="&#x156;" horiz-adv-x="546" 
d="M148 611v-258h167c70 0 120 57 120 129c0 74 -51 129 -123 129h-164zM148 291v-265c0 -19 -15 -34 -34 -34s-34 15 -34 34v613c0 19 15 34 34 34h199c111 0 191 -84 191 -191c0 -103 -71 -186 -179 -191l183 -244c5 -6 7 -14 7 -21c0 -19 -15 -34 -34 -34
c-10 0 -21 4 -29 16l-203 283h-101zM327 -100c0 -36 -18 -99 -46 -135c-3 -3 -6 -6 -13 -6c-8 0 -16 8 -13 19c8 25 11 41 11 55c0 37 -18 51 -18 78c0 33 15 47 39 47c31 0 40 -18 40 -58z" />
    <glyph glyph-name="Rcaron" unicode="&#x158;" horiz-adv-x="546" 
d="M148 611v-258h167c70 0 120 57 120 129c0 74 -51 129 -123 129h-164zM148 291v-265c0 -19 -15 -34 -34 -34s-34 15 -34 34v613c0 19 15 34 34 34h199c111 0 191 -84 191 -191c0 -103 -71 -186 -179 -191l183 -244c5 -6 7 -14 7 -21c0 -19 -15 -34 -34 -34
c-10 0 -21 4 -29 16l-203 283h-101zM273 773l81 68c2 2 7 6 16 6c13 0 24 -11 24 -24c0 -8 -3 -14 -9 -19l-96 -79c-4 -3 -8 -6 -16 -6s-12 3 -16 6l-96 79c-6 5 -9 11 -9 19c0 13 11 24 24 24c9 0 14 -4 16 -6z" />
    <glyph glyph-name="tcaron" unicode="&#x165;" horiz-adv-x="279" 
d="M286 661c0 -36 -18 -99 -46 -135c-3 -3 -6 -6 -13 -6c-8 0 -16 8 -13 19c8 25 11 41 11 55c0 37 -18 51 -18 78c0 33 15 47 39 47c31 0 40 -18 40 -58zM90 454v105c0 17 15 32 32 32c18 0 32 -15 32 -32v-105h65c17 0 30 -13 30 -30s-13 -30 -30 -30h-65v-276
c0 -43 24 -66 58 -66c17 0 31 -13 31 -30s-14 -30 -31 -30c-79 0 -122 53 -122 126v276h-39c-17 0 -30 13 -30 30s13 30 30 30h39z" />
    <glyph glyph-name="Utilde" unicode="&#x168;" horiz-adv-x="625" 
d="M316 -14c-189 0 -235 109 -235 219v442c0 19 15 34 34 34s34 -15 34 -34v-442c0 -79 29 -155 167 -155c137 0 166 76 166 155v442c0 19 15 34 34 34s34 -15 34 -34v-442c0 -110 -45 -219 -234 -219zM263 819c49 0 77 -39 118 -39c21 0 32 9 46 28c3 4 9 11 20 11
c13 0 24 -11 24 -24c0 -3 -1 -8 -3 -12c-13 -26 -41 -52 -87 -52c-50 0 -76 39 -118 39c-21 0 -32 -9 -46 -28c-3 -4 -9 -11 -20 -11c-13 0 -24 11 -24 24c0 3 1 8 3 12c13 26 41 52 87 52z" />
    <glyph glyph-name="utilde" unicode="&#x169;" horiz-adv-x="486" 
d="M87 462c17 0 32 -14 32 -32v-261c0 -65 21 -121 122 -121s122 56 122 121v261c0 18 15 32 33 32c17 0 31 -14 31 -32v-261c0 -95 -31 -182 -186 -182c-154 0 -186 87 -186 182v261c0 18 14 32 32 32zM189 617c49 0 77 -39 118 -39c21 0 32 9 46 28c3 4 9 11 20 11
c13 0 24 -11 24 -24c0 -3 -1 -8 -3 -12c-13 -26 -41 -52 -87 -52c-50 0 -76 39 -118 39c-21 0 -32 -9 -46 -28c-3 -4 -9 -11 -20 -11c-13 0 -24 11 -24 24c0 3 1 8 3 12c13 26 41 52 87 52z" />
    <glyph glyph-name="Umacron" unicode="&#x16a;" horiz-adv-x="624" 
d="M315 -14c-189 0 -235 109 -235 219v442c0 19 15 34 34 34s34 -15 34 -34v-442c0 -79 29 -155 167 -155c137 0 166 76 166 155v442c0 19 15 34 34 34s34 -15 34 -34v-442c0 -110 -45 -219 -234 -219zM438 758c0 -14 -11 -25 -25 -25h-186c-14 0 -25 11 -25 25s11 25 25 25
h186c14 0 25 -11 25 -25z" />
    <glyph glyph-name="umacron" unicode="&#x16b;" horiz-adv-x="486" 
d="M87 462c17 0 32 -14 32 -32v-261c0 -65 21 -121 122 -121s122 56 122 121v261c0 18 15 32 33 32c17 0 31 -14 31 -32v-261c0 -95 -31 -182 -186 -182c-154 0 -186 87 -186 182v261c0 18 14 32 32 32zM367 562c0 -14 -11 -25 -25 -25h-186c-14 0 -25 11 -25 25
s11 25 25 25h186c14 0 25 -11 25 -25z" />
    <glyph glyph-name="Ubreve" unicode="&#x16c;" horiz-adv-x="624" 
d="M315 -14c-189 0 -235 109 -235 219v442c0 19 15 34 34 34s34 -15 34 -34v-442c0 -79 29 -155 167 -155c137 0 166 76 166 155v442c0 19 15 34 34 34s34 -15 34 -34v-442c0 -110 -45 -219 -234 -219zM316 730c-60 0 -113 29 -113 101c0 13 11 24 24 24s24 -11 24 -24
c0 -37 22 -55 65 -55s65 18 65 55c0 13 11 24 24 24s24 -11 24 -24c0 -72 -53 -101 -113 -101z" />
    <glyph glyph-name="ubreve" unicode="&#x16d;" horiz-adv-x="486" 
d="M87 462c17 0 32 -14 32 -32v-261c0 -65 21 -121 122 -121s122 56 122 121v261c0 18 15 32 33 32c17 0 31 -14 31 -32v-261c0 -95 -31 -182 -186 -182c-154 0 -186 87 -186 182v261c0 18 14 32 32 32zM241 529c-60 0 -113 29 -113 101c0 13 11 24 24 24s24 -11 24 -24
c0 -37 22 -55 65 -55s65 18 65 55c0 13 11 24 24 24s24 -11 24 -24c0 -72 -53 -101 -113 -101z" />
    <glyph glyph-name="Uring" unicode="&#x16e;" horiz-adv-x="624" 
d="M315 -14c-189 0 -235 109 -235 219v442c0 19 15 34 34 34s34 -15 34 -34v-442c0 -79 29 -155 167 -155c137 0 166 76 166 155v442c0 19 15 34 34 34s34 -15 34 -34v-442c0 -110 -45 -219 -234 -219zM322 703c-71 0 -104 37 -104 98s33 98 104 98s104 -37 104 -98
s-33 -98 -104 -98zM322 861c-46 0 -62 -20 -62 -60c0 -39 16 -60 62 -60s62 21 62 60c0 40 -16 60 -62 60z" />
    <glyph glyph-name="uring" unicode="&#x16f;" horiz-adv-x="486" 
d="M87 462c17 0 32 -14 32 -32v-261c0 -65 21 -121 122 -121s122 56 122 121v261c0 18 15 32 33 32c17 0 31 -14 31 -32v-261c0 -95 -31 -182 -186 -182c-154 0 -186 87 -186 182v261c0 18 14 32 32 32zM245 502c-71 0 -104 37 -104 98s33 98 104 98s104 -37 104 -98
s-33 -98 -104 -98zM245 660c-46 0 -62 -20 -62 -60c0 -39 16 -60 62 -60s62 21 62 60c0 40 -16 60 -62 60z" />
    <glyph glyph-name="Uhungarumlaut" unicode="&#x170;" horiz-adv-x="624" 
d="M310 -14c-189 0 -235 109 -235 219v442c0 19 15 34 34 34s34 -15 34 -34v-442c0 -79 29 -155 167 -155c137 0 166 76 166 155v442c0 19 15 34 34 34s34 -15 34 -34v-442c0 -110 -45 -219 -234 -219zM222 724c-12 10 -10 21 -3 30l89 108c8 10 22 14 38 0
c15 -14 14 -27 3 -38l-97 -98c-9 -9 -18 -12 -30 -2zM331 724c-12 10 -10 21 -3 30l89 108c8 10 22 14 38 0c15 -14 14 -27 3 -38l-97 -98c-9 -9 -18 -12 -30 -2z" />
    <glyph glyph-name="longs" unicode="&#x17f;" horiz-adv-x="224" 
d="M85 394h-34c-17 0 -30 13 -30 30s13 30 30 30h34v59c0 90 51 172 173 172c17 0 30 -13 30 -30s-13 -30 -30 -30c-78 0 -109 -47 -109 -112v-489c0 -18 -14 -32 -32 -32s-32 14 -32 32v370z" />
    <glyph glyph-name="Aringacute" unicode="&#x1fa;" horiz-adv-x="616" 
d="M447 199h-279l-73 -183c-5 -13 -16 -24 -33 -24c-19 0 -34 16 -34 34c0 4 1 11 3 15l239 606c-46 11 -67 44 -67 94c0 61 33 98 104 98s104 -37 104 -98c0 -49 -22 -83 -67 -94l240 -606c2 -5 3 -12 3 -15c0 -18 -14 -34 -35 -34c-17 0 -28 10 -33 23zM426 261l-119 306
l-118 -306h237zM307 801c-46 0 -62 -20 -62 -60c0 -39 16 -60 62 -60s62 21 62 60c0 40 -16 60 -62 60zM244 868c-12 10 -10 21 -3 30l89 108c8 10 22 14 38 0c15 -14 14 -27 3 -38l-97 -98c-9 -9 -18 -12 -30 -2z" />
    <glyph glyph-name="aringacute" unicode="&#x1fb;" horiz-adv-x="467" 
d="M232 408c-53 0 -85 -16 -116 -51c-10 -11 -17 -14 -26 -14c-16 0 -29 13 -29 29c0 7 2 12 5 17c28 44 82 79 166 79c116 0 180 -68 180 -170v-275c0 -17 -14 -31 -31 -31s-31 14 -31 31v36c-25 -47 -83 -72 -143 -72c-106 0 -173 51 -173 143c0 88 67 141 175 141h141v27
c0 68 -45 110 -118 110zM213 45c70 0 137 43 137 128v42h-141c-65 0 -110 -27 -110 -85c0 -52 36 -85 114 -85zM231 489c-71 0 -104 37 -104 98s33 98 104 98s104 -37 104 -98s-33 -98 -104 -98zM231 647c-46 0 -62 -20 -62 -60c0 -39 16 -60 62 -60s62 21 62 60
c0 40 -16 60 -62 60zM165 709c-12 10 -10 21 -3 30l89 108c8 10 22 14 38 0c15 -14 14 -27 3 -38l-97 -98c-9 -9 -18 -12 -30 -2z" />
    <glyph glyph-name="AEacute" unicode="&#x1fc;" horiz-adv-x="841" 
d="M769 0h-332c-19 0 -34 15 -34 34v165h-211l-119 -191c-7 -12 -19 -16 -29 -16c-19 0 -35 16 -35 35c0 6 2 12 7 20l392 610c8 12 19 16 29 16h321c17 0 31 -14 31 -31s-14 -31 -31 -31h-287v-241h220c17 0 31 -14 31 -31s-14 -31 -31 -31h-220v-246h298
c17 0 31 -14 31 -31s-14 -31 -31 -31zM228 261h175v280zM519 724c-12 10 -10 21 -3 30l89 108c8 10 22 14 38 0c15 -14 14 -27 3 -38l-97 -98c-9 -9 -18 -12 -30 -2z" />
    <glyph glyph-name="aeacute" unicode="&#x1fd;" horiz-adv-x="778" 
d="M232 408c-53 0 -81 -14 -116 -51c-10 -11 -17 -14 -26 -14c-16 0 -29 13 -29 29c0 7 2 12 5 17c28 44 82 79 166 79c76 0 131 -30 158 -80c34 52 89 80 163 80c160 0 191 -125 191 -193c0 -29 0 -64 -40 -64h-292c0 -99 57 -165 151 -165c58 0 92 22 120 43
c6 4 10 6 18 6c16 0 29 -13 29 -29c0 -11 -5 -17 -11 -23c-15 -15 -67 -56 -156 -56c-87 0 -153 32 -179 99c-25 -50 -75 -99 -177 -99c-106 0 -173 51 -173 143c0 88 67 137 175 137h141v31c0 68 -45 110 -118 110zM213 45c70 0 137 43 137 128v38h-141
c-65 0 -110 -23 -110 -81c0 -52 36 -85 114 -85zM681 267c0 72 -25 143 -128 143c-87 0 -135 -54 -141 -143h269zM340 538c-12 10 -10 21 -3 30l89 108c8 10 22 14 38 0c15 -14 14 -27 3 -38l-97 -98c-9 -9 -18 -12 -30 -2z" />
    <glyph glyph-name="Oslashacute" unicode="&#x1fe;" horiz-adv-x="709" 
d="M354 -14c-80 0 -146 19 -196 58l-47 -60c-5 -6 -12 -10 -20 -10c-15 0 -27 12 -27 27c0 4 1 10 5 15l51 64c-49 58 -76 143 -76 256c0 237 116 351 310 351c80 0 146 -20 197 -59l46 58c5 6 11 10 20 10c15 0 27 -12 27 -27c0 -4 -1 -10 -5 -15l-49 -62
c48 -58 75 -143 75 -256c0 -235 -116 -350 -311 -350zM354 625c-153 0 -240 -93 -240 -289c0 -87 17 -153 49 -200l347 439c-40 33 -92 50 -156 50zM595 336c0 86 -17 152 -49 199l-347 -439c39 -32 91 -48 155 -48c153 0 241 93 241 288zM299 724c-12 10 -10 21 -3 30
l89 108c8 10 22 14 38 0c15 -14 14 -27 3 -38l-97 -98c-9 -9 -18 -12 -30 -2z" />
    <glyph glyph-name="Wdieresis" unicode="&#x1e84;" horiz-adv-x="818" 
d="M553 18l-144 509l-144 -509c-4 -16 -17 -26 -33 -26c-15 0 -29 10 -33 25l-177 618c-1 4 -2 8 -2 12c0 19 15 34 34 34s30 -14 33 -25l146 -517l143 517c4 16 18 25 33 25s29 -9 33 -25l143 -517l146 517c3 11 14 25 33 25s34 -15 34 -34c0 -4 -1 -8 -2 -12l-177 -618
c-4 -15 -18 -25 -33 -25c-16 0 -29 10 -33 26zM331 741c-24 0 -36 12 -36 37s12 38 36 38s36 -13 36 -38s-12 -37 -36 -37zM488 741c-24 0 -36 12 -36 37s12 38 36 38s36 -13 36 -38s-12 -37 -36 -37z" />
    <glyph glyph-name="Ygrave" unicode="&#x1ef2;" 
d="M259 -8c-19 0 -34 15 -34 34v287l-201 316c-3 5 -5 11 -5 18c0 19 15 34 34 34c12 0 23 -6 29 -16l177 -284l177 284c6 10 17 16 29 16c19 0 34 -15 34 -34c0 -7 -2 -13 -5 -18l-201 -316v-287c0 -19 -15 -34 -34 -34zM306 724c-12 -10 -21 -7 -30 2l-97 98
c-11 11 -12 24 3 38c16 14 30 10 38 0l89 -108c7 -9 9 -20 -3 -30z" />
    <glyph glyph-name="ygrave" unicode="&#x1ef3;" horiz-adv-x="438" 
d="M35 -141c87 0 110 59 151 160l-167 397c-1 3 -3 7 -3 14c0 18 14 32 32 32s26 -11 30 -21l141 -345l141 345c4 10 12 21 30 21s32 -14 32 -32c0 -7 -2 -11 -3 -14l-197 -469c-41 -98 -92 -148 -187 -148c-17 0 -30 13 -30 30s13 30 30 30zM259 520c-12 -10 -21 -7 -30 2
l-97 98c-11 11 -12 24 3 38c16 14 30 10 38 0l89 -108c7 -9 9 -20 -3 -30z" />
    <glyph glyph-name="zero.numerator" horiz-adv-x="298" 
d="M149 423c47 0 71 32 71 108s-24 109 -71 109s-71 -33 -71 -109s24 -108 71 -108zM149 376c-78 0 -124 44 -124 155s46 156 124 156s124 -45 124 -156s-46 -155 -124 -155z" />
    <glyph glyph-name="one.numerator" horiz-adv-x="196" 
d="M99 613l-30 -21c-5 -4 -10 -7 -18 -7c-13 0 -25 12 -25 25c0 8 3 15 12 21l72 48c4 3 9 5 15 5c14 0 26 -12 26 -26v-253c0 -14 -12 -26 -26 -26s-26 12 -26 26v208z" />
    <glyph glyph-name="two.numerator" horiz-adv-x="266" 
d="M35 634c14 34 50 53 97 53c65 0 108 -32 108 -89c0 -96 -161 -116 -161 -168h135c13 0 24 -11 24 -24s-11 -24 -24 -24h-167c-13 0 -24 11 -24 24c0 117 165 117 165 192c0 23 -18 42 -56 42c-32 0 -45 -12 -57 -29c-4 -5 -9 -10 -19 -10c-13 0 -23 10 -23 23
c0 0 0 5 2 10z" />
    <glyph glyph-name="three.numerator" horiz-adv-x="259" 
d="M212 638l-68 -70c67 0 90 -48 90 -92c0 -59 -36 -100 -116 -100c-51 0 -85 28 -101 58c-3 6 -4 10 -4 14c0 13 10 23 23 23c10 0 16 -5 21 -13c13 -22 30 -34 61 -34c40 0 63 17 63 52c0 30 -18 48 -60 48h-22c-13 0 -24 11 -24 24c0 6 2 11 6 16l62 67h-93
c-14 0 -25 11 -25 25s11 25 25 25h144c14 0 25 -11 25 -25c0 -8 -2 -14 -7 -18z" />
    <glyph glyph-name="four.numerator" horiz-adv-x="260" 
d="M204 494h16c13 0 24 -11 24 -24s-11 -24 -24 -24h-16v-41c0 -14 -12 -26 -26 -26s-26 12 -26 26v41h-111c-13 0 -24 11 -24 24c0 6 2 11 6 16l134 187c5 6 11 11 21 11c14 0 26 -12 26 -26v-164zM85 494h67v96z" />
    <glyph glyph-name="five.numerator" horiz-adv-x="262" 
d="M125 579c60 0 112 -27 112 -101c0 -67 -45 -102 -112 -102c-56 0 -91 30 -107 57c-3 5 -5 9 -5 15c0 13 10 23 23 23c11 0 17 -6 22 -14c15 -24 33 -33 67 -33c39 0 59 23 59 54c0 32 -20 55 -59 55c-28 0 -41 -6 -58 -14c-7 -3 -12 -6 -19 -6c-13 0 -23 10 -23 23
c0 0 0 5 2 14l19 108c2 12 11 22 25 22h133c14 0 25 -11 25 -25s-11 -25 -25 -25h-114l-10 -59c9 4 24 8 45 8z" />
    <glyph glyph-name="six.numerator" horiz-adv-x="275" 
d="M146 576c58 0 104 -32 104 -96c0 -73 -49 -104 -110 -104c-85 0 -115 62 -115 149c0 115 52 162 122 162c33 0 61 -10 74 -21c6 -5 9 -11 9 -19c0 -13 -10 -23 -23 -23c-7 0 -10 2 -16 5c-16 8 -27 11 -44 11c-34 0 -72 -27 -72 -95c11 14 35 31 71 31zM140 423
c39 0 60 22 60 57c0 32 -26 51 -60 51c-24 0 -50 -14 -60 -42c0 -30 13 -66 60 -66z" />
    <glyph glyph-name="seven.numerator" horiz-adv-x="234" 
d="M50 406c0 129 116 177 116 225h-131c-14 0 -25 11 -25 25s11 25 25 25h161c14 0 25 -11 25 -25c0 -112 -119 -122 -119 -250c0 -15 -11 -27 -25 -27c-15 0 -27 12 -27 27z" />
    <glyph glyph-name="eight.numerator" horiz-adv-x="271" 
d="M135 376c-73 0 -113 33 -113 95c0 33 14 58 48 73c-18 8 -37 28 -37 59c0 56 42 84 102 84s102 -28 102 -84c0 -31 -19 -51 -37 -59c34 -15 48 -40 48 -73c0 -62 -40 -95 -113 -95zM135 640c-40 0 -51 -17 -51 -37c0 -22 11 -38 51 -38s51 16 51 38c0 20 -11 37 -51 37z
M135 520c-40 0 -60 -19 -60 -49s19 -48 60 -48s60 18 60 48s-20 49 -60 49z" />
    <glyph glyph-name="nine.numerator" horiz-adv-x="275" 
d="M129 487c-58 0 -104 32 -104 96c0 73 49 104 110 104c85 0 115 -62 115 -149c0 -115 -52 -162 -122 -162c-33 0 -61 10 -74 21c-6 5 -9 11 -9 19c0 13 10 23 23 23c7 0 10 -2 16 -5c16 -8 27 -11 44 -11c34 0 72 27 72 95c-11 -14 -35 -31 -71 -31zM135 640
c-39 0 -60 -22 -60 -57c0 -32 26 -51 60 -51c24 0 50 14 60 42c0 30 -13 66 -60 66z" />
    <glyph glyph-name="zero.denominator" horiz-adv-x="298" 
d="M149 34c47 0 71 32 71 108s-24 109 -71 109s-71 -33 -71 -109s24 -108 71 -108zM149 -13c-78 0 -124 44 -124 155s46 156 124 156s124 -45 124 -156s-46 -155 -124 -155z" />
    <glyph glyph-name="one.denominator" horiz-adv-x="196" 
d="M99 226l-30 -21c-5 -4 -10 -7 -18 -7c-13 0 -25 12 -25 25c0 8 3 15 12 21l72 48c4 3 9 5 15 5c14 0 26 -12 26 -26v-253c0 -14 -12 -26 -26 -26s-26 12 -26 26v208z" />
    <glyph glyph-name="two.denominator" horiz-adv-x="266" 
d="M35 252c14 34 50 53 97 53c65 0 108 -32 108 -89c0 -96 -161 -116 -161 -168h135c13 0 24 -11 24 -24s-11 -24 -24 -24h-167c-13 0 -24 11 -24 24c0 117 165 117 165 192c0 23 -18 42 -56 42c-32 0 -45 -12 -57 -29c-4 -5 -9 -10 -19 -10c-13 0 -23 10 -23 23
c0 0 0 5 2 10z" />
    <glyph glyph-name="three.denominator" horiz-adv-x="259" 
d="M212 249l-68 -70c67 0 90 -48 90 -92c0 -59 -36 -100 -116 -100c-51 0 -85 28 -101 58c-3 6 -4 10 -4 14c0 13 10 23 23 23c10 0 16 -5 21 -13c13 -22 30 -34 61 -34c40 0 63 17 63 52c0 30 -18 48 -60 48h-22c-13 0 -24 11 -24 24c0 6 2 11 6 16l62 67h-93
c-14 0 -25 11 -25 25s11 25 25 25h144c14 0 25 -11 25 -25c0 -8 -2 -14 -7 -18z" />
    <glyph glyph-name="four.denominator" horiz-adv-x="260" 
d="M204 107h16c13 0 24 -11 24 -24s-11 -24 -24 -24h-16v-41c0 -14 -12 -26 -26 -26s-26 12 -26 26v41h-111c-13 0 -24 11 -24 24c0 6 2 11 6 16l134 187c5 6 11 11 21 11c14 0 26 -12 26 -26v-164zM85 107h67v96z" />
    <glyph glyph-name="five.denominator" horiz-adv-x="262" 
d="M125 189c60 0 112 -27 112 -101c0 -67 -45 -102 -112 -102c-56 0 -91 30 -107 57c-3 5 -5 9 -5 15c0 13 10 23 23 23c11 0 17 -6 22 -14c15 -24 33 -33 67 -33c39 0 59 23 59 54c0 32 -20 55 -59 55c-28 0 -41 -6 -58 -14c-7 -3 -12 -6 -19 -6c-13 0 -23 10 -23 23
c0 0 0 5 2 14l19 108c2 12 11 22 25 22h133c14 0 25 -11 25 -25s-11 -25 -25 -25h-114l-10 -59c9 4 24 8 45 8z" />
    <glyph glyph-name="six.denominator" horiz-adv-x="275" 
d="M146 186c58 0 104 -32 104 -96c0 -73 -49 -104 -110 -104c-85 0 -115 62 -115 149c0 115 52 162 122 162c33 0 61 -10 74 -21c6 -5 9 -11 9 -19c0 -13 -10 -23 -23 -23c-7 0 -10 2 -16 5c-16 8 -27 11 -44 11c-34 0 -72 -27 -72 -95c11 14 35 31 71 31zM140 33
c39 0 60 22 60 57c0 32 -26 51 -60 51c-24 0 -50 -14 -60 -42c0 -30 13 -66 60 -66z" />
    <glyph glyph-name="seven.denominator" horiz-adv-x="234" 
d="M50 17c0 129 116 177 116 225h-131c-14 0 -25 11 -25 25s11 25 25 25h161c14 0 25 -11 25 -25c0 -112 -119 -122 -119 -250c0 -15 -11 -27 -25 -27c-15 0 -27 12 -27 27z" />
    <glyph glyph-name="eight.denominator" horiz-adv-x="271" 
d="M135 -14c-73 0 -113 33 -113 95c0 33 14 58 48 73c-18 8 -37 28 -37 59c0 56 42 84 102 84s102 -28 102 -84c0 -31 -19 -51 -37 -59c34 -15 48 -40 48 -73c0 -62 -40 -95 -113 -95zM135 250c-40 0 -51 -17 -51 -37c0 -22 11 -38 51 -38s51 16 51 38c0 20 -11 37 -51 37z
M135 130c-40 0 -60 -19 -60 -49s19 -48 60 -48s60 18 60 48s-20 49 -60 49z" />
    <glyph glyph-name="nine.denominator" horiz-adv-x="275" 
d="M129 97c-58 0 -104 32 -104 96c0 73 49 104 110 104c85 0 115 -62 115 -149c0 -115 -52 -162 -122 -162c-33 0 -61 10 -74 21c-6 5 -9 11 -9 19c0 13 10 23 23 23c7 0 10 -2 16 -5c16 -8 27 -11 44 -11c34 0 72 27 72 95c-11 -14 -35 -31 -71 -31zM135 250
c-39 0 -60 -22 -60 -57c0 -32 26 -51 60 -51c24 0 50 14 60 42c0 30 -13 66 -60 66z" />
    <glyph glyph-name="thinspace" unicode="&#x2009;" horiz-adv-x="14" 
 />
    <glyph glyph-name="zerosuperior" unicode="&#x2070;" horiz-adv-x="298" 
d="M149 466c47 0 71 32 71 108s-24 109 -71 109s-71 -33 -71 -109s24 -108 71 -108zM149 419c-78 0 -124 44 -124 155s46 156 124 156s124 -45 124 -156s-46 -155 -124 -155z" />
    <glyph glyph-name="foursuperior" unicode="&#x2074;" horiz-adv-x="260" 
d="M204 537h16c13 0 24 -11 24 -24s-11 -24 -24 -24h-16v-41c0 -14 -12 -26 -26 -26s-26 12 -26 26v41h-111c-13 0 -24 11 -24 24c0 6 2 11 6 16l134 187c5 6 11 11 21 11c14 0 26 -12 26 -26v-164zM85 537h67v96z" />
    <glyph glyph-name="fivesuperior" unicode="&#x2075;" horiz-adv-x="261" 
d="M125 621c60 0 112 -27 112 -101c0 -67 -45 -102 -112 -102c-56 0 -91 30 -107 57c-3 5 -5 9 -5 15c0 13 10 23 23 23c11 0 17 -6 22 -14c15 -24 33 -33 67 -33c39 0 59 23 59 54c0 32 -20 55 -59 55c-28 0 -41 -6 -58 -14c-7 -3 -12 -6 -19 -6c-13 0 -23 10 -23 23
c0 0 0 5 2 14l19 108c2 12 11 22 25 22h133c14 0 25 -11 25 -25s-11 -25 -25 -25h-114l-10 -59c9 4 24 8 45 8z" />
    <glyph glyph-name="sixsuperior" unicode="&#x2076;" horiz-adv-x="275" 
d="M146 619c58 0 104 -32 104 -96c0 -73 -49 -104 -110 -104c-85 0 -115 62 -115 149c0 115 52 162 122 162c33 0 61 -10 74 -21c6 -5 9 -11 9 -19c0 -13 -10 -23 -23 -23c-7 0 -10 2 -16 5c-16 8 -27 11 -44 11c-34 0 -72 -27 -72 -95c11 14 35 31 71 31zM140 466
c39 0 60 22 60 57c0 32 -26 51 -60 51c-24 0 -50 -14 -60 -42c0 -30 13 -66 60 -66z" />
    <glyph glyph-name="sevensuperior" unicode="&#x2077;" horiz-adv-x="234" 
d="M50 447c0 129 116 177 116 225h-131c-14 0 -25 11 -25 25s11 25 25 25h161c14 0 25 -11 25 -25c0 -112 -119 -122 -119 -250c0 -15 -11 -27 -25 -27c-15 0 -27 12 -27 27z" />
    <glyph glyph-name="eightsuperior" unicode="&#x2078;" horiz-adv-x="271" 
d="M135 419c-73 0 -113 33 -113 95c0 33 14 58 48 73c-18 8 -37 28 -37 59c0 56 42 84 102 84s102 -28 102 -84c0 -31 -19 -51 -37 -59c34 -15 48 -40 48 -73c0 -62 -40 -95 -113 -95zM135 683c-40 0 -51 -17 -51 -37c0 -22 11 -38 51 -38s51 16 51 38c0 20 -11 37 -51 37z
M135 563c-40 0 -60 -19 -60 -49s19 -48 60 -48s60 18 60 48s-20 49 -60 49z" />
    <glyph glyph-name="ninesuperior" unicode="&#x2079;" horiz-adv-x="275" 
d="M129 530c-58 0 -104 32 -104 96c0 73 49 104 110 104c85 0 115 -62 115 -149c0 -115 -52 -162 -122 -162c-33 0 -61 10 -74 21c-6 5 -9 11 -9 19c0 13 10 23 23 23c7 0 10 -2 16 -5c16 -8 27 -11 44 -11c34 0 72 27 72 95c-11 -14 -35 -31 -71 -31zM135 683
c-39 0 -60 -22 -60 -57c0 -32 26 -51 60 -51c24 0 50 14 60 42c0 30 -13 66 -60 66z" />
    <glyph glyph-name="zeroinferior" unicode="&#x2080;" horiz-adv-x="298" 
d="M149 -10c47 0 71 32 71 108s-24 109 -71 109s-71 -33 -71 -109s24 -108 71 -108zM149 -57c-78 0 -124 44 -124 155s46 156 124 156s124 -45 124 -156s-46 -155 -124 -155z" />
    <glyph glyph-name="oneinferior" unicode="&#x2081;" horiz-adv-x="196" 
d="M99 182l-30 -21c-5 -4 -10 -7 -18 -7c-13 0 -25 12 -25 25c0 8 3 15 12 21l72 48c4 3 9 5 15 5c14 0 26 -12 26 -26v-253c0 -14 -12 -26 -26 -26s-26 12 -26 26v208z" />
    <glyph glyph-name="twoinferior" unicode="&#x2082;" horiz-adv-x="266" 
d="M35 201c14 34 50 53 97 53c65 0 108 -32 108 -89c0 -96 -161 -116 -161 -168h135c13 0 24 -11 24 -24s-11 -24 -24 -24h-167c-13 0 -24 11 -24 24c0 117 165 117 165 192c0 23 -18 42 -56 42c-32 0 -45 -12 -57 -29c-4 -5 -9 -10 -19 -10c-13 0 -23 10 -23 23
c0 0 0 5 2 10z" />
    <glyph glyph-name="threeinferior" unicode="&#x2083;" horiz-adv-x="257" 
d="M212 205l-68 -70c67 0 90 -48 90 -92c0 -59 -36 -100 -116 -100c-51 0 -85 28 -101 58c-3 6 -4 10 -4 14c0 13 10 23 23 23c10 0 16 -5 21 -13c13 -22 30 -34 61 -34c40 0 63 17 63 52c0 30 -18 48 -60 48h-22c-13 0 -24 11 -24 24c0 6 2 11 6 16l62 67h-93
c-14 0 -25 11 -25 25s11 25 25 25h144c14 0 25 -11 25 -25c0 -8 -2 -14 -7 -18z" />
    <glyph glyph-name="fourinferior" unicode="&#x2084;" horiz-adv-x="260" 
d="M204 63h16c13 0 24 -11 24 -24s-11 -24 -24 -24h-16v-41c0 -14 -12 -26 -26 -26s-26 12 -26 26v41h-111c-13 0 -24 11 -24 24c0 6 2 11 6 16l134 187c5 6 11 11 21 11c14 0 26 -12 26 -26v-164zM85 63h67v96z" />
    <glyph glyph-name="fiveinferior" unicode="&#x2085;" horiz-adv-x="262" 
d="M125 145c60 0 112 -27 112 -101c0 -67 -45 -102 -112 -102c-56 0 -91 30 -107 57c-3 5 -5 9 -5 15c0 13 10 23 23 23c11 0 17 -6 22 -14c15 -24 33 -33 67 -33c39 0 59 23 59 54c0 32 -20 55 -59 55c-28 0 -41 -6 -58 -14c-7 -3 -12 -6 -19 -6c-13 0 -23 10 -23 23
c0 0 0 5 2 14l19 108c2 12 11 22 25 22h133c14 0 25 -11 25 -25s-11 -25 -25 -25h-114l-10 -59c9 4 24 8 45 8z" />
    <glyph glyph-name="sixinferior" unicode="&#x2086;" horiz-adv-x="275" 
d="M146 143c58 0 104 -32 104 -96c0 -73 -49 -104 -110 -104c-85 0 -115 62 -115 149c0 115 52 162 122 162c33 0 61 -10 74 -21c6 -5 9 -11 9 -19c0 -13 -10 -23 -23 -23c-7 0 -10 2 -16 5c-16 8 -27 11 -44 11c-34 0 -72 -27 -72 -95c11 14 35 31 71 31zM140 -10
c39 0 60 22 60 57c0 32 -26 51 -60 51c-24 0 -50 -14 -60 -42c0 -30 13 -66 60 -66z" />
    <glyph glyph-name="seveninferior" unicode="&#x2087;" horiz-adv-x="234" 
d="M50 -27c0 129 116 177 116 225h-131c-14 0 -25 11 -25 25s11 25 25 25h161c14 0 25 -11 25 -25c0 -112 -119 -122 -119 -250c0 -15 -11 -27 -25 -27c-15 0 -27 12 -27 27z" />
    <glyph glyph-name="eightinferior" unicode="&#x2088;" horiz-adv-x="271" 
d="M135 -57c-73 0 -113 33 -113 95c0 33 14 58 48 73c-18 8 -37 28 -37 59c0 56 42 84 102 84s102 -28 102 -84c0 -31 -19 -51 -37 -59c34 -15 48 -40 48 -73c0 -62 -40 -95 -113 -95zM135 207c-40 0 -51 -17 -51 -37c0 -22 11 -38 51 -38s51 16 51 38c0 20 -11 37 -51 37z
M135 87c-40 0 -60 -19 -60 -49s19 -48 60 -48s60 18 60 48s-20 49 -60 49z" />
    <glyph glyph-name="nineinferior" unicode="&#x2089;" horiz-adv-x="275" 
d="M129 54c-58 0 -104 32 -104 96c0 73 49 104 110 104c85 0 115 -62 115 -149c0 -115 -52 -162 -122 -162c-33 0 -61 10 -74 21c-6 5 -9 11 -9 19c0 13 10 23 23 23c7 0 10 -2 16 -5c16 -8 27 -11 44 -11c34 0 72 27 72 95c-11 -14 -35 -31 -71 -31zM135 207
c-39 0 -60 -22 -60 -57c0 -32 26 -51 60 -51c24 0 50 14 60 42c0 30 -13 66 -60 66z" />
    <glyph glyph-name="AEmacron" unicode="&#x1e2;" horiz-adv-x="841" 
d="M769 0h-332c-19 0 -34 15 -34 34v165h-211l-119 -191c-7 -12 -19 -16 -29 -16c-19 0 -35 16 -35 35c0 6 2 12 7 20l392 610c8 12 19 16 29 16h321c17 0 31 -14 31 -31s-14 -31 -31 -31h-287v-241h220c17 0 31 -14 31 -31s-14 -31 -31 -31h-220v-246h298
c17 0 31 -14 31 -31s-14 -31 -31 -31zM228 261h175v280zM653 766c0 -14 -11 -25 -25 -25h-186c-14 0 -25 11 -25 25s11 25 25 25h186c14 0 25 -11 25 -25z" />
    <glyph glyph-name="aemacron" unicode="&#x1e3;" horiz-adv-x="778" 
d="M232 408c-53 0 -81 -14 -116 -51c-10 -11 -17 -14 -26 -14c-16 0 -29 13 -29 29c0 7 2 12 5 17c28 44 82 79 166 79c76 0 131 -30 158 -80c34 52 89 80 163 80c160 0 191 -125 191 -193c0 -29 0 -64 -40 -64h-292c0 -99 57 -165 151 -165c58 0 92 22 120 43
c6 4 10 6 18 6c16 0 29 -13 29 -29c0 -11 -5 -17 -11 -23c-15 -15 -67 -56 -156 -56c-87 0 -153 32 -179 99c-25 -50 -75 -99 -177 -99c-106 0 -173 51 -173 143c0 88 67 137 175 137h141v31c0 68 -45 110 -118 110zM213 45c70 0 137 43 137 128v38h-141
c-65 0 -110 -23 -110 -81c0 -52 36 -85 114 -85zM681 267c0 72 -25 143 -128 143c-87 0 -135 -54 -141 -143h269zM508 580c0 -14 -11 -25 -25 -25h-186c-14 0 -25 11 -25 25s11 25 25 25h186c14 0 25 -11 25 -25z" />
    <glyph glyph-name="a.salt" horiz-adv-x="500" 
d="M445 430v-406c0 -18 -14 -32 -32 -32s-32 14 -32 32v28c-29 -34 -76 -65 -141 -65c-129 0 -205 77 -205 241s76 240 205 240c64 0 111 -27 141 -62v24c0 18 14 32 32 32s32 -14 32 -32zM240 45c91 0 143 62 143 183c0 123 -47 182 -143 182c-92 0 -140 -59 -140 -182
c0 -125 48 -183 140 -183z" />
    <glyph glyph-name="aacute.salt" horiz-adv-x="500" 
d="M445 430v-406c0 -18 -14 -32 -32 -32s-32 14 -32 32v28c-29 -34 -76 -65 -141 -65c-129 0 -205 77 -205 241s76 240 205 240c64 0 111 -27 141 -62v24c0 18 14 32 32 32s32 -14 32 -32zM240 45c91 0 143 62 143 183c0 123 -47 182 -143 182c-92 0 -140 -59 -140 -182
c0 -125 48 -183 140 -183zM199 520c-12 10 -10 21 -3 30l89 108c8 10 22 14 38 0c15 -14 14 -27 3 -38l-97 -98c-9 -9 -18 -12 -30 -2z" />
    <glyph glyph-name="abreve.salt" horiz-adv-x="500" 
d="M445 430v-406c0 -18 -14 -32 -32 -32s-32 14 -32 32v28c-29 -34 -76 -65 -141 -65c-129 0 -205 77 -205 241s76 240 205 240c64 0 111 -27 141 -62v24c0 18 14 32 32 32s32 -14 32 -32zM240 45c91 0 143 62 143 183c0 123 -47 182 -143 182c-92 0 -140 -59 -140 -182
c0 -125 48 -183 140 -183zM251 529c-60 0 -113 29 -113 101c0 13 11 24 24 24s24 -11 24 -24c0 -37 22 -55 65 -55s65 18 65 55c0 13 11 24 24 24s24 -11 24 -24c0 -72 -53 -101 -113 -101z" />
    <glyph glyph-name="acircumflex.salt" horiz-adv-x="500" 
d="M445 430v-406c0 -18 -14 -32 -32 -32s-32 14 -32 32v28c-29 -34 -76 -65 -141 -65c-129 0 -205 77 -205 241s76 240 205 240c64 0 111 -27 141 -62v24c0 18 14 32 32 32s32 -14 32 -32zM240 45c91 0 143 62 143 183c0 123 -47 182 -143 182c-92 0 -140 -59 -140 -182
c0 -125 48 -183 140 -183zM330 528l-81 68l-81 -68c-2 -2 -7 -6 -16 -6c-13 0 -24 11 -24 24c0 8 3 14 9 19l96 79c4 3 8 6 16 6s12 -3 16 -6l96 -79c6 -5 9 -11 9 -19c0 -13 -11 -24 -24 -24c-9 0 -14 4 -16 6z" />
    <glyph glyph-name="adieresis.salt" horiz-adv-x="500" 
d="M445 430v-406c0 -18 -14 -32 -32 -32s-32 14 -32 32v28c-29 -34 -76 -65 -141 -65c-129 0 -205 77 -205 241s76 240 205 240c64 0 111 -27 141 -62v24c0 18 14 32 32 32s32 -14 32 -32zM240 45c91 0 143 62 143 183c0 123 -47 182 -143 182c-92 0 -140 -59 -140 -182
c0 -125 48 -183 140 -183zM167 534c-24 0 -36 12 -36 37s12 38 36 38s36 -13 36 -38s-12 -37 -36 -37zM324 534c-24 0 -36 12 -36 37s12 38 36 38s36 -13 36 -38s-12 -37 -36 -37z" />
    <glyph glyph-name="agrave.salt" horiz-adv-x="500" 
d="M445 430v-406c0 -18 -14 -32 -32 -32s-32 14 -32 32v28c-29 -34 -76 -65 -141 -65c-129 0 -205 77 -205 241s76 240 205 240c64 0 111 -27 141 -62v24c0 18 14 32 32 32s32 -14 32 -32zM240 45c91 0 143 62 143 183c0 123 -47 182 -143 182c-92 0 -140 -59 -140 -182
c0 -125 48 -183 140 -183zM295 520c-12 -10 -21 -7 -30 2l-97 98c-11 11 -12 24 3 38c16 14 30 10 38 0l89 -108c7 -9 9 -20 -3 -30z" />
    <glyph glyph-name="amacron.salt" horiz-adv-x="500" 
d="M445 430v-406c0 -18 -14 -32 -32 -32s-32 14 -32 32v28c-29 -34 -76 -65 -141 -65c-129 0 -205 77 -205 241s76 240 205 240c64 0 111 -27 141 -62v24c0 18 14 32 32 32s32 -14 32 -32zM240 45c91 0 143 62 143 183c0 123 -47 182 -143 182c-92 0 -140 -59 -140 -182
c0 -125 48 -183 140 -183zM362 562c0 -14 -11 -25 -25 -25h-186c-14 0 -25 11 -25 25s11 25 25 25h186c14 0 25 -11 25 -25z" />
    <glyph glyph-name="aogonek.salt" horiz-adv-x="500" 
d="M445 430v-406c0 -15 -10 -27 -24 -31c-47 -22 -83 -53 -83 -93c0 -22 17 -37 41 -37c12 0 17 1 26 3c8 2 14 4 18 4c12 0 22 -10 22 -22c0 -10 -6 -17 -13 -20c-17 -8 -34 -11 -55 -11c-54 0 -89 23 -89 75c0 42 34 83 101 110c-5 6 -8 13 -8 22v28
c-29 -34 -76 -65 -141 -65c-129 0 -205 77 -205 241s76 240 205 240c64 0 111 -27 141 -62v24c0 18 14 32 32 32s32 -14 32 -32zM240 45c91 0 143 62 143 183c0 123 -47 182 -143 182c-92 0 -140 -59 -140 -182c0 -125 48 -183 140 -183z" />
    <glyph glyph-name="aring.salt" horiz-adv-x="500" 
d="M445 430v-406c0 -18 -14 -32 -32 -32s-32 14 -32 32v28c-29 -34 -76 -65 -141 -65c-129 0 -205 77 -205 241s76 240 205 240c64 0 111 -27 141 -62v24c0 18 14 32 32 32s32 -14 32 -32zM240 45c91 0 143 62 143 183c0 123 -47 182 -143 182c-92 0 -140 -59 -140 -182
c0 -125 48 -183 140 -183zM249 502c-71 0 -104 37 -104 98s33 98 104 98s104 -37 104 -98s-33 -98 -104 -98zM249 660c-46 0 -62 -20 -62 -60c0 -39 16 -60 62 -60s62 21 62 60c0 40 -16 60 -62 60z" />
    <glyph glyph-name="aringacute.salt" horiz-adv-x="500" 
d="M445 430v-406c0 -18 -14 -32 -32 -32s-32 14 -32 32v28c-29 -34 -76 -65 -141 -65c-129 0 -205 77 -205 241s76 240 205 240c64 0 111 -27 141 -62v24c0 18 14 32 32 32s32 -14 32 -32zM240 45c91 0 143 62 143 183c0 123 -47 182 -143 182c-92 0 -140 -59 -140 -182
c0 -125 48 -183 140 -183zM191 724c-12 10 -10 21 -3 30l89 108c8 10 22 14 38 0c15 -14 14 -27 3 -38l-97 -98c-9 -9 -18 -12 -30 -2zM250 502c-71 0 -104 37 -104 98s33 98 104 98s104 -37 104 -98s-33 -98 -104 -98zM250 660c-46 0 -62 -20 -62 -60c0 -39 16 -60 62 -60
s62 21 62 60c0 40 -16 60 -62 60z" />
    <glyph glyph-name="atilde.salt" horiz-adv-x="500" 
d="M445 430v-406c0 -18 -14 -32 -32 -32s-32 14 -32 32v28c-29 -34 -76 -65 -141 -65c-129 0 -205 77 -205 241s76 240 205 240c64 0 111 -27 141 -62v24c0 18 14 32 32 32s32 -14 32 -32zM240 45c91 0 143 62 143 183c0 123 -47 182 -143 182c-92 0 -140 -59 -140 -182
c0 -125 48 -183 140 -183zM192 617c49 0 77 -39 118 -39c21 0 32 9 46 28c3 4 9 11 20 11c13 0 24 -11 24 -24c0 -3 -1 -8 -3 -12c-13 -26 -41 -52 -87 -52c-50 0 -76 39 -118 39c-21 0 -32 -9 -46 -28c-3 -4 -9 -11 -20 -11c-13 0 -24 11 -24 24c0 3 1 8 3 12
c13 26 41 52 87 52z" />
    <glyph glyph-name="AE" unicode="&#xc6;" horiz-adv-x="841" 
d="M769 0h-332c-19 0 -34 15 -34 34v165h-211l-119 -191c-7 -12 -19 -16 -29 -16c-19 0 -35 16 -35 35c0 6 2 12 7 20l392 610c8 12 19 16 29 16h321c17 0 31 -14 31 -31s-14 -31 -31 -31h-287v-241h220c17 0 31 -14 31 -31s-14 -31 -31 -31h-220v-246h298
c17 0 31 -14 31 -31s-14 -31 -31 -31zM228 261h175v280z" />
    <glyph glyph-name="Amacron" unicode="&#x100;" horiz-adv-x="613" 
d="M425 261l-119 306l-118 -306h237zM446 199h-279l-73 -183c-5 -13 -16 -24 -33 -24c-19 0 -34 16 -34 34c0 4 1 11 3 15l244 617c5 12 14 23 32 23c17 0 28 -11 33 -23l244 -617c2 -5 3 -12 3 -15c0 -18 -14 -34 -35 -34c-17 0 -28 10 -33 23zM424 758
c0 -14 -11 -25 -25 -25h-186c-14 0 -25 11 -25 25s11 25 25 25h186c14 0 25 -11 25 -25z" />
    <glyph glyph-name="amacron" unicode="&#x101;" horiz-adv-x="467" 
d="M232 408c-53 0 -85 -16 -116 -51c-10 -11 -17 -14 -26 -14c-16 0 -29 13 -29 29c0 7 2 12 5 17c28 44 82 79 166 79c116 0 180 -68 180 -170v-275c0 -17 -14 -31 -31 -31s-31 14 -31 31v36c-25 -47 -83 -72 -143 -72c-106 0 -173 51 -173 143c0 88 67 141 175 141h141v27
c0 68 -45 110 -118 110zM213 45c70 0 137 43 137 128v42h-141c-65 0 -110 -27 -110 -85c0 -52 36 -85 114 -85zM356 562c0 -14 -11 -25 -25 -25h-186c-14 0 -25 11 -25 25s11 25 25 25h186c14 0 25 -11 25 -25z" />
    <glyph glyph-name="Abreve" unicode="&#x102;" horiz-adv-x="613" 
d="M425 261l-119 306l-118 -306h237zM446 199h-279l-73 -183c-5 -13 -16 -24 -33 -24c-19 0 -34 16 -34 34c0 4 1 11 3 15l244 617c5 12 14 23 32 23c17 0 28 -11 33 -23l244 -617c2 -5 3 -12 3 -15c0 -18 -14 -34 -35 -34c-17 0 -28 10 -33 23zM306 730
c-60 0 -113 29 -113 101c0 13 11 24 24 24s24 -11 24 -24c0 -37 22 -55 65 -55s65 18 65 55c0 13 11 24 24 24s24 -11 24 -24c0 -72 -53 -101 -113 -101z" />
    <glyph glyph-name="abreve" unicode="&#x103;" horiz-adv-x="467" 
d="M232 408c-53 0 -85 -16 -116 -51c-10 -11 -17 -14 -26 -14c-16 0 -29 13 -29 29c0 7 2 12 5 17c28 44 82 79 166 79c116 0 180 -68 180 -170v-275c0 -17 -14 -31 -31 -31s-31 14 -31 31v36c-25 -47 -83 -72 -143 -72c-106 0 -173 51 -173 143c0 88 67 141 175 141h141v27
c0 68 -45 110 -118 110zM213 45c70 0 137 43 137 128v42h-141c-65 0 -110 -27 -110 -85c0 -52 36 -85 114 -85zM235 529c-60 0 -113 29 -113 101c0 13 11 24 24 24s24 -11 24 -24c0 -37 22 -55 65 -55s65 18 65 55c0 13 11 24 24 24s24 -11 24 -24c0 -72 -53 -101 -113 -101
z" />
    <glyph glyph-name="currency" unicode="&#xa4;" horiz-adv-x="467" 
d="M235 126c-41 0 -79 13 -108 35l-46 -46c-6 -6 -13 -10 -22 -10c-17 0 -30 14 -30 31c0 8 3 16 10 23l45 47c-20 30 -31 66 -31 106c0 38 14 79 32 108l-47 48c-6 7 -9 14 -9 22c0 17 13 31 30 31c9 0 16 -4 22 -10l46 -48c28 19 70 35 108 35c40 0 78 -13 106 -33l45 46
c6 7 13 10 22 10c17 0 31 -14 31 -31c0 -8 -4 -16 -11 -23l-45 -46c21 -31 32 -68 32 -109c0 -38 -14 -79 -32 -107l45 -46c6 -7 11 -15 11 -23c0 -17 -14 -31 -31 -31c-9 0 -16 3 -22 10l-44 45c-29 -22 -66 -34 -107 -34zM235 187c70 0 117 56 117 125s-47 125 -117 125
c-69 0 -119 -56 -119 -125s50 -125 119 -125z" />
    <glyph glyph-name="Eth" unicode="&#xd0;" horiz-adv-x="609" 
d="M114 673h141c192 0 310 -90 310 -337s-118 -336 -310 -336h-141c-19 0 -34 15 -34 34v283h-31c-17 0 -31 14 -31 31s14 31 31 31h31v260c0 19 15 34 34 34zM373 348c0 -17 -15 -31 -32 -31h-193v-253h107c149 0 242 64 242 272c0 206 -93 273 -242 273h-107v-230h193
c17 0 32 -14 32 -31z" />
    <glyph glyph-name="c_t" horiz-adv-x="711" 
d="M522 454v42c0 76 -27 137 -115 137c-64 0 -98 -36 -98 -82c0 -65 45 -103 86 -152c5 -6 7 -12 7 -19c0 -17 -13 -29 -29 -29c-10 0 -17 4 -24 12c-15 17 -42 47 -108 47c-92 0 -141 -59 -141 -182c0 -125 49 -183 141 -183c58 0 93 26 116 43c7 5 12 7 19 7
c16 0 29 -13 29 -29c0 -9 -3 -16 -13 -25c-22 -18 -70 -54 -151 -54c-129 0 -206 77 -206 241s77 240 206 240c32 0 60 -6 84 -17c-32 29 -57 72 -57 121c0 70 61 115 141 115c126 0 177 -82 177 -189v-44h65c17 0 30 -13 30 -30s-13 -30 -30 -30h-65v-276
c0 -43 24 -66 58 -66c17 0 31 -13 31 -30s-14 -30 -31 -30c-79 0 -122 53 -122 126v276h-39c-17 0 -30 13 -30 30s13 30 30 30h39z" />
    <glyph glyph-name="Gcircumflex" unicode="&#x11c;" horiz-adv-x="663" 
d="M356 48c93 0 153 39 186 80v145h-167c-17 0 -31 14 -31 31s14 31 31 31h202c16 0 31 -14 31 -31v-175c0 -12 -4 -22 -13 -33c-48 -56 -118 -110 -239 -110c-194 0 -312 104 -312 350c0 237 118 351 312 351c95 0 178 -41 225 -106c5 -7 7 -14 7 -21
c0 -18 -14 -32 -32 -32c-9 0 -18 3 -26 13c-34 47 -98 84 -174 84c-154 0 -242 -93 -242 -289c0 -208 88 -288 242 -288zM438 725l-81 68l-81 -68c-2 -2 -7 -6 -16 -6c-13 0 -24 11 -24 24c0 8 3 14 9 19l96 79c4 3 8 6 16 6s12 -3 16 -6l96 -79c6 -5 9 -11 9 -19
c0 -13 -11 -24 -24 -24c-9 0 -14 4 -16 6z" />
    <glyph glyph-name="oslashacute" unicode="&#x1ff;" horiz-adv-x="490" 
d="M245 468c58 0 107 -16 142 -48l37 40c5 5 11 8 19 8c14 0 26 -12 26 -26c0 -7 -3 -14 -8 -19l-41 -43c23 -38 35 -89 35 -152c0 -164 -80 -241 -210 -241c-60 0 -109 16 -145 50l-36 -38c-4 -4 -10 -7 -18 -7c-14 0 -26 12 -26 26c0 8 4 15 8 19l39 42
c-21 38 -32 87 -32 149c0 164 81 240 210 240zM245 45c92 0 145 55 145 183c0 41 -6 75 -17 101l-230 -246c24 -26 59 -38 102 -38zM100 228c0 -40 5 -72 15 -98l229 244c-25 24 -58 36 -99 36c-92 0 -145 -56 -145 -182zM200 520c-12 10 -10 21 -3 30l89 108
c8 10 22 14 38 0c15 -14 14 -27 3 -38l-97 -98c-9 -9 -18 -12 -30 -2z" />
    <glyph glyph-name="dotlessj" unicode="&#x237;" horiz-adv-x="194" 
d="M65 -35v465c0 18 14 32 32 32s32 -14 32 -32v-465c0 -84 -61 -150 -146 -150c-17 0 -30 13 -30 30s13 30 30 30c48 0 82 40 82 90z" />
    <glyph glyph-name="itilde" unicode="&#x129;" horiz-adv-x="193" 
d="M36 617c49 0 77 -39 118 -39c21 0 32 9 46 28c3 4 9 11 20 11c13 0 24 -11 24 -24c0 -3 -1 -8 -3 -12c-13 -26 -41 -52 -87 -52c-50 0 -76 39 -118 39c-21 0 -32 -9 -46 -28c-3 -4 -9 -11 -20 -11c-13 0 -24 11 -24 24c0 3 1 8 3 12c13 26 41 52 87 52zM128 430v-406
c0 -18 -14 -32 -32 -32s-32 14 -32 32v406c0 18 14 32 32 32s32 -14 32 -32z" />
    <glyph glyph-name="imacron" unicode="&#x12b;" horiz-adv-x="193" 
d="M214 562c0 -14 -11 -25 -25 -25h-186c-14 0 -25 11 -25 25s11 25 25 25h186c14 0 25 -11 25 -25zM128 430v-406c0 -18 -14 -32 -32 -32s-32 14 -32 32v406c0 18 14 32 32 32s32 -14 32 -32z" />
    <glyph glyph-name="ibreve" unicode="&#x12d;" horiz-adv-x="193" 
d="M96 529c-60 0 -113 29 -113 101c0 13 11 24 24 24s24 -11 24 -24c0 -37 22 -55 65 -55s65 18 65 55c0 13 11 24 24 24s24 -11 24 -24c0 -72 -53 -101 -113 -101zM128 430v-406c0 -18 -14 -32 -32 -32s-32 14 -32 32v406c0 18 14 32 32 32s32 -14 32 -32z" />
    <glyph glyph-name="IJ" unicode="&#x132;" horiz-adv-x="616" 
d="M148 647v-621c0 -18 -15 -34 -34 -34s-34 16 -34 34v621c0 18 15 34 34 34s34 -16 34 -34zM238 10c-12 7 -19 17 -19 30c0 18 15 33 33 33c8 0 11 -2 20 -6c24 -12 47 -16 74 -16c88 0 122 64 122 152v444c0 18 15 34 34 34s34 -16 34 -34v-444
c0 -122 -51 -216 -190 -216c-38 0 -82 8 -108 23z" />
    <glyph glyph-name="ij" unicode="&#x133;" horiz-adv-x="378" 
d="M129 430v-406c0 -18 -14 -32 -32 -32s-32 14 -32 32v406c0 18 14 32 32 32s32 -14 32 -32zM97 556c-24 0 -38 14 -38 38c0 29 14 40 38 40s38 -11 38 -40c0 -24 -14 -38 -38 -38zM249 -35v465c0 18 14 32 32 32s32 -14 32 -32v-465c0 -84 -61 -150 -146 -150
c-17 0 -30 13 -30 30s13 30 30 30c48 0 82 40 82 90zM281 556c-24 0 -38 14 -38 38c0 29 14 40 38 40s38 -11 38 -40c0 -24 -14 -38 -38 -38z" />
    <glyph glyph-name="jcircumflex" unicode="&#x135;" horiz-adv-x="194" 
d="M65 -35v465c0 18 14 32 32 32s32 -14 32 -32v-465c0 -84 -61 -150 -146 -150c-17 0 -30 13 -30 30s13 30 30 30c48 0 82 40 82 90zM175 528l-81 68l-81 -68c-2 -2 -7 -6 -16 -6c-13 0 -24 11 -24 24c0 8 3 14 9 19l96 79c4 3 8 6 16 6s12 -3 16 -6l96 -79
c6 -5 9 -11 9 -19c0 -13 -11 -24 -24 -24c-9 0 -14 4 -16 6z" />
    <glyph glyph-name="wdieresis" unicode="&#x1e85;" horiz-adv-x="640" 
d="M412 15l-92 317l-92 -317c-4 -14 -17 -23 -31 -23s-25 8 -30 21l-147 403c-2 5 -3 10 -3 14c0 18 14 32 32 32c14 0 25 -8 30 -21l116 -331l95 331c3 10 13 21 30 21s27 -11 30 -21l95 -331l116 331c5 13 16 21 30 21c18 0 32 -14 32 -32c0 -4 -1 -9 -3 -14l-147 -403
c-5 -13 -16 -21 -30 -21s-27 9 -31 23zM242 534c-24 0 -36 12 -36 37s12 38 36 38s36 -13 36 -38s-12 -37 -36 -37zM399 534c-24 0 -36 12 -36 37s12 38 36 38s36 -13 36 -38s-12 -37 -36 -37z" />
    <glyph glyph-name="wacute" unicode="&#x1e83;" horiz-adv-x="640" 
d="M412 15l-92 317l-92 -317c-4 -14 -17 -23 -31 -23s-25 8 -30 21l-147 403c-2 5 -3 10 -3 14c0 18 14 32 32 32c14 0 25 -8 30 -21l116 -331l95 331c3 10 13 21 30 21s27 -11 30 -21l95 -331l116 331c5 13 16 21 30 21c18 0 32 -14 32 -32c0 -4 -1 -9 -3 -14l-147 -403
c-5 -13 -16 -21 -30 -21s-27 9 -31 23zM269 520c-12 10 -10 21 -3 30l89 108c8 10 22 14 38 0c15 -14 14 -27 3 -38l-97 -98c-9 -9 -18 -12 -30 -2z" />
    <glyph glyph-name="Wgrave" unicode="&#x1e80;" horiz-adv-x="818" 
d="M553 18l-144 509l-144 -509c-4 -16 -17 -26 -33 -26c-15 0 -29 10 -33 25l-177 618c-1 4 -2 8 -2 12c0 19 15 34 34 34s30 -14 33 -25l146 -517l143 517c4 16 18 25 33 25s29 -9 33 -25l143 -517l146 517c3 11 14 25 33 25s34 -15 34 -34c0 -4 -1 -8 -2 -12l-177 -618
c-4 -15 -18 -25 -33 -25c-16 0 -29 10 -33 26zM476 724c-12 -10 -21 -7 -30 2l-97 98c-11 11 -12 24 3 38c16 14 30 10 38 0l89 -108c7 -9 9 -20 -3 -30z" />
    <glyph glyph-name="wgrave" unicode="&#x1e81;" horiz-adv-x="640" 
d="M412 15l-92 317l-92 -317c-4 -14 -17 -23 -31 -23s-25 8 -30 21l-147 403c-2 5 -3 10 -3 14c0 18 14 32 32 32c14 0 25 -8 30 -21l116 -331l95 331c3 10 13 21 30 21s27 -11 30 -21l95 -331l116 331c5 13 16 21 30 21c18 0 32 -14 32 -32c0 -4 -1 -9 -3 -14l-147 -403
c-5 -13 -16 -21 -30 -21s-27 9 -31 23zM392 520c-12 -10 -21 -7 -30 2l-97 98c-11 11 -12 24 3 38c16 14 30 10 38 0l89 -108c7 -9 9 -20 -3 -30z" />
    <glyph glyph-name="Wacute" unicode="&#x1e82;" horiz-adv-x="818" 
d="M553 18l-144 509l-144 -509c-4 -16 -17 -26 -33 -26c-15 0 -29 10 -33 25l-177 618c-1 4 -2 8 -2 12c0 19 15 34 34 34s30 -14 33 -25l146 -517l143 517c4 16 18 25 33 25s29 -9 33 -25l143 -517l146 517c3 11 14 25 33 25s34 -15 34 -34c0 -4 -1 -8 -2 -12l-177 -618
c-4 -15 -18 -25 -33 -25c-16 0 -29 10 -33 26zM350 724c-12 10 -10 21 -3 30l89 108c8 10 22 14 38 0c15 -14 14 -27 3 -38l-97 -98c-9 -9 -18 -12 -30 -2z" />
    <glyph glyph-name="Scommaaccent" unicode="&#x218;" horiz-adv-x="558" 
d="M443 546c-30 37 -78 79 -162 79c-105 0 -145 -52 -145 -109c0 -166 378 -95 378 -336c0 -125 -86 -194 -240 -194c-114 0 -199 58 -233 123c-4 8 -5 12 -5 18c0 18 14 32 32 32c12 0 22 -6 28 -16c32 -52 90 -95 178 -95c110 0 172 44 172 132c0 187 -378 99 -378 336
c0 92 67 171 213 171c95 0 172 -40 214 -103c4 -6 6 -12 6 -19c0 -18 -14 -32 -32 -32c-9 0 -18 3 -26 13zM327 -100c0 -36 -18 -99 -46 -135c-3 -3 -6 -6 -13 -6c-8 0 -16 8 -13 19c8 25 11 41 11 55c0 37 -18 51 -18 78c0 33 15 47 39 47c31 0 40 -18 40 -58z" />
    <glyph glyph-name="scommaaccent" unicode="&#x219;" horiz-adv-x="424" 
d="M207 406c-45 0 -89 -14 -89 -60c0 -105 263 -66 263 -226c0 -91 -75 -132 -170 -132c-82 0 -145 39 -171 72c-5 7 -7 12 -7 19c0 16 13 29 29 29c6 0 14 -2 22 -10c31 -31 71 -49 127 -49c57 0 106 19 106 71c0 103 -263 62 -263 226c0 83 68 121 153 121
c68 0 121 -23 152 -64c3 -4 7 -10 7 -19c0 -16 -13 -29 -29 -29c-5 0 -13 1 -21 9c-27 26 -57 42 -109 42zM249 -100c0 -36 -18 -99 -46 -135c-3 -3 -6 -6 -13 -6c-8 0 -16 8 -13 19c8 25 11 41 11 55c0 37 -18 51 -18 78c0 33 15 47 39 47c31 0 40 -18 40 -58z" />
    <glyph glyph-name="Lcaron" unicode="&#x13d;" horiz-adv-x="483" 
d="M361 623c0 -36 -18 -99 -46 -135c-3 -3 -6 -6 -13 -6c-8 0 -16 8 -13 19c8 25 11 41 11 55c0 37 -18 51 -18 78c0 33 15 47 39 47c31 0 40 -18 40 -58zM148 64h274c18 0 32 -14 32 -32s-14 -32 -32 -32h-308c-19 0 -34 15 -34 34v613c0 19 15 34 34 34s34 -15 34 -34
v-583z" />
    <glyph glyph-name="zcaron" unicode="&#x17e;" horiz-adv-x="405" 
d="M38 424c0 17 13 30 30 30h274c17 0 30 -13 30 -30c0 -9 -4 -16 -7 -20l-249 -342h231c17 0 31 -14 31 -31s-14 -31 -31 -31h-293c-17 0 -30 13 -30 30c0 9 3 15 7 20l252 344h-215c-17 0 -30 13 -30 30zM212 553l81 68c2 2 7 6 16 6c13 0 24 -11 24 -24
c0 -8 -3 -14 -9 -19l-96 -79c-4 -3 -8 -6 -16 -6s-12 3 -16 6l-96 79c-6 5 -9 11 -9 19c0 13 11 24 24 24c9 0 14 -4 16 -6z" />
    <glyph glyph-name="Zcaron" unicode="&#x17d;" horiz-adv-x="513" 
d="M469 0h-420c-18 0 -32 14 -32 32c0 7 2 13 6 19l372 558h-325c-18 0 -32 14 -32 32s14 32 32 32h384c18 0 32 -14 32 -32c0 -7 -2 -13 -6 -19l-369 -558h358c18 0 32 -14 32 -32s-14 -32 -32 -32zM270 773l81 68c2 2 7 6 16 6c13 0 24 -11 24 -24c0 -8 -3 -14 -9 -19
l-96 -79c-4 -3 -8 -6 -16 -6s-12 3 -16 6l-96 79c-6 5 -9 11 -9 19c0 13 11 24 24 24c9 0 14 -4 16 -6z" />
    <glyph glyph-name="zdotaccent" unicode="&#x17c;" horiz-adv-x="405" 
d="M38 424c0 17 13 30 30 30h274c17 0 30 -13 30 -30c0 -9 -4 -16 -7 -20l-249 -342h231c17 0 31 -14 31 -31s-14 -31 -31 -31h-293c-17 0 -30 13 -30 30c0 9 3 15 7 20l252 344h-215c-17 0 -30 13 -30 30zM209 544c-25 0 -38 12 -38 39c0 28 13 40 38 40s38 -12 38 -40
c0 -27 -13 -39 -38 -39z" />
    <glyph glyph-name="Zdotaccent" unicode="&#x17b;" horiz-adv-x="513" 
d="M469 0h-420c-18 0 -32 14 -32 32c0 7 2 13 6 19l372 558h-325c-18 0 -32 14 -32 32s14 32 32 32h384c18 0 32 -14 32 -32c0 -7 -2 -13 -6 -19l-369 -558h358c18 0 32 -14 32 -32s-14 -32 -32 -32zM260 736c-25 0 -38 12 -38 39c0 28 13 40 38 40s38 -12 38 -40
c0 -27 -13 -39 -38 -39z" />
    <glyph glyph-name="zacute" unicode="&#x17a;" horiz-adv-x="405" 
d="M38 424c0 17 13 30 30 30h274c17 0 30 -13 30 -30c0 -9 -4 -16 -7 -20l-249 -342h231c17 0 31 -14 31 -31s-14 -31 -31 -31h-293c-17 0 -30 13 -30 30c0 9 3 15 7 20l252 344h-215c-17 0 -30 13 -30 30zM151 520c-12 10 -10 21 -3 30l89 108c8 10 22 14 38 0
c15 -14 14 -27 3 -38l-97 -98c-9 -9 -18 -12 -30 -2z" />
    <glyph glyph-name="Zacute" unicode="&#x179;" horiz-adv-x="513" 
d="M469 0h-420c-18 0 -32 14 -32 32c0 7 2 13 6 19l372 558h-325c-18 0 -32 14 -32 32s14 32 32 32h384c18 0 32 -14 32 -32c0 -7 -2 -13 -6 -19l-369 -558h358c18 0 32 -14 32 -32s-14 -32 -32 -32zM221 724c-12 10 -10 21 -3 30l89 108c8 10 22 14 38 0
c15 -14 14 -27 3 -38l-97 -98c-9 -9 -18 -12 -30 -2z" />
    <glyph glyph-name="ycircumflex" unicode="&#x177;" horiz-adv-x="438" 
d="M35 -141c87 0 110 59 151 160l-167 397c-1 3 -3 7 -3 14c0 18 14 32 32 32s26 -11 30 -21l141 -345l141 345c4 10 12 21 30 21s32 -14 32 -32c0 -7 -2 -11 -3 -14l-197 -469c-41 -98 -92 -148 -187 -148c-17 0 -30 13 -30 30s13 30 30 30zM300 528l-81 68l-81 -68
c-2 -2 -7 -6 -16 -6c-13 0 -24 11 -24 24c0 8 3 14 9 19l96 79c4 3 8 6 16 6s12 -3 16 -6l96 -79c6 -5 9 -11 9 -19c0 -13 -11 -24 -24 -24c-9 0 -14 4 -16 6z" />
    <glyph glyph-name="Ycircumflex" unicode="&#x176;" 
d="M259 -8c-19 0 -34 15 -34 34v287l-201 316c-3 5 -5 11 -5 18c0 19 15 34 34 34c12 0 23 -6 29 -16l177 -284l177 284c6 10 17 16 29 16c19 0 34 -15 34 -34c0 -7 -2 -13 -5 -18l-201 -316v-287c0 -19 -15 -34 -34 -34zM340 725l-81 68l-81 -68c-2 -2 -7 -6 -16 -6
c-13 0 -24 11 -24 24c0 8 3 14 9 19l96 79c4 3 8 6 16 6s12 -3 16 -6l96 -79c6 -5 9 -11 9 -19c0 -13 -11 -24 -24 -24c-9 0 -14 4 -16 6z" />
    <glyph glyph-name="wcircumflex" unicode="&#x175;" horiz-adv-x="640" 
d="M412 15l-92 317l-92 -317c-4 -14 -17 -23 -31 -23s-25 8 -30 21l-147 403c-2 5 -3 10 -3 14c0 18 14 32 32 32c14 0 25 -8 30 -21l116 -331l95 331c3 10 13 21 30 21s27 -11 30 -21l95 -331l116 331c5 13 16 21 30 21c18 0 32 -14 32 -32c0 -4 -1 -9 -3 -14l-147 -403
c-5 -13 -16 -21 -30 -21s-27 9 -31 23zM401 528l-81 68l-81 -68c-2 -2 -7 -6 -16 -6c-13 0 -24 11 -24 24c0 8 3 14 9 19l96 79c4 3 8 6 16 6s12 -3 16 -6l96 -79c6 -5 9 -11 9 -19c0 -13 -11 -24 -24 -24c-9 0 -14 4 -16 6z" />
    <glyph glyph-name="Wcircumflex" unicode="&#x174;" horiz-adv-x="818" 
d="M553 18l-144 509l-144 -509c-4 -16 -17 -26 -33 -26c-15 0 -29 10 -33 25l-177 618c-1 4 -2 8 -2 12c0 19 15 34 34 34s30 -14 33 -25l146 -517l143 517c4 16 18 25 33 25s29 -9 33 -25l143 -517l146 517c3 11 14 25 33 25s34 -15 34 -34c0 -4 -1 -8 -2 -12l-177 -618
c-4 -15 -18 -25 -33 -25c-16 0 -29 10 -33 26zM490 725l-81 68l-81 -68c-2 -2 -7 -6 -16 -6c-13 0 -24 11 -24 24c0 8 3 14 9 19l96 79c4 3 8 6 16 6s12 -3 16 -6l96 -79c6 -5 9 -11 9 -19c0 -13 -11 -24 -24 -24c-9 0 -14 4 -16 6z" />
    <glyph glyph-name="uhungarumlaut" unicode="&#x171;" horiz-adv-x="486" 
d="M87 462c17 0 32 -14 32 -32v-261c0 -65 21 -121 122 -121s122 56 122 121v261c0 18 15 32 33 32c17 0 31 -14 31 -32v-261c0 -95 -31 -182 -186 -182c-154 0 -186 87 -186 182v261c0 18 14 32 32 32zM156 520c-12 10 -10 21 -3 30l89 108c8 10 22 14 38 0
c15 -14 14 -27 3 -38l-97 -98c-9 -9 -18 -12 -30 -2zM265 520c-12 10 -10 21 -3 30l89 108c8 10 22 14 38 0c15 -14 14 -27 3 -38l-97 -98c-9 -9 -18 -12 -30 -2z" />
    <glyph glyph-name="Tcaron" unicode="&#x164;" horiz-adv-x="538" 
d="M235 609h-179c-18 0 -32 14 -32 32s14 32 32 32h425c18 0 32 -14 32 -32s-14 -32 -32 -32h-178v-583c0 -19 -15 -34 -34 -34s-34 15 -34 34v583zM270 773l81 68c2 2 7 6 16 6c13 0 24 -11 24 -24c0 -8 -3 -14 -9 -19l-96 -79c-4 -3 -8 -6 -16 -6s-12 3 -16 6l-96 79
c-6 5 -9 11 -9 19c0 13 11 24 24 24c9 0 14 -4 16 -6z" />
    <glyph glyph-name="Scaron" unicode="&#x160;" horiz-adv-x="558" 
d="M443 546c-30 37 -78 79 -162 79c-105 0 -145 -52 -145 -109c0 -166 378 -95 378 -336c0 -125 -86 -194 -240 -194c-114 0 -199 58 -233 123c-4 8 -5 12 -5 18c0 18 14 32 32 32c12 0 22 -6 28 -16c32 -52 90 -95 178 -95c110 0 172 44 172 132c0 187 -378 99 -378 336
c0 92 67 171 213 171c95 0 172 -40 214 -103c4 -6 6 -12 6 -19c0 -18 -14 -32 -32 -32c-9 0 -18 3 -26 13zM286 773l81 68c2 2 7 6 16 6c13 0 24 -11 24 -24c0 -8 -3 -14 -9 -19l-96 -79c-4 -3 -8 -6 -16 -6s-12 3 -16 6l-96 79c-6 5 -9 11 -9 19c0 13 11 24 24 24
c9 0 14 -4 16 -6z" />
    <glyph glyph-name="racute" unicode="&#x155;" horiz-adv-x="309" 
d="M129 430v-44c20 46 70 80 139 80c17 0 31 -14 31 -31s-14 -31 -31 -31c-92 0 -139 -64 -139 -156v-224c0 -18 -14 -32 -32 -32s-32 14 -32 32v406c0 18 14 32 32 32s32 -14 32 -32zM137 520c-12 10 -10 21 -3 30l89 108c8 10 22 14 38 0c15 -14 14 -27 3 -38l-97 -98
c-9 -9 -18 -12 -30 -2z" />
    <glyph glyph-name="rcommaaccent" unicode="&#x157;" horiz-adv-x="309" 
d="M129 430v-44c20 46 70 80 139 80c17 0 31 -14 31 -31s-14 -31 -31 -31c-92 0 -139 -64 -139 -156v-224c0 -18 -14 -32 -32 -32s-32 14 -32 32v406c0 18 14 32 32 32s32 -14 32 -32zM134 -100c0 -36 -18 -99 -46 -135c-3 -3 -6 -6 -13 -6c-8 0 -16 8 -13 19
c8 25 11 41 11 55c0 37 -18 51 -18 78c0 33 15 47 39 47c31 0 40 -18 40 -58z" />
    <glyph glyph-name="rcaron" unicode="&#x159;" horiz-adv-x="309" 
d="M129 430v-44c20 46 70 80 139 80c17 0 31 -14 31 -31s-14 -31 -31 -31c-92 0 -139 -64 -139 -156v-224c0 -18 -14 -32 -32 -32s-32 14 -32 32v406c0 18 14 32 32 32s32 -14 32 -32zM168 553l81 68c2 2 7 6 16 6c13 0 24 -11 24 -24c0 -8 -3 -14 -9 -19l-96 -79
c-4 -3 -8 -6 -16 -6s-12 3 -16 6l-96 79c-6 5 -9 11 -9 19c0 13 11 24 24 24c9 0 14 -4 16 -6z" />
    <glyph glyph-name="scircumflex" unicode="&#x15d;" horiz-adv-x="424" 
d="M207 406c-45 0 -89 -14 -89 -60c0 -105 263 -66 263 -226c0 -91 -75 -132 -170 -132c-82 0 -145 39 -171 72c-5 7 -7 12 -7 19c0 16 13 29 29 29c6 0 14 -2 22 -10c31 -31 71 -49 127 -49c57 0 106 19 106 71c0 103 -263 62 -263 226c0 83 68 121 153 121
c68 0 121 -23 152 -64c3 -4 7 -10 7 -19c0 -16 -13 -29 -29 -29c-5 0 -13 1 -21 9c-27 26 -57 42 -109 42zM297 528l-81 68l-81 -68c-2 -2 -7 -6 -16 -6c-13 0 -24 11 -24 24c0 8 3 14 9 19l96 79c4 3 8 6 16 6s12 -3 16 -6l96 -79c6 -5 9 -11 9 -19c0 -13 -11 -24 -24 -24
c-9 0 -14 4 -16 6z" />
    <glyph glyph-name="Scircumflex" unicode="&#x15c;" horiz-adv-x="558" 
d="M443 546c-30 37 -78 79 -162 79c-105 0 -145 -52 -145 -109c0 -166 378 -95 378 -336c0 -125 -86 -194 -240 -194c-114 0 -199 58 -233 123c-4 8 -5 12 -5 18c0 18 14 32 32 32c12 0 22 -6 28 -16c32 -52 90 -95 178 -95c110 0 172 44 172 132c0 187 -378 99 -378 336
c0 92 67 171 213 171c95 0 172 -40 214 -103c4 -6 6 -12 6 -19c0 -18 -14 -32 -32 -32c-9 0 -18 3 -26 13zM364 725l-81 68l-81 -68c-2 -2 -7 -6 -16 -6c-13 0 -24 11 -24 24c0 8 3 14 9 19l96 79c4 3 8 6 16 6s12 -3 16 -6l96 -79c6 -5 9 -11 9 -19c0 -13 -11 -24 -24 -24
c-9 0 -14 4 -16 6z" />
    <glyph glyph-name="sacute" unicode="&#x15b;" horiz-adv-x="424" 
d="M207 406c-45 0 -89 -14 -89 -60c0 -105 263 -66 263 -226c0 -91 -75 -132 -170 -132c-82 0 -145 39 -171 72c-5 7 -7 12 -7 19c0 16 13 29 29 29c6 0 14 -2 22 -10c31 -31 71 -49 127 -49c57 0 106 19 106 71c0 103 -263 62 -263 226c0 83 68 121 153 121
c68 0 121 -23 152 -64c3 -4 7 -10 7 -19c0 -16 -13 -29 -29 -29c-5 0 -13 1 -21 9c-27 26 -57 42 -109 42zM168 520c-12 10 -10 21 -3 30l89 108c8 10 22 14 38 0c15 -14 14 -27 3 -38l-97 -98c-9 -9 -18 -12 -30 -2z" />
    <glyph glyph-name="Sacute" unicode="&#x15a;" horiz-adv-x="558" 
d="M443 546c-30 37 -78 79 -162 79c-105 0 -145 -52 -145 -109c0 -166 378 -95 378 -336c0 -125 -86 -194 -240 -194c-114 0 -199 58 -233 123c-4 8 -5 12 -5 18c0 18 14 32 32 32c12 0 22 -6 28 -16c32 -52 90 -95 178 -95c110 0 172 44 172 132c0 187 -378 99 -378 336
c0 92 67 171 213 171c95 0 172 -40 214 -103c4 -6 6 -12 6 -19c0 -18 -14 -32 -32 -32c-9 0 -18 3 -26 13zM252 724c-12 10 -10 21 -3 30l89 108c8 10 22 14 38 0c15 -14 14 -27 3 -38l-97 -98c-9 -9 -18 -12 -30 -2z" />
    <glyph glyph-name="lcaron" unicode="&#x13e;" horiz-adv-x="234" 
d="M243 654c0 -36 -18 -99 -46 -135c-3 -3 -6 -6 -13 -6c-8 0 -16 8 -13 19c8 25 11 41 11 55c0 37 -18 51 -18 78c0 33 15 47 39 47c31 0 40 -18 40 -58zM97 712c18 0 32 -15 32 -32v-571c0 -40 13 -57 40 -57c16 0 30 -13 30 -30s-14 -30 -30 -30c-67 0 -104 40 -104 117
v571c0 17 15 32 32 32z" />
    <glyph glyph-name="nacute" unicode="&#x144;" horiz-adv-x="501" 
d="M262 468c154 0 184 -92 184 -177v-267c0 -18 -14 -32 -32 -32s-32 14 -32 32v254c0 79 -23 133 -120 133c-99 0 -133 -60 -133 -140v-247c0 -18 -14 -32 -32 -32s-32 14 -32 32v406c0 18 14 32 32 32s32 -14 32 -32v-32c19 38 68 70 133 70zM196 520c-12 10 -10 21 -3 30
l89 108c8 10 22 14 38 0c15 -14 14 -27 3 -38l-97 -98c-9 -9 -18 -12 -30 -2z" />
    <glyph glyph-name="Ncommaaccent" unicode="&#x145;" horiz-adv-x="620" 
d="M517 681c18 0 33 -15 33 -33v-622c0 -19 -15 -34 -34 -34c-12 0 -21 5 -28 14l-352 531v-512c0 -18 -15 -33 -33 -33s-33 15 -33 33v623c0 18 15 33 33 33c12 0 22 -7 27 -14l354 -532v513c0 18 15 33 33 33zM346 -100c0 -36 -18 -99 -46 -135c-3 -3 -6 -6 -13 -6
c-8 0 -16 8 -13 19c8 25 11 41 11 55c0 37 -18 51 -18 78c0 33 15 47 39 47c31 0 40 -18 40 -58z" />
    <glyph glyph-name="ncommaaccent" unicode="&#x146;" horiz-adv-x="501" 
d="M262 468c154 0 184 -92 184 -177v-267c0 -18 -14 -32 -32 -32s-32 14 -32 32v254c0 79 -23 133 -120 133c-99 0 -133 -60 -133 -140v-247c0 -18 -14 -32 -32 -32s-32 14 -32 32v406c0 18 14 32 32 32s32 -14 32 -32v-32c19 38 68 70 133 70zM299 -100
c0 -36 -18 -99 -46 -135c-3 -3 -6 -6 -13 -6c-8 0 -16 8 -13 19c8 25 11 41 11 55c0 37 -18 51 -18 78c0 33 15 47 39 47c31 0 40 -18 40 -58z" />
    <glyph glyph-name="Ncaron" unicode="&#x147;" horiz-adv-x="620" 
d="M517 681c18 0 33 -15 33 -33v-622c0 -19 -15 -34 -34 -34c-12 0 -21 5 -28 14l-352 531v-512c0 -18 -15 -33 -33 -33s-33 15 -33 33v623c0 18 15 33 33 33c12 0 22 -7 27 -14l354 -532v513c0 18 15 33 33 33zM321 773l81 68c2 2 7 6 16 6c13 0 24 -11 24 -24
c0 -8 -3 -14 -9 -19l-96 -79c-4 -3 -8 -6 -16 -6s-12 3 -16 6l-96 79c-6 5 -9 11 -9 19c0 13 11 24 24 24c9 0 14 -4 16 -6z" />
    <glyph glyph-name="Lslash" unicode="&#x141;" horiz-adv-x="503" 
d="M167 64h274c18 0 32 -14 32 -32s-14 -32 -32 -32h-308c-19 0 -34 15 -34 34v220l-45 -21c-4 -2 -9 -3 -13 -3c-16 0 -29 13 -29 29c0 11 5 21 18 27l69 32v329c0 19 15 34 34 34s34 -15 34 -34v-298l172 81c4 2 9 3 13 3c16 0 29 -13 29 -29c0 -12 -8 -23 -18 -27
l-196 -92v-221z" />
    <glyph glyph-name="lslash" unicode="&#x142;" horiz-adv-x="254" 
d="M97 712c18 0 32 -15 32 -32v-262l78 45c4 2 8 3 12 3c14 0 27 -11 27 -27c0 -10 -5 -19 -14 -24l-103 -59v-247c0 -40 13 -57 40 -57c16 0 30 -13 30 -30s-14 -30 -30 -30c-67 0 -104 40 -104 117v210l-24 -14c-5 -3 -10 -4 -14 -4c-14 0 -27 11 -27 27c0 11 5 19 14 24
l51 29v299c0 17 15 32 32 32z" />
    <glyph glyph-name="at.case" horiz-adv-x="802" 
d="M494 218c-23 -36 -63 -61 -119 -61c-75 0 -134 39 -134 109c0 67 48 108 130 108h116v25c0 50 -39 77 -93 77c-42 0 -68 -18 -88 -41c-7 -7 -13 -9 -20 -9c-13 0 -24 11 -24 24c0 5 2 11 5 15c24 32 62 58 127 58c95 0 141 -53 141 -129v-122c0 -56 24 -73 65 -73
c71 0 111 37 111 160c0 206 -123 296 -312 296c-190 0 -309 -86 -309 -319c0 -234 119 -318 309 -318c82 0 165 11 231 55c3 2 7 4 13 4c12 0 23 -9 23 -23c0 -7 -3 -14 -10 -19c-76 -47 -155 -61 -257 -61c-225 0 -359 115 -359 362c0 248 134 363 359 363
c209 0 362 -111 362 -340c0 -86 -25 -202 -161 -202c-59 0 -91 26 -106 61zM379 201c53 0 108 32 108 97v33h-116c-49 0 -80 -21 -80 -65c0 -40 30 -65 88 -65z" />
    <glyph glyph-name="ncaron" unicode="&#x148;" horiz-adv-x="501" 
d="M262 468c154 0 184 -92 184 -177v-267c0 -18 -14 -32 -32 -32s-32 14 -32 32v254c0 79 -23 133 -120 133c-99 0 -133 -60 -133 -140v-247c0 -18 -14 -32 -32 -32s-32 14 -32 32v406c0 18 14 32 32 32s32 -14 32 -32v-32c19 38 68 70 133 70zM265 553l81 68c2 2 7 6 16 6
c13 0 24 -11 24 -24c0 -8 -3 -14 -9 -19l-96 -79c-4 -3 -8 -6 -16 -6s-12 3 -16 6l-96 79c-6 5 -9 11 -9 19c0 13 11 24 24 24c9 0 14 -4 16 -6z" />
    <glyph glyph-name="napostrophe" unicode="&#x149;" horiz-adv-x="501" 
d="M262 468c154 0 184 -92 184 -177v-267c0 -18 -14 -32 -32 -32s-32 14 -32 32v254c0 79 -23 133 -120 133c-99 0 -133 -60 -133 -140v-247c0 -18 -14 -32 -32 -32s-32 14 -32 32v406c0 18 14 32 32 32s32 -14 32 -32v-32c19 38 68 70 133 70zM88 617
c0 -36 -18 -99 -46 -135c-3 -3 -6 -6 -13 -6c-8 0 -16 8 -13 19c8 25 11 41 11 55c0 37 -18 51 -18 78c0 33 15 47 39 47c31 0 40 -18 40 -58z" />
    <glyph glyph-name="numero" unicode="&#x2116;" horiz-adv-x="1066" 
d="M623 681c18 0 33 -15 33 -33v-623c0 -18 -15 -33 -33 -33c-13 0 -20 6 -26 13l-454 551v-531c0 -18 -15 -33 -33 -33s-33 15 -33 33v623c0 18 15 33 33 33c13 0 22 -8 25 -12l455 -552v531c0 18 15 33 33 33zM877 311c58 0 90 40 90 118s-32 118 -90 118
s-90 -40 -90 -118s32 -118 90 -118zM877 110c-23 0 -38 13 -38 37c0 28 15 40 38 40c24 0 38 -12 38 -40c0 -24 -14 -37 -38 -37zM877 257c-94 0 -150 57 -150 172s56 172 150 172s150 -57 150 -172s-56 -172 -150 -172z" />
    <glyph glyph-name="g.salt" horiz-adv-x="495" 
d="M377 126v144c0 95 -60 140 -135 140c-92 0 -143 -58 -143 -183c0 -123 51 -182 143 -182c94 0 135 81 135 81zM237 -141c82 0 140 41 140 132v57c-24 -31 -70 -61 -135 -61c-130 0 -207 76 -207 240s77 241 207 241c114 0 200 -66 200 -198v-279
c0 -136 -93 -192 -205 -192c-78 0 -134 29 -167 69c-3 4 -6 10 -6 18c0 17 14 31 31 31c8 0 15 -2 24 -11c23 -23 55 -47 118 -47z" />
    <glyph glyph-name="gcircumflex.salt" horiz-adv-x="495" 
d="M377 126v144c0 95 -60 140 -135 140c-92 0 -143 -58 -143 -183c0 -123 51 -182 143 -182c94 0 135 81 135 81zM237 -141c82 0 140 41 140 132v57c-24 -31 -70 -61 -135 -61c-130 0 -207 76 -207 240s77 241 207 241c114 0 200 -66 200 -198v-279
c0 -136 -93 -192 -205 -192c-78 0 -134 29 -167 69c-3 4 -6 10 -6 18c0 17 14 31 31 31c8 0 15 -2 24 -11c23 -23 55 -47 118 -47zM324 528l-81 68l-81 -68c-2 -2 -7 -6 -16 -6c-13 0 -24 11 -24 24c0 8 3 14 9 19l96 79c4 3 8 6 16 6s12 -3 16 -6l96 -79c6 -5 9 -11 9 -19
c0 -13 -11 -24 -24 -24c-9 0 -14 4 -16 6z" />
    <glyph glyph-name="gbreve.salt" horiz-adv-x="495" 
d="M377 126v144c0 95 -60 140 -135 140c-92 0 -143 -58 -143 -183c0 -123 51 -182 143 -182c94 0 135 81 135 81zM237 -141c82 0 140 41 140 132v57c-24 -31 -70 -61 -135 -61c-130 0 -207 76 -207 240s77 241 207 241c114 0 200 -66 200 -198v-279
c0 -136 -93 -192 -205 -192c-78 0 -134 29 -167 69c-3 4 -6 10 -6 18c0 17 14 31 31 31c8 0 15 -2 24 -11c23 -23 55 -47 118 -47zM242 529c-60 0 -113 29 -113 101c0 13 11 24 24 24s24 -11 24 -24c0 -37 22 -55 65 -55s65 18 65 55c0 13 11 24 24 24s24 -11 24 -24
c0 -72 -53 -101 -113 -101z" />
    <glyph glyph-name="gdotaccent.salt" horiz-adv-x="495" 
d="M377 126v144c0 95 -60 140 -135 140c-92 0 -143 -58 -143 -183c0 -123 51 -182 143 -182c94 0 135 81 135 81zM237 -141c82 0 140 41 140 132v57c-24 -31 -70 -61 -135 -61c-130 0 -207 76 -207 240s77 241 207 241c114 0 200 -66 200 -198v-279
c0 -136 -93 -192 -205 -192c-78 0 -134 29 -167 69c-3 4 -6 10 -6 18c0 17 14 31 31 31c8 0 15 -2 24 -11c23 -23 55 -47 118 -47zM242 544c-25 0 -38 12 -38 39c0 28 13 40 38 40s38 -12 38 -40c0 -27 -13 -39 -38 -39z" />
    <glyph glyph-name="gcommaaccent.salt" horiz-adv-x="495" 
d="M377 126v144c0 95 -60 140 -135 140c-92 0 -143 -58 -143 -183c0 -123 51 -182 143 -182c94 0 135 81 135 81zM237 -141c82 0 140 41 140 132v57c-24 -31 -70 -61 -135 -61c-130 0 -207 76 -207 240s77 241 207 241c114 0 200 -66 200 -198v-279
c0 -136 -93 -192 -205 -192c-78 0 -134 29 -167 69c-3 4 -6 10 -6 18c0 17 14 31 31 31c8 0 15 -2 24 -11c23 -23 55 -47 118 -47zM201 576c0 36 18 99 46 135c3 3 6 6 13 6c8 0 16 -8 13 -19c-8 -25 -11 -41 -11 -55c0 -37 18 -51 18 -78c0 -33 -15 -47 -39 -47
c-31 0 -40 18 -40 58z" />
    <glyph glyph-name="Adieresis" unicode="&#xc4;" horiz-adv-x="613" 
d="M425 261l-119 306l-118 -306h237zM446 199h-279l-73 -183c-5 -13 -16 -24 -33 -24c-19 0 -34 16 -34 34c0 4 1 11 3 15l244 617c5 12 14 23 32 23c17 0 28 -11 33 -23l244 -617c2 -5 3 -12 3 -15c0 -18 -14 -34 -35 -34c-17 0 -28 10 -33 23zM228 741
c-24 0 -36 12 -36 37s12 38 36 38s36 -13 36 -38s-12 -37 -36 -37zM385 741c-24 0 -36 12 -36 37s12 38 36 38s36 -13 36 -38s-12 -37 -36 -37z" />
    <glyph glyph-name="Aring" unicode="&#xc5;" horiz-adv-x="613" 
d="M425 261l-119 306l-118 -306h237zM446 199h-279l-73 -183c-5 -13 -16 -24 -33 -24c-19 0 -34 16 -34 34c0 4 1 11 3 15l244 617c5 12 14 23 32 23c17 0 28 -11 33 -23l244 -617c2 -5 3 -12 3 -15c0 -18 -14 -34 -35 -34c-17 0 -28 10 -33 23zM306 703
c-71 0 -104 37 -104 98s33 98 104 98s104 -37 104 -98s-33 -98 -104 -98zM306 861c-46 0 -62 -20 -62 -60c0 -39 16 -60 62 -60s62 21 62 60c0 40 -16 60 -62 60z" />
    <glyph glyph-name="ntilde" unicode="&#xf1;" horiz-adv-x="501" 
d="M262 468c154 0 184 -92 184 -177v-267c0 -18 -14 -32 -32 -32s-32 14 -32 32v254c0 79 -23 133 -120 133c-99 0 -133 -60 -133 -140v-247c0 -18 -14 -32 -32 -32s-32 14 -32 32v406c0 18 14 32 32 32s32 -14 32 -32v-32c19 38 68 70 133 70zM196 617c49 0 77 -39 118 -39
c21 0 32 9 46 28c3 4 9 11 20 11c13 0 24 -11 24 -24c0 -3 -1 -8 -3 -12c-13 -26 -41 -52 -87 -52c-50 0 -76 39 -118 39c-21 0 -32 -9 -46 -28c-3 -4 -9 -11 -20 -11c-13 0 -24 11 -24 24c0 3 1 8 3 12c13 26 41 52 87 52z" />
    <glyph glyph-name="dollar" unicode="$" horiz-adv-x="558" 
d="M443 546c-30 37 -78 79 -162 79c-105 0 -145 -52 -145 -109c0 -166 378 -95 378 -336c0 -117 -75 -184 -209 -193v-75c0 -14 -12 -26 -26 -26s-26 12 -26 26v75c-104 6 -180 61 -212 122c-4 8 -5 12 -5 18c0 18 14 32 32 32c12 0 22 -6 28 -16c32 -52 90 -95 178 -95
c110 0 172 44 172 132c0 187 -378 99 -378 336c0 86 58 160 185 170v76c0 14 12 26 26 26s26 -12 26 -26v-76c84 -6 151 -45 190 -102c4 -6 6 -12 6 -19c0 -18 -14 -32 -32 -32c-9 0 -18 3 -26 13z" />
    <glyph glyph-name="cent" unicode="&#xa2;" horiz-adv-x="441" 
d="M35 228c0 152 67 228 180 238v57c0 14 12 26 26 26s26 -12 26 -26v-57c72 -8 113 -47 128 -67c5 -7 7 -12 7 -19c0 -17 -13 -29 -29 -29c-10 0 -17 4 -24 12c-15 17 -42 47 -108 47c-92 0 -141 -59 -141 -182c0 -125 49 -183 141 -183c58 0 93 26 116 43c7 5 12 7 19 7
c16 0 29 -13 29 -29c0 -9 -3 -16 -13 -25c-20 -16 -60 -46 -125 -53v-69c0 -14 -12 -26 -26 -26s-26 12 -26 26v70c-113 10 -180 86 -180 239z" />
    <glyph glyph-name="oe" unicode="&#x153;" horiz-adv-x="821" 
d="M245 468c81 0 143 -30 178 -93c34 61 93 93 173 93c160 0 191 -127 191 -195c0 -29 0 -64 -40 -64h-292c0 -99 57 -163 151 -163c58 0 92 22 120 43c6 4 10 6 18 6c16 0 29 -13 29 -29c0 -11 -5 -17 -11 -23c-15 -15 -67 -56 -156 -56c-84 0 -148 29 -184 92
c-35 -62 -96 -92 -177 -92c-129 0 -210 77 -210 241s81 240 210 240zM390 228c-3 129 -56 182 -145 182c-92 0 -145 -56 -145 -182c0 -128 53 -183 145 -183c89 0 142 52 145 183zM724 265c0 72 -25 145 -128 145c-87 0 -135 -56 -141 -145h269z" />
    <glyph glyph-name="Oslash" unicode="&#xd8;" horiz-adv-x="712" 
d="M356 -14c-79 0 -145 19 -196 57l-47 -59c-5 -6 -12 -10 -20 -10c-15 0 -27 12 -27 27c0 4 1 10 5 15l50 64c-50 58 -77 143 -77 256c0 237 118 351 312 351c79 0 146 -20 197 -59l46 58c5 6 11 10 20 10c15 0 27 -12 27 -27c0 -4 -1 -10 -5 -15l-49 -62
c49 -58 76 -143 76 -256c0 -235 -118 -350 -312 -350zM356 625c-153 0 -242 -93 -242 -289c0 -87 18 -154 51 -201l347 441c-40 33 -93 49 -156 49zM356 48c153 0 242 93 242 288c0 86 -18 153 -50 200l-347 -440c39 -33 92 -48 155 -48z" />
    <glyph glyph-name="yen" unicode="&#xa5;" 
d="M435 190c0 -15 -12 -27 -27 -27h-115v-137c0 -19 -15 -34 -34 -34s-34 15 -34 34v137h-115c-15 0 -27 12 -27 27s12 27 27 27h115v47h-115c-15 0 -27 12 -27 27s12 27 27 27h112l-198 311c-3 5 -5 11 -5 18c0 19 15 34 34 34c12 0 23 -6 29 -16l177 -284l177 284
c6 10 17 16 29 16c19 0 34 -15 34 -34c0 -7 -2 -13 -5 -18l-198 -311h112c15 0 27 -12 27 -27s-12 -27 -27 -27h-115v-47h115c15 0 27 -12 27 -27z" />
    <glyph glyph-name="ae" unicode="&#xe6;" horiz-adv-x="778" 
d="M232 408c-53 0 -81 -14 -116 -51c-10 -11 -17 -14 -26 -14c-16 0 -29 13 -29 29c0 7 2 12 5 17c28 44 82 79 166 79c76 0 131 -30 158 -80c34 52 89 80 163 80c160 0 191 -125 191 -193c0 -29 0 -64 -40 -64h-292c0 -99 57 -165 151 -165c58 0 92 22 120 43
c6 4 10 6 18 6c16 0 29 -13 29 -29c0 -11 -5 -17 -11 -23c-15 -15 -67 -56 -156 -56c-87 0 -153 32 -179 99c-25 -50 -75 -99 -177 -99c-106 0 -173 51 -173 143c0 88 67 137 175 137h141v31c0 68 -45 110 -118 110zM213 45c70 0 137 43 137 128v38h-141
c-65 0 -110 -23 -110 -81c0 -52 36 -85 114 -85zM681 267c0 72 -25 143 -128 143c-87 0 -135 -54 -141 -143h269z" />
    <glyph glyph-name="OE" unicode="&#x152;" horiz-adv-x="923" 
d="M851 0h-332c-10 0 -19 4 -25 11c-41 -16 -88 -25 -140 -25c-194 0 -310 115 -310 350c0 237 116 351 310 351c52 0 98 -9 139 -26c6 7 16 12 26 12h321c17 0 31 -14 31 -31s-14 -31 -31 -31h-287v-241h220c17 0 31 -14 31 -31s-14 -31 -31 -31h-220v-246h298
c17 0 31 -14 31 -31s-14 -31 -31 -31zM354 625c-153 0 -240 -93 -240 -289c0 -195 87 -288 240 -288c51 0 95 10 131 31v514c-36 21 -80 32 -131 32z" />
    <glyph glyph-name="oslash" unicode="&#xf8;" horiz-adv-x="490" 
d="M245 468c58 0 107 -16 142 -48l37 40c5 5 11 8 19 8c14 0 26 -12 26 -26c0 -7 -3 -14 -8 -19l-41 -43c23 -38 35 -89 35 -152c0 -164 -80 -241 -210 -241c-60 0 -109 16 -145 50l-36 -38c-4 -4 -10 -7 -18 -7c-14 0 -26 12 -26 26c0 8 4 15 8 19l39 42
c-21 38 -32 87 -32 149c0 164 81 240 210 240zM245 45c92 0 145 55 145 183c0 41 -6 75 -17 101l-230 -246c24 -26 59 -38 102 -38zM100 228c0 -40 5 -72 15 -98l229 244c-25 24 -58 36 -99 36c-92 0 -145 -56 -145 -182z" />
    <glyph glyph-name="Euro" unicode="&#x20ac;" horiz-adv-x="631" 
d="M283 239h-161c24 -136 107 -191 234 -191c66 0 135 26 174 82c7 10 18 13 26 13c18 0 32 -14 32 -32c0 -8 -2 -13 -6 -19c-44 -64 -134 -106 -226 -106c-166 0 -276 76 -305 253h-34c-15 0 -27 12 -27 27s12 27 27 27h28c-1 14 -1 28 -1 43c0 12 0 25 1 37h-28
c-15 0 -27 12 -27 27s12 27 27 27h34c27 175 138 260 305 260c95 0 178 -41 225 -106c5 -7 7 -14 7 -21c0 -18 -14 -32 -32 -32c-9 0 -18 3 -26 13c-34 47 -99 84 -174 84c-128 0 -210 -64 -235 -198h162c15 0 27 -12 27 -27s-12 -27 -27 -27h-168c-1 -12 -1 -24 -1 -37
c0 -15 0 -30 1 -43h168c15 0 27 -12 27 -27s-12 -27 -27 -27z" />
    <glyph glyph-name="Yacute" unicode="&#xdd;" 
d="M259 -8c-19 0 -34 15 -34 34v287l-201 316c-3 5 -5 11 -5 18c0 19 15 34 34 34c12 0 23 -6 29 -16l177 -284l177 284c6 10 17 16 29 16c19 0 34 -15 34 -34c0 -7 -2 -13 -5 -18l-201 -316v-287c0 -19 -15 -34 -34 -34zM216 724c-12 10 -10 21 -3 30l89 108
c8 10 22 14 38 0c15 -14 14 -27 3 -38l-97 -98c-9 -9 -18 -12 -30 -2z" />
    <glyph glyph-name="Eacute" unicode="&#xc9;" 
d="M446 0h-332c-19 0 -34 15 -34 34v605c0 19 15 34 34 34h321c17 0 31 -14 31 -31s-14 -31 -31 -31h-287v-241h220c17 0 31 -14 31 -31s-14 -31 -31 -31h-220v-246h298c17 0 31 -14 31 -31s-14 -31 -31 -31zM227 724c-12 10 -10 21 -3 30l89 108c8 10 22 14 38 0
c15 -14 14 -27 3 -38l-97 -98c-9 -9 -18 -12 -30 -2z" />
    <glyph glyph-name="Ntilde" unicode="&#xd1;" horiz-adv-x="620" 
d="M517 681c18 0 33 -15 33 -33v-622c0 -19 -15 -34 -34 -34c-12 0 -21 5 -28 14l-352 531v-512c0 -18 -15 -33 -33 -33s-33 15 -33 33v623c0 18 15 33 33 33c12 0 22 -7 27 -14l354 -532v513c0 18 15 33 33 33zM260 819c49 0 77 -39 118 -39c21 0 32 9 46 28
c3 4 9 11 20 11c13 0 24 -11 24 -24c0 -3 -1 -8 -3 -12c-13 -26 -41 -52 -87 -52c-50 0 -76 39 -118 39c-21 0 -32 -9 -46 -28c-3 -4 -9 -11 -20 -11c-13 0 -24 11 -24 24c0 3 1 8 3 12c13 26 41 52 87 52z" />
    <glyph glyph-name="Odieresis" unicode="&#xd6;" horiz-adv-x="713" 
d="M356 -14c-194 0 -312 115 -312 350c0 237 118 351 312 351s312 -114 312 -351c0 -235 -118 -350 -312 -350zM356 625c-153 0 -242 -93 -242 -289c0 -195 89 -288 242 -288s242 93 242 288c0 196 -89 289 -242 289zM278 741c-24 0 -36 12 -36 37s12 38 36 38
s36 -13 36 -38s-12 -37 -36 -37zM435 741c-24 0 -36 12 -36 37s12 38 36 38s36 -13 36 -38s-12 -37 -36 -37z" />
    <glyph glyph-name="Udieresis" unicode="&#xdc;" horiz-adv-x="624" 
d="M315 -14c-189 0 -235 109 -235 219v442c0 19 15 34 34 34s34 -15 34 -34v-442c0 -79 29 -155 167 -155c137 0 166 76 166 155v442c0 19 15 34 34 34s34 -15 34 -34v-442c0 -110 -45 -219 -234 -219zM237 741c-24 0 -36 12 -36 37s12 38 36 38s36 -13 36 -38
s-12 -37 -36 -37zM394 741c-24 0 -36 12 -36 37s12 38 36 38s36 -13 36 -38s-12 -37 -36 -37z" />
    <glyph glyph-name="aacute" unicode="&#xe1;" horiz-adv-x="467" 
d="M232 408c-53 0 -85 -16 -116 -51c-10 -11 -17 -14 -26 -14c-16 0 -29 13 -29 29c0 7 2 12 5 17c28 44 82 79 166 79c116 0 180 -68 180 -170v-275c0 -17 -14 -31 -31 -31s-31 14 -31 31v36c-25 -47 -83 -72 -143 -72c-106 0 -173 51 -173 143c0 88 67 141 175 141h141v27
c0 68 -45 110 -118 110zM213 45c70 0 137 43 137 128v42h-141c-65 0 -110 -27 -110 -85c0 -52 36 -85 114 -85zM177 520c-12 10 -10 21 -3 30l89 108c8 10 22 14 38 0c15 -14 14 -27 3 -38l-97 -98c-9 -9 -18 -12 -30 -2z" />
    <glyph glyph-name="agrave" unicode="&#xe0;" horiz-adv-x="467" 
d="M232 408c-53 0 -85 -16 -116 -51c-10 -11 -17 -14 -26 -14c-16 0 -29 13 -29 29c0 7 2 12 5 17c28 44 82 79 166 79c116 0 180 -68 180 -170v-275c0 -17 -14 -31 -31 -31s-31 14 -31 31v36c-25 -47 -83 -72 -143 -72c-106 0 -173 51 -173 143c0 88 67 141 175 141h141v27
c0 68 -45 110 -118 110zM213 45c70 0 137 43 137 128v42h-141c-65 0 -110 -27 -110 -85c0 -52 36 -85 114 -85zM297 520c-12 -10 -21 -7 -30 2l-97 98c-11 11 -12 24 3 38c16 14 30 10 38 0l89 -108c7 -9 9 -20 -3 -30z" />
    <glyph glyph-name="acircumflex" unicode="&#xe2;" horiz-adv-x="467" 
d="M232 408c-53 0 -85 -16 -116 -51c-10 -11 -17 -14 -26 -14c-16 0 -29 13 -29 29c0 7 2 12 5 17c28 44 82 79 166 79c116 0 180 -68 180 -170v-275c0 -17 -14 -31 -31 -31s-31 14 -31 31v36c-25 -47 -83 -72 -143 -72c-106 0 -173 51 -173 143c0 88 67 141 175 141h141v27
c0 68 -45 110 -118 110zM213 45c70 0 137 43 137 128v42h-141c-65 0 -110 -27 -110 -85c0 -52 36 -85 114 -85zM314 528l-81 68l-81 -68c-2 -2 -7 -6 -16 -6c-13 0 -24 11 -24 24c0 8 3 14 9 19l96 79c4 3 8 6 16 6s12 -3 16 -6l96 -79c6 -5 9 -11 9 -19
c0 -13 -11 -24 -24 -24c-9 0 -14 4 -16 6z" />
    <glyph glyph-name="adieresis" unicode="&#xe4;" horiz-adv-x="467" 
d="M232 408c-53 0 -85 -16 -116 -51c-10 -11 -17 -14 -26 -14c-16 0 -29 13 -29 29c0 7 2 12 5 17c28 44 82 79 166 79c116 0 180 -68 180 -170v-275c0 -17 -14 -31 -31 -31s-31 14 -31 31v36c-25 -47 -83 -72 -143 -72c-106 0 -173 51 -173 143c0 88 67 141 175 141h141v27
c0 68 -45 110 -118 110zM213 45c70 0 137 43 137 128v42h-141c-65 0 -110 -27 -110 -85c0 -52 36 -85 114 -85zM162 534c-24 0 -36 12 -36 37s12 38 36 38s36 -13 36 -38s-12 -37 -36 -37zM319 534c-24 0 -36 12 -36 37s12 38 36 38s36 -13 36 -38s-12 -37 -36 -37z" />
    <glyph glyph-name="atilde" unicode="&#xe3;" horiz-adv-x="467" 
d="M232 408c-53 0 -85 -16 -116 -51c-10 -11 -17 -14 -26 -14c-16 0 -29 13 -29 29c0 7 2 12 5 17c28 44 82 79 166 79c116 0 180 -68 180 -170v-275c0 -17 -14 -31 -31 -31s-31 14 -31 31v36c-25 -47 -83 -72 -143 -72c-106 0 -173 51 -173 143c0 88 67 141 175 141h141v27
c0 68 -45 110 -118 110zM213 45c70 0 137 43 137 128v42h-141c-65 0 -110 -27 -110 -85c0 -52 36 -85 114 -85zM177 617c49 0 77 -39 118 -39c21 0 32 9 46 28c3 4 9 11 20 11c13 0 24 -11 24 -24c0 -3 -1 -8 -3 -12c-13 -26 -41 -52 -87 -52c-50 0 -76 39 -118 39
c-21 0 -32 -9 -46 -28c-3 -4 -9 -11 -20 -11c-13 0 -24 11 -24 24c0 3 1 8 3 12c13 26 41 52 87 52z" />
    <glyph glyph-name="aring" unicode="&#xe5;" horiz-adv-x="467" 
d="M232 408c-53 0 -85 -16 -116 -51c-10 -11 -17 -14 -26 -14c-16 0 -29 13 -29 29c0 7 2 12 5 17c28 44 82 79 166 79c116 0 180 -68 180 -170v-275c0 -17 -14 -31 -31 -31s-31 14 -31 31v36c-25 -47 -83 -72 -143 -72c-106 0 -173 51 -173 143c0 88 67 141 175 141h141v27
c0 68 -45 110 -118 110zM213 45c70 0 137 43 137 128v42h-141c-65 0 -110 -27 -110 -85c0 -52 36 -85 114 -85zM241 502c-71 0 -104 37 -104 98s33 98 104 98s104 -37 104 -98s-33 -98 -104 -98zM241 660c-46 0 -62 -20 -62 -60c0 -39 16 -60 62 -60s62 21 62 60
c0 40 -16 60 -62 60z" />
    <glyph glyph-name="eacute" unicode="&#xe9;" horiz-adv-x="466" 
d="M35 228c0 154 76 240 206 240c160 0 191 -127 191 -195c0 -29 0 -64 -40 -64h-292c0 -99 57 -163 151 -163c58 0 92 22 120 43c6 4 10 6 18 6c16 0 29 -13 29 -29c0 -11 -5 -17 -11 -23c-15 -15 -67 -56 -156 -56c-133 0 -216 73 -216 241zM369 265
c0 72 -25 145 -128 145c-87 0 -135 -56 -141 -145h269zM191 520c-12 10 -10 21 -3 30l89 108c8 10 22 14 38 0c15 -14 14 -27 3 -38l-97 -98c-9 -9 -18 -12 -30 -2z" />
    <glyph glyph-name="egrave" unicode="&#xe8;" horiz-adv-x="466" 
d="M35 228c0 154 76 240 206 240c160 0 191 -127 191 -195c0 -29 0 -64 -40 -64h-292c0 -99 57 -163 151 -163c58 0 92 22 120 43c6 4 10 6 18 6c16 0 29 -13 29 -29c0 -11 -5 -17 -11 -23c-15 -15 -67 -56 -156 -56c-133 0 -216 73 -216 241zM369 265
c0 72 -25 145 -128 145c-87 0 -135 -56 -141 -145h269zM303 520c-12 -10 -21 -7 -30 2l-97 98c-11 11 -12 24 3 38c16 14 30 10 38 0l89 -108c7 -9 9 -20 -3 -30z" />
    <glyph glyph-name="ecircumflex" unicode="&#xea;" horiz-adv-x="466" 
d="M35 228c0 154 76 240 206 240c160 0 191 -127 191 -195c0 -29 0 -64 -40 -64h-292c0 -99 57 -163 151 -163c58 0 92 22 120 43c6 4 10 6 18 6c16 0 29 -13 29 -29c0 -11 -5 -17 -11 -23c-15 -15 -67 -56 -156 -56c-133 0 -216 73 -216 241zM369 265
c0 72 -25 145 -128 145c-87 0 -135 -56 -141 -145h269zM326 528l-81 68l-81 -68c-2 -2 -7 -6 -16 -6c-13 0 -24 11 -24 24c0 8 3 14 9 19l96 79c4 3 8 6 16 6s12 -3 16 -6l96 -79c6 -5 9 -11 9 -19c0 -13 -11 -24 -24 -24c-9 0 -14 4 -16 6z" />
    <glyph glyph-name="edieresis" unicode="&#xeb;" horiz-adv-x="466" 
d="M35 228c0 154 76 240 206 240c160 0 191 -127 191 -195c0 -29 0 -64 -40 -64h-292c0 -99 57 -163 151 -163c58 0 92 22 120 43c6 4 10 6 18 6c16 0 29 -13 29 -29c0 -11 -5 -17 -11 -23c-15 -15 -67 -56 -156 -56c-133 0 -216 73 -216 241zM369 265
c0 72 -25 145 -128 145c-87 0 -135 -56 -141 -145h269zM166 534c-24 0 -36 12 -36 37s12 38 36 38s36 -13 36 -38s-12 -37 -36 -37zM323 534c-24 0 -36 12 -36 37s12 38 36 38s36 -13 36 -38s-12 -37 -36 -37z" />
    <glyph glyph-name="dotlessi" unicode="&#x131;" horiz-adv-x="193" 
d="M128 430v-406c0 -18 -14 -32 -32 -32s-32 14 -32 32v406c0 18 14 32 32 32s32 -14 32 -32z" />
    <glyph glyph-name="iacute" unicode="&#xed;" horiz-adv-x="193" 
d="M128 430v-406c0 -18 -14 -32 -32 -32s-32 14 -32 32v406c0 18 14 32 32 32s32 -14 32 -32zM53 520c-12 10 -10 21 -3 30l89 108c8 10 22 14 38 0c15 -14 14 -27 3 -38l-97 -98c-9 -9 -18 -12 -30 -2z" />
    <glyph glyph-name="igrave" unicode="&#xec;" horiz-adv-x="193" 
d="M128 430v-406c0 -18 -14 -32 -32 -32s-32 14 -32 32v406c0 18 14 32 32 32s32 -14 32 -32zM149 520c-12 -10 -21 -7 -30 2l-97 98c-11 11 -12 24 3 38c16 14 30 10 38 0l89 -108c7 -9 9 -20 -3 -30z" />
    <glyph glyph-name="icircumflex" unicode="&#xee;" horiz-adv-x="193" 
d="M128 430v-406c0 -18 -14 -32 -32 -32s-32 14 -32 32v406c0 18 14 32 32 32s32 -14 32 -32zM177 528l-81 68l-81 -68c-2 -2 -7 -6 -16 -6c-13 0 -24 11 -24 24c0 8 3 14 9 19l96 79c4 3 8 6 16 6s12 -3 16 -6l96 -79c6 -5 9 -11 9 -19c0 -13 -11 -24 -24 -24
c-9 0 -14 4 -16 6z" />
    <glyph glyph-name="idieresis" unicode="&#xef;" horiz-adv-x="193" 
d="M128 430v-406c0 -18 -14 -32 -32 -32s-32 14 -32 32v406c0 18 14 32 32 32s32 -14 32 -32zM18 534c-24 0 -36 12 -36 37s12 38 36 38s36 -13 36 -38s-12 -37 -36 -37zM175 534c-24 0 -36 12 -36 37s12 38 36 38s36 -13 36 -38s-12 -37 -36 -37z" />
    <glyph glyph-name="oacute" unicode="&#xf3;" horiz-adv-x="490" 
d="M245 468c130 0 210 -76 210 -240s-80 -241 -210 -241c-129 0 -210 77 -210 241s81 240 210 240zM245 45c92 0 145 55 145 183c0 126 -53 182 -145 182s-145 -56 -145 -182c0 -128 53 -183 145 -183zM200 520c-12 10 -10 21 -3 30l89 108c8 10 22 14 38 0
c15 -14 14 -27 3 -38l-97 -98c-9 -9 -18 -12 -30 -2z" />
    <glyph glyph-name="ograve" unicode="&#xf2;" horiz-adv-x="490" 
d="M245 468c130 0 210 -76 210 -240s-80 -241 -210 -241c-129 0 -210 77 -210 241s81 240 210 240zM245 45c92 0 145 55 145 183c0 126 -53 182 -145 182s-145 -56 -145 -182c0 -128 53 -183 145 -183zM317 520c-12 -10 -21 -7 -30 2l-97 98c-11 11 -12 24 3 38
c16 14 30 10 38 0l89 -108c7 -9 9 -20 -3 -30z" />
    <glyph glyph-name="ocircumflex" unicode="&#xf4;" horiz-adv-x="490" 
d="M245 468c130 0 210 -76 210 -240s-80 -241 -210 -241c-129 0 -210 77 -210 241s81 240 210 240zM245 45c92 0 145 55 145 183c0 126 -53 182 -145 182s-145 -56 -145 -182c0 -128 53 -183 145 -183zM330 528l-81 68l-81 -68c-2 -2 -7 -6 -16 -6c-13 0 -24 11 -24 24
c0 8 3 14 9 19l96 79c4 3 8 6 16 6s12 -3 16 -6l96 -79c6 -5 9 -11 9 -19c0 -13 -11 -24 -24 -24c-9 0 -14 4 -16 6z" />
    <glyph glyph-name="odieresis" unicode="&#xf6;" horiz-adv-x="490" 
d="M245 468c130 0 210 -76 210 -240s-80 -241 -210 -241c-129 0 -210 77 -210 241s81 240 210 240zM245 45c92 0 145 55 145 183c0 126 -53 182 -145 182s-145 -56 -145 -182c0 -128 53 -183 145 -183zM171 534c-24 0 -36 12 -36 37s12 38 36 38s36 -13 36 -38
s-12 -37 -36 -37zM328 534c-24 0 -36 12 -36 37s12 38 36 38s36 -13 36 -38s-12 -37 -36 -37z" />
    <glyph glyph-name="otilde" unicode="&#xf5;" horiz-adv-x="490" 
d="M245 468c130 0 210 -76 210 -240s-80 -241 -210 -241c-129 0 -210 77 -210 241s81 240 210 240zM245 45c92 0 145 55 145 183c0 126 -53 182 -145 182s-145 -56 -145 -182c0 -128 53 -183 145 -183zM188 617c49 0 77 -39 118 -39c21 0 32 9 46 28c3 4 9 11 20 11
c13 0 24 -11 24 -24c0 -3 -1 -8 -3 -12c-13 -26 -41 -52 -87 -52c-50 0 -76 39 -118 39c-21 0 -32 -9 -46 -28c-3 -4 -9 -11 -20 -11c-13 0 -24 11 -24 24c0 3 1 8 3 12c13 26 41 52 87 52z" />
    <glyph glyph-name="Agrave" unicode="&#xc0;" horiz-adv-x="613" 
d="M425 261l-119 306l-118 -306h237zM446 199h-279l-73 -183c-5 -13 -16 -24 -33 -24c-19 0 -34 16 -34 34c0 4 1 11 3 15l244 617c5 12 14 23 32 23c17 0 28 -11 33 -23l244 -617c2 -5 3 -12 3 -15c0 -18 -14 -34 -35 -34c-17 0 -28 10 -33 23zM358 724
c-12 -10 -21 -7 -30 2l-97 98c-11 11 -12 24 3 38c16 14 30 10 38 0l89 -108c7 -9 9 -20 -3 -30z" />
    <glyph glyph-name="Atilde" unicode="&#xc3;" horiz-adv-x="613" 
d="M425 261l-119 306l-118 -306h237zM446 199h-279l-73 -183c-5 -13 -16 -24 -33 -24c-19 0 -34 16 -34 34c0 4 1 11 3 15l244 617c5 12 14 23 32 23c17 0 28 -11 33 -23l244 -617c2 -5 3 -12 3 -15c0 -18 -14 -34 -35 -34c-17 0 -28 10 -33 23zM248 819
c49 0 77 -39 118 -39c21 0 32 9 46 28c3 4 9 11 20 11c13 0 24 -11 24 -24c0 -3 -1 -8 -3 -12c-13 -26 -41 -52 -87 -52c-50 0 -76 39 -118 39c-21 0 -32 -9 -46 -28c-3 -4 -9 -11 -20 -11c-13 0 -24 11 -24 24c0 3 1 8 3 12c13 26 41 52 87 52z" />
    <glyph glyph-name="Otilde" unicode="&#xd5;" horiz-adv-x="712" 
d="M356 -14c-194 0 -312 115 -312 350c0 237 118 351 312 351s312 -114 312 -351c0 -235 -118 -350 -312 -350zM356 625c-153 0 -242 -93 -242 -289c0 -195 89 -288 242 -288s242 93 242 288c0 196 -89 289 -242 289zM297 819c49 0 77 -39 118 -39c21 0 32 9 46 28
c3 4 9 11 20 11c13 0 24 -11 24 -24c0 -3 -1 -8 -3 -12c-13 -26 -41 -52 -87 -52c-50 0 -76 39 -118 39c-21 0 -32 -9 -46 -28c-3 -4 -9 -11 -20 -11c-13 0 -24 11 -24 24c0 3 1 8 3 12c13 26 41 52 87 52z" />
    <glyph glyph-name="ydieresis" unicode="&#xff;" horiz-adv-x="438" 
d="M35 -141c87 0 110 59 151 160l-167 397c-1 3 -3 7 -3 14c0 18 14 32 32 32s26 -11 30 -21l141 -345l141 345c4 10 12 21 30 21s32 -14 32 -32c0 -7 -2 -11 -3 -14l-197 -469c-41 -98 -92 -148 -187 -148c-17 0 -30 13 -30 30s13 30 30 30zM140 534c-24 0 -36 12 -36 37
s12 38 36 38s36 -13 36 -38s-12 -37 -36 -37zM297 534c-24 0 -36 12 -36 37s12 38 36 38s36 -13 36 -38s-12 -37 -36 -37z" />
    <glyph glyph-name="Ydieresis" unicode="&#x178;" 
d="M259 -8c-19 0 -34 15 -34 34v287l-201 316c-3 5 -5 11 -5 18c0 19 15 34 34 34c12 0 23 -6 29 -16l177 -284l177 284c6 10 17 16 29 16c19 0 34 -15 34 -34c0 -7 -2 -13 -5 -18l-201 -316v-287c0 -19 -15 -34 -34 -34zM180 741c-24 0 -36 12 -36 37s12 38 36 38
s36 -13 36 -38s-12 -37 -36 -37zM337 741c-24 0 -36 12 -36 37s12 38 36 38s36 -13 36 -38s-12 -37 -36 -37z" />
    <glyph glyph-name="Acircumflex" unicode="&#xc2;" horiz-adv-x="613" 
d="M425 261l-119 306l-118 -306h237zM446 199h-279l-73 -183c-5 -13 -16 -24 -33 -24c-19 0 -34 16 -34 34c0 4 1 11 3 15l244 617c5 12 14 23 32 23c17 0 28 -11 33 -23l244 -617c2 -5 3 -12 3 -15c0 -18 -14 -34 -35 -34c-17 0 -28 10 -33 23zM387 725l-81 68l-81 -68
c-2 -2 -7 -6 -16 -6c-13 0 -24 11 -24 24c0 8 3 14 9 19l96 79c4 3 8 6 16 6s12 -3 16 -6l96 -79c6 -5 9 -11 9 -19c0 -13 -11 -24 -24 -24c-9 0 -14 4 -16 6z" />
    <glyph glyph-name="Ecircumflex" unicode="&#xca;" 
d="M446 0h-332c-19 0 -34 15 -34 34v605c0 19 15 34 34 34h321c17 0 31 -14 31 -31s-14 -31 -31 -31h-287v-241h220c17 0 31 -14 31 -31s-14 -31 -31 -31h-220v-246h298c17 0 31 -14 31 -31s-14 -31 -31 -31zM367 725l-81 68l-81 -68c-2 -2 -7 -6 -16 -6
c-13 0 -24 11 -24 24c0 8 3 14 9 19l96 79c4 3 8 6 16 6s12 -3 16 -6l96 -79c6 -5 9 -11 9 -19c0 -13 -11 -24 -24 -24c-9 0 -14 4 -16 6z" />
    <glyph glyph-name="Aacute" unicode="&#xc1;" horiz-adv-x="613" 
d="M425 261l-119 306l-118 -306h237zM446 199h-279l-73 -183c-5 -13 -16 -24 -33 -24c-19 0 -34 16 -34 34c0 4 1 11 3 15l244 617c5 12 14 23 32 23c17 0 28 -11 33 -23l244 -617c2 -5 3 -12 3 -15c0 -18 -14 -34 -35 -34c-17 0 -28 10 -33 23zM254 724
c-12 10 -10 21 -3 30l89 108c8 10 22 14 38 0c15 -14 14 -27 3 -38l-97 -98c-9 -9 -18 -12 -30 -2z" />
    <glyph glyph-name="Edieresis" unicode="&#xcb;" 
d="M446 0h-332c-19 0 -34 15 -34 34v605c0 19 15 34 34 34h321c17 0 31 -14 31 -31s-14 -31 -31 -31h-287v-241h220c17 0 31 -14 31 -31s-14 -31 -31 -31h-220v-246h298c17 0 31 -14 31 -31s-14 -31 -31 -31zM205 741c-24 0 -36 12 -36 37s12 38 36 38s36 -13 36 -38
s-12 -37 -36 -37zM362 741c-24 0 -36 12 -36 37s12 38 36 38s36 -13 36 -38s-12 -37 -36 -37z" />
    <glyph glyph-name="Egrave" unicode="&#xc8;" 
d="M446 0h-332c-19 0 -34 15 -34 34v605c0 19 15 34 34 34h321c17 0 31 -14 31 -31s-14 -31 -31 -31h-287v-241h220c17 0 31 -14 31 -31s-14 -31 -31 -31h-220v-246h298c17 0 31 -14 31 -31s-14 -31 -31 -31zM337 724c-12 -10 -21 -7 -30 2l-97 98c-11 11 -12 24 3 38
c16 14 30 10 38 0l89 -108c7 -9 9 -20 -3 -30z" />
    <glyph glyph-name="Iacute" unicode="&#xcd;" horiz-adv-x="228" 
d="M148 647v-621c0 -18 -15 -34 -34 -34s-34 16 -34 34v621c0 18 15 34 34 34s34 -16 34 -34zM62 724c-12 10 -10 21 -3 30l89 108c8 10 22 14 38 0c15 -14 14 -27 3 -38l-97 -98c-9 -9 -18 -12 -30 -2z" />
    <glyph glyph-name="Icircumflex" unicode="&#xce;" horiz-adv-x="228" 
d="M148 647v-621c0 -18 -15 -34 -34 -34s-34 16 -34 34v621c0 18 15 34 34 34s34 -16 34 -34zM196 725l-81 68l-81 -68c-2 -2 -7 -6 -16 -6c-13 0 -24 11 -24 24c0 8 3 14 9 19l96 79c4 3 8 6 16 6s12 -3 16 -6l96 -79c6 -5 9 -11 9 -19c0 -13 -11 -24 -24 -24
c-9 0 -14 4 -16 6z" />
    <glyph glyph-name="Idieresis" unicode="&#xcf;" horiz-adv-x="228" 
d="M148 647v-621c0 -18 -15 -34 -34 -34s-34 16 -34 34v621c0 18 15 34 34 34s34 -16 34 -34zM36 741c-24 0 -36 12 -36 37s12 38 36 38s36 -13 36 -38s-12 -37 -36 -37zM193 741c-24 0 -36 12 -36 37s12 38 36 38s36 -13 36 -38s-12 -37 -36 -37z" />
    <glyph glyph-name="Igrave" unicode="&#xcc;" horiz-adv-x="228" 
d="M148 647v-621c0 -18 -15 -34 -34 -34s-34 16 -34 34v621c0 18 15 34 34 34s34 -16 34 -34zM166 724c-12 -10 -21 -7 -30 2l-97 98c-11 11 -12 24 3 38c16 14 30 10 38 0l89 -108c7 -9 9 -20 -3 -30z" />
    <glyph glyph-name="Oacute" unicode="&#xd3;" horiz-adv-x="712" 
d="M356 -14c-194 0 -312 115 -312 350c0 237 118 351 312 351s312 -114 312 -351c0 -235 -118 -350 -312 -350zM356 625c-153 0 -242 -93 -242 -289c0 -195 89 -288 242 -288s242 93 242 288c0 196 -89 289 -242 289zM301 724c-12 10 -10 21 -3 30l89 108c8 10 22 14 38 0
c15 -14 14 -27 3 -38l-97 -98c-9 -9 -18 -12 -30 -2z" />
    <glyph glyph-name="Ocircumflex" unicode="&#xd4;" horiz-adv-x="712" 
d="M356 -14c-194 0 -312 115 -312 350c0 237 118 351 312 351s312 -114 312 -351c0 -235 -118 -350 -312 -350zM356 625c-153 0 -242 -93 -242 -289c0 -195 89 -288 242 -288s242 93 242 288c0 196 -89 289 -242 289zM440 725l-81 68l-81 -68c-2 -2 -7 -6 -16 -6
c-13 0 -24 11 -24 24c0 8 3 14 9 19l96 79c4 3 8 6 16 6s12 -3 16 -6l96 -79c6 -5 9 -11 9 -19c0 -13 -11 -24 -24 -24c-9 0 -14 4 -16 6z" />
    <glyph glyph-name="Ograve" unicode="&#xd2;" horiz-adv-x="712" 
d="M356 -14c-194 0 -312 115 -312 350c0 237 118 351 312 351s312 -114 312 -351c0 -235 -118 -350 -312 -350zM356 625c-153 0 -242 -93 -242 -289c0 -195 89 -288 242 -288s242 93 242 288c0 196 -89 289 -242 289zM420 724c-12 -10 -21 -7 -30 2l-97 98
c-11 11 -12 24 3 38c16 14 30 10 38 0l89 -108c7 -9 9 -20 -3 -30z" />
    <glyph glyph-name="Uacute" unicode="&#xda;" horiz-adv-x="624" 
d="M315 -14c-189 0 -235 109 -235 219v442c0 19 15 34 34 34s34 -15 34 -34v-442c0 -79 29 -155 167 -155c137 0 166 76 166 155v442c0 19 15 34 34 34s34 -15 34 -34v-442c0 -110 -45 -219 -234 -219zM268 724c-12 10 -10 21 -3 30l89 108c8 10 22 14 38 0
c15 -14 14 -27 3 -38l-97 -98c-9 -9 -18 -12 -30 -2z" />
    <glyph glyph-name="Ucircumflex" unicode="&#xdb;" horiz-adv-x="624" 
d="M315 -14c-189 0 -235 109 -235 219v442c0 19 15 34 34 34s34 -15 34 -34v-442c0 -79 29 -155 167 -155c137 0 166 76 166 155v442c0 19 15 34 34 34s34 -15 34 -34v-442c0 -110 -45 -219 -234 -219zM396 725l-81 68l-81 -68c-2 -2 -7 -6 -16 -6c-13 0 -24 11 -24 24
c0 8 3 14 9 19l96 79c4 3 8 6 16 6s12 -3 16 -6l96 -79c6 -5 9 -11 9 -19c0 -13 -11 -24 -24 -24c-9 0 -14 4 -16 6z" />
    <glyph glyph-name="Ugrave" unicode="&#xd9;" horiz-adv-x="624" 
d="M315 -14c-189 0 -235 109 -235 219v442c0 19 15 34 34 34s34 -15 34 -34v-442c0 -79 29 -155 167 -155c137 0 166 76 166 155v442c0 19 15 34 34 34s34 -15 34 -34v-442c0 -110 -45 -219 -234 -219zM375 724c-12 -10 -21 -7 -30 2l-97 98c-11 11 -12 24 3 38
c16 14 30 10 38 0l89 -108c7 -9 9 -20 -3 -30z" />
    <glyph glyph-name="dcroat" unicode="&#x111;" horiz-adv-x="501" 
d="M488 558c0 -15 -12 -27 -27 -27h-25v-347c0 -132 -82 -197 -196 -197c-129 0 -205 77 -205 241s72 240 201 240c64 0 113 -33 136 -65v128h-95c-15 0 -27 12 -27 27s12 27 27 27h95v95c0 18 14 32 32 32s32 -14 32 -32v-95h25c15 0 27 -12 27 -27zM372 184v138
s-38 88 -132 88c-91 0 -141 -59 -141 -182c0 -125 49 -183 141 -183c77 0 132 44 132 139z" />
    <glyph glyph-name="yacute" unicode="&#xfd;" horiz-adv-x="438" 
d="M35 -141c87 0 110 59 151 160l-167 397c-1 3 -3 7 -3 14c0 18 14 32 32 32s26 -11 30 -21l141 -345l141 345c4 10 12 21 30 21s32 -14 32 -32c0 -7 -2 -11 -3 -14l-197 -469c-41 -98 -92 -148 -187 -148c-17 0 -30 13 -30 30s13 30 30 30zM178 520c-12 10 -10 21 -3 30
l89 108c8 10 22 14 38 0c15 -14 14 -27 3 -38l-97 -98c-9 -9 -18 -12 -30 -2z" />
    <glyph glyph-name="Hbar" unicode="&#x126;" horiz-adv-x="644" 
d="M496 314h-348v-288c0 -18 -15 -34 -34 -34s-34 16 -34 34v437h-30c-14 0 -25 11 -25 25s11 25 25 25h30v134c0 18 15 34 34 34s34 -16 34 -34v-134h348v134c0 18 15 34 34 34s34 -16 34 -34v-134h30c14 0 25 -11 25 -25s-11 -25 -25 -25h-30v-437c0 -18 -15 -34 -34 -34
s-34 16 -34 34v288zM148 376h348v87h-348v-87z" />
    <glyph glyph-name="hbar" unicode="&#x127;" horiz-adv-x="501" 
d="M262 468c154 0 184 -92 184 -177v-267c0 -18 -14 -32 -32 -32s-32 14 -32 32v254c0 79 -23 133 -120 133c-99 0 -133 -60 -133 -140v-247c0 -18 -14 -32 -32 -32s-32 14 -32 32v537h-29c-14 0 -25 11 -25 25s11 25 25 25h29v69c0 18 14 32 32 32s32 -14 32 -32v-69h111
c14 0 25 -11 25 -25s-11 -25 -25 -25h-111v-163c19 38 68 70 133 70z" />
    <glyph glyph-name="scaron" unicode="&#x161;" horiz-adv-x="424" 
d="M207 406c-45 0 -89 -14 -89 -60c0 -105 263 -66 263 -226c0 -91 -75 -132 -170 -132c-82 0 -145 39 -171 72c-5 7 -7 12 -7 19c0 16 13 29 29 29c6 0 14 -2 22 -10c31 -31 71 -49 127 -49c57 0 106 19 106 71c0 103 -263 62 -263 226c0 83 68 121 153 121
c68 0 121 -23 152 -64c3 -4 7 -10 7 -19c0 -16 -13 -29 -29 -29c-5 0 -13 1 -21 9c-27 26 -57 42 -109 42zM212 553l81 68c2 2 7 6 16 6c13 0 24 -11 24 -24c0 -8 -3 -14 -9 -19l-96 -79c-4 -3 -8 -6 -16 -6s-12 3 -16 6l-96 79c-6 5 -9 11 -9 19c0 13 11 24 24 24
c9 0 14 -4 16 -6z" />
    <glyph glyph-name="Tcommaaccent" unicode="&#x162;" horiz-adv-x="538" 
d="M235 609h-179c-18 0 -32 14 -32 32s14 32 32 32h425c18 0 32 -14 32 -32s-14 -32 -32 -32h-178v-583c0 -17 -12 -30 -28 -33l-11 -52s18 2 27 2c59 0 87 -27 87 -82c0 -60 -36 -85 -97 -85c-26 0 -51 9 -64 18c-7 5 -8 11 -8 15c0 10 8 19 18 19c4 0 8 -1 12 -3
c10 -5 24 -10 42 -10c35 0 53 8 53 46c0 34 -16 46 -44 46c-17 0 -30 -4 -41 -4c-9 0 -19 6 -18 22l12 79c-5 6 -8 13 -8 22v583z" />
    <glyph glyph-name="tcommaaccent" unicode="&#x163;" horiz-adv-x="279" 
d="M90 454v105c0 17 15 32 32 32c18 0 32 -15 32 -32v-105h65c17 0 30 -13 30 -30s-13 -30 -30 -30h-65v-276c0 -43 24 -66 58 -66c17 0 31 -13 31 -30s-14 -30 -31 -30c-14 0 -27 2 -39 5l-12 -56s18 2 27 2c59 0 87 -27 87 -82c0 -60 -36 -85 -97 -85c-26 0 -51 9 -64 18
c-7 5 -8 11 -8 15c0 10 8 19 18 19c4 0 8 -1 12 -3c10 -5 24 -10 42 -10c35 0 53 8 53 46c0 34 -16 46 -44 46c-17 0 -30 -4 -41 -4c-9 0 -19 6 -18 22l11 87c-32 22 -49 60 -49 106v276h-39c-17 0 -30 13 -30 30s13 30 30 30h39z" />
    <glyph glyph-name="Tbar" unicode="&#x166;" horiz-adv-x="538" 
d="M235 609h-179c-18 0 -32 14 -32 32s14 32 32 32h425c18 0 32 -14 32 -32s-14 -32 -32 -32h-178v-243h81c14 0 25 -11 25 -25s-11 -25 -25 -25h-81v-290c0 -19 -15 -34 -34 -34s-34 15 -34 34v290h-87c-14 0 -25 11 -25 25s11 25 25 25h87v243z" />
    <glyph glyph-name="tbar" unicode="&#x167;" horiz-adv-x="279" 
d="M249 300c0 -14 -11 -25 -25 -25h-70v-157c0 -43 24 -66 58 -66c17 0 31 -13 31 -30s-14 -30 -31 -30c-79 0 -122 53 -122 126v157h-44c-14 0 -25 11 -25 25s11 25 25 25h44v69h-39c-17 0 -30 13 -30 30s13 30 30 30h39v105c0 17 15 32 32 32c18 0 32 -15 32 -32v-105h65
c17 0 30 -13 30 -30s-13 -30 -30 -30h-65v-69h70c14 0 25 -11 25 -25z" />
    <glyph glyph-name="uacute" unicode="&#xfa;" horiz-adv-x="482" 
d="M87 462c17 0 32 -14 32 -32v-261c0 -65 21 -121 122 -121s122 56 122 121v261c0 18 15 32 33 32c17 0 31 -14 31 -32v-261c0 -95 -31 -182 -186 -182c-154 0 -186 87 -186 182v261c0 18 14 32 32 32zM202 520c-12 10 -10 21 -3 30l89 108c8 10 22 14 38 0
c15 -14 14 -27 3 -38l-97 -98c-9 -9 -18 -12 -30 -2z" />
    <glyph glyph-name="ugrave" unicode="&#xf9;" horiz-adv-x="482" 
d="M87 462c17 0 32 -14 32 -32v-261c0 -65 21 -121 122 -121s122 56 122 121v261c0 18 15 32 33 32c17 0 31 -14 31 -32v-261c0 -95 -31 -182 -186 -182c-154 0 -186 87 -186 182v261c0 18 14 32 32 32zM292 520c-12 -10 -21 -7 -30 2l-97 98c-11 11 -12 24 3 38
c16 14 30 10 38 0l89 -108c7 -9 9 -20 -3 -30z" />
    <glyph glyph-name="ucircumflex" unicode="&#xfb;" horiz-adv-x="482" 
d="M87 462c17 0 32 -14 32 -32v-261c0 -65 21 -121 122 -121s122 56 122 121v261c0 18 15 32 33 32c17 0 31 -14 31 -32v-261c0 -95 -31 -182 -186 -182c-154 0 -186 87 -186 182v261c0 18 14 32 32 32zM326 528l-81 68l-81 -68c-2 -2 -7 -6 -16 -6c-13 0 -24 11 -24 24
c0 8 3 14 9 19l96 79c4 3 8 6 16 6s12 -3 16 -6l96 -79c6 -5 9 -11 9 -19c0 -13 -11 -24 -24 -24c-9 0 -14 4 -16 6z" />
    <glyph glyph-name="udieresis" unicode="&#xfc;" horiz-adv-x="482" 
d="M87 462c17 0 32 -14 32 -32v-261c0 -65 21 -121 122 -121s122 56 122 121v261c0 18 15 32 33 32c17 0 31 -14 31 -32v-261c0 -95 -31 -182 -186 -182c-154 0 -186 87 -186 182v261c0 18 14 32 32 32zM169 534c-24 0 -36 12 -36 37s12 38 36 38s36 -13 36 -38
s-12 -37 -36 -37zM326 534c-24 0 -36 12 -36 37s12 38 36 38s36 -13 36 -38s-12 -37 -36 -37z" />
    <glyph glyph-name="Ccedilla" unicode="&#xc7;" horiz-adv-x="631" 
d="M441 -139c0 -60 -36 -85 -97 -85c-26 0 -51 9 -64 18c-7 5 -8 11 -8 15c0 10 8 19 18 19c4 0 8 -1 12 -3c10 -5 24 -10 42 -10c35 0 53 8 53 46c0 34 -16 46 -44 46c-17 0 -30 -4 -41 -4c-9 0 -19 6 -18 22l2 65c-158 19 -252 126 -252 346c0 237 118 351 312 351
c95 0 178 -41 225 -106c5 -7 7 -14 7 -21c0 -18 -14 -32 -32 -32c-9 0 -18 3 -26 13c-34 47 -99 84 -174 84c-154 0 -242 -93 -242 -289c0 -208 88 -288 242 -288c66 0 135 26 174 82c7 10 18 13 26 13c18 0 32 -14 32 -32c0 -8 -2 -13 -6 -19c-44 -64 -134 -106 -226 -106
c-9 0 -25 1 -25 1l-4 -46s18 2 27 2c59 0 87 -27 87 -82z" />
    <glyph glyph-name="ccedilla" unicode="&#xe7;" horiz-adv-x="441" 
d="M344 -139c0 -60 -36 -85 -97 -85c-26 0 -51 9 -64 18c-7 5 -8 11 -8 15c0 10 8 19 18 19c4 0 8 -1 12 -3c10 -5 24 -10 42 -10c35 0 53 8 53 46c0 34 -16 46 -44 46c-17 0 -30 -4 -41 -4c-9 0 -19 6 -18 22l2 65c-104 15 -164 92 -164 238c0 164 77 240 206 240
c89 0 138 -47 154 -69c5 -7 7 -12 7 -19c0 -17 -13 -29 -29 -29c-10 0 -17 4 -24 12c-15 17 -42 47 -108 47c-92 0 -141 -59 -141 -182c0 -125 49 -183 141 -183c58 0 93 26 116 43c7 5 12 7 19 7c16 0 29 -13 29 -29c0 -9 -3 -16 -13 -25c-22 -18 -67 -54 -158 -54l-4 -46
s18 2 27 2c59 0 87 -27 87 -82z" />
    <glyph glyph-name="Scedilla" unicode="&#x15e;" horiz-adv-x="558" 
d="M381 -139c0 -60 -36 -85 -97 -85c-26 0 -51 9 -64 18c-7 5 -8 11 -8 15c0 10 8 19 18 19c4 0 8 -1 12 -3c10 -5 24 -10 42 -10c35 0 53 8 53 46c0 34 -16 46 -44 46c-17 0 -30 -4 -41 -4c-9 0 -19 6 -18 22l2 63c-95 11 -165 63 -195 121c-4 8 -5 12 -5 18
c0 18 14 32 32 32c12 0 22 -6 28 -16c32 -52 90 -95 178 -95c110 0 172 44 172 132c0 187 -378 99 -378 336c0 92 67 171 213 171c95 0 172 -40 214 -103c4 -6 6 -12 6 -19c0 -18 -14 -32 -32 -32c-9 0 -18 3 -26 13c-30 37 -78 79 -162 79c-105 0 -145 -52 -145 -109
c0 -166 378 -95 378 -336c0 -125 -86 -194 -243 -194l-4 -45s18 2 27 2c59 0 87 -27 87 -82z" />
    <glyph glyph-name="scedilla" unicode="&#x15f;" horiz-adv-x="424" 
d="M312 -139c0 -60 -36 -85 -97 -85c-26 0 -51 9 -64 18c-7 5 -8 11 -8 15c0 10 8 19 18 19c4 0 8 -1 12 -3c10 -5 24 -10 42 -10c35 0 53 8 53 46c0 34 -16 46 -44 46c-17 0 -30 -4 -41 -4c-9 0 -19 6 -18 22l2 67c-60 10 -106 41 -127 68c-5 7 -7 12 -7 19
c0 16 13 29 29 29c6 0 14 -2 22 -10c31 -31 71 -49 127 -49c57 0 106 19 106 71c0 103 -263 62 -263 226c0 83 68 121 153 121c68 0 121 -23 152 -64c3 -4 7 -10 7 -19c0 -16 -13 -29 -29 -29c-5 0 -13 1 -21 9c-27 26 -57 42 -109 42c-45 0 -89 -14 -89 -60
c0 -105 263 -66 263 -226c0 -91 -75 -132 -179 -132l-4 -47s18 2 27 2c59 0 87 -27 87 -82z" />
    <glyph glyph-name="uni021A" unicode="&#x21a;" horiz-adv-x="538" 
d="M235 609h-179c-18 0 -32 14 -32 32s14 32 32 32h425c18 0 32 -14 32 -32s-14 -32 -32 -32h-178v-583c0 -19 -15 -34 -34 -34s-34 15 -34 34v583zM305 -100c0 -36 -18 -99 -46 -135c-3 -3 -6 -6 -13 -6c-8 0 -16 8 -13 19c8 25 11 41 11 55c0 37 -18 51 -18 78
c0 33 15 47 39 47c31 0 40 -18 40 -58z" />
    <glyph glyph-name="uni021B" unicode="&#x21b;" horiz-adv-x="279" 
d="M90 454v105c0 17 15 32 32 32c18 0 32 -15 32 -32v-105h65c17 0 30 -13 30 -30s-13 -30 -30 -30h-65v-276c0 -43 24 -66 58 -66c17 0 31 -13 31 -30s-14 -30 -31 -30c-79 0 -122 53 -122 126v276h-39c-17 0 -30 13 -30 30s13 30 30 30h39zM199 -100
c0 -36 -18 -99 -46 -135c-3 -3 -6 -6 -13 -6c-8 0 -16 8 -13 19c8 25 11 41 11 55c0 37 -18 51 -18 78c0 33 15 47 39 47c31 0 40 -18 40 -58z" />
    <glyph glyph-name="Aogonek" unicode="&#x104;" horiz-adv-x="613" 
d="M564 -130c12 0 22 -10 22 -22c0 -10 -6 -17 -13 -20c-17 -8 -34 -11 -55 -11c-54 0 -89 23 -89 75c0 42 36 86 97 110c-4 3 -6 8 -8 13l-72 184h-279l-73 -183c-5 -13 -16 -24 -33 -24c-19 0 -34 16 -34 34c0 4 1 11 3 15l244 617c5 12 14 23 32 23c17 0 28 -11 33 -23
l244 -617c2 -5 3 -12 3 -15c0 -13 -7 -25 -18 -30c-48 -22 -89 -56 -89 -96c0 -22 17 -37 41 -37c12 0 17 1 26 3c8 2 14 4 18 4zM425 261l-119 306l-118 -306h237z" />
    <glyph glyph-name="aogonek" unicode="&#x105;" horiz-adv-x="467" 
d="M390 -130c12 0 22 -10 22 -22c0 -10 -6 -17 -13 -20c-17 -8 -34 -11 -55 -11c-54 0 -89 23 -89 75c0 42 35 84 102 111c-5 5 -7 12 -7 20v36c-25 -47 -83 -72 -143 -72c-106 0 -173 51 -173 143c0 88 67 141 175 141h141v27c0 68 -45 110 -118 110
c-53 0 -85 -16 -116 -51c-10 -11 -17 -14 -26 -14c-16 0 -29 13 -29 29c0 7 2 12 5 17c28 44 82 79 166 79c116 0 180 -68 180 -170v-275c0 -14 -8 -24 -23 -30c-46 -22 -84 -54 -84 -93c0 -22 17 -37 41 -37c12 0 17 1 26 3c8 2 14 4 18 4zM213 45c70 0 137 43 137 128v42
h-141c-65 0 -110 -27 -110 -85c0 -52 36 -85 114 -85z" />
    <glyph glyph-name="Eogonek" unicode="&#x118;" 
d="M438 -130c12 0 22 -10 22 -22c0 -10 -6 -17 -13 -20c-17 -8 -34 -11 -55 -11c-54 0 -89 23 -89 75c0 42 32 84 94 108h-283c-19 0 -34 15 -34 34v605c0 19 15 34 34 34h321c17 0 31 -14 31 -31s-14 -31 -31 -31h-287v-241h220c17 0 31 -14 31 -31s-14 -31 -31 -31h-220
v-246h298c17 0 31 -14 31 -31s-14 -31 -31 -31c-48 -22 -93 -60 -93 -100c0 -22 17 -37 41 -37c12 0 17 1 26 3c8 2 14 4 18 4z" />
    <glyph glyph-name="eogonek" unicode="&#x119;" horiz-adv-x="466" 
d="M367 -130c12 0 22 -10 22 -22c0 -10 -6 -17 -13 -20c-17 -8 -34 -11 -55 -11c-54 0 -89 23 -89 75c0 31 17 70 51 97c-10 -1 -21 -2 -32 -2c-133 0 -216 73 -216 241c0 154 76 240 206 240c160 0 191 -127 191 -195c0 -29 0 -64 -40 -64h-292c0 -99 57 -163 151 -163
c58 0 92 22 120 43c6 4 10 6 18 6c16 0 29 -13 29 -29c0 -11 -5 -17 -11 -23c-7 -7 -20 -18 -39 -28c-47 -26 -86 -63 -86 -110c0 -25 17 -42 41 -42c12 0 17 1 26 3c8 2 14 4 18 4zM369 265c0 72 -25 145 -128 145c-87 0 -135 -56 -141 -145h269z" />
    <glyph glyph-name="Uogonek" unicode="&#x172;" horiz-adv-x="624" 
d="M461 -130c12 0 22 -10 22 -22c0 -10 -6 -17 -13 -20c-17 -8 -34 -11 -55 -11c-54 0 -89 23 -89 75c0 31 18 65 55 100c-20 -4 -42 -6 -66 -6c-189 0 -235 109 -235 219v442c0 19 15 34 34 34s34 -15 34 -34v-442c0 -79 29 -155 167 -155c137 0 166 76 166 155v442
c0 19 15 34 34 34s34 -15 34 -34v-442c0 -70 -19 -140 -81 -181c-54 -41 -92 -86 -92 -124c0 -22 17 -37 41 -37c12 0 17 1 26 3c8 2 14 4 18 4z" />
    <glyph glyph-name="uogonek" unicode="&#x173;" horiz-adv-x="482" 
d="M370 -130c12 0 22 -10 22 -22c0 -10 -6 -17 -13 -20c-17 -8 -34 -11 -55 -11c-54 0 -89 23 -89 75c0 31 20 65 55 99c-15 -2 -31 -4 -49 -4c-154 0 -186 87 -186 182v261c0 18 14 32 32 32c17 0 32 -14 32 -32v-261c0 -65 21 -121 122 -121s122 56 122 121v261
c0 18 15 32 33 32c17 0 31 -14 31 -32v-261c0 -59 -12 -112 -57 -148c-55 -44 -85 -82 -85 -121c0 -22 17 -37 41 -37c12 0 17 1 26 3c8 2 14 4 18 4z" />
    <glyph glyph-name="Iogonek" unicode="&#x12e;" horiz-adv-x="228" 
d="M125 -130c12 0 22 -10 22 -22c0 -10 -6 -17 -13 -20c-17 -8 -34 -11 -55 -11c-54 0 -89 23 -89 75c0 42 35 84 100 109c-6 7 -10 15 -10 25v621c0 18 15 34 34 34s34 -16 34 -34v-621c0 -15 -11 -29 -25 -33c-45 -22 -83 -55 -83 -93c0 -22 17 -37 41 -37c12 0 17 1 26 3
c8 2 14 4 18 4z" />
    <glyph glyph-name="iogonek" unicode="&#x12f;" horiz-adv-x="193" 
d="M104 -130c12 0 22 -10 22 -22c0 -10 -6 -17 -13 -20c-17 -8 -34 -11 -55 -11c-54 0 -89 23 -89 75c0 42 43 86 104 109c-6 6 -9 14 -9 23v406c0 18 14 32 32 32s32 -14 32 -32v-406c0 -13 -7 -24 -18 -29c-48 -22 -91 -55 -91 -95c0 -22 17 -37 41 -37c12 0 17 1 26 3
c8 2 14 4 18 4zM96 556c-24 0 -38 14 -38 38c0 29 14 40 38 40s38 -11 38 -40c0 -24 -14 -38 -38 -38z" />
    </font>
</defs>
</svg>
